<svg width="1080" height="1080" viewBox="0 0 1080 1080" fill="none" xmlns="http://www.w3.org/2000/svg">
<path d="M599.773 950.72L599.04 951.004C596.558 951.916 593.567 953.965 599.773 950.72Z" fill="white"/>
<path d="M922.921 522.055C922.263 492.356 920.962 462.671 920.08 433.002C924.656 425.704 927.856 417.778 928.006 408.507C928.305 390.278 916.042 374.516 899.039 368.878C891.562 366.395 883.651 366.395 875.86 366.156L875.142 362.762C873.213 353.236 871.972 343.575 870.656 333.96C868.129 316.194 865.556 297.875 860.726 280.573C855.253 260.983 845.428 241.781 829.681 228.487C814.047 215.214 795.029 206.552 774.754 203.468C734.377 197.487 695.212 208.343 670.851 242.649C664.423 251.829 659.463 261.955 656.151 272.662C651.829 271.062 647.463 269.671 643.171 268.295C631.875 264.756 620.334 262.052 608.641 260.205C594.028 257.69 579.005 259.199 565.184 264.572C561.246 256.704 556.139 249.479 550.036 243.142C541.454 234.333 531.193 227.336 519.858 222.565C520 218.033 519.77 213.496 519.17 209.001C516.463 188.783 504.933 172.184 488.125 160.893C463.884 144.608 435.411 146.283 409.166 154.912C389.935 142.53 367.429 133.976 344.862 135.965C330.581 137.221 316.584 139.763 303.693 146.253C297.341 149.551 291.593 153.9 286.69 159.114C269.938 160.581 253.941 166.75 240.541 176.909C229.946 185.165 221.569 195.926 216.166 208.224C200.721 209.362 185.612 213.294 171.572 219.828C151.862 228.801 136.175 246.611 126.216 265.469C112.577 291.295 108.27 320.486 121.654 347.374C127.023 358.171 135.457 366.964 144.908 374.291C148.124 376.774 151.324 379.151 154.703 381.305C154.587 385.802 154.812 390.301 155.376 394.764C157.141 409.598 160.82 424.029 168.94 436.815C175.081 446.531 183.062 454.954 192.433 461.61C192.314 469.804 193.211 478.209 193.211 486.404C193.211 510.331 194.078 534.422 194.706 558.394C195.364 582.65 196.202 606.906 196.77 631.161C196.91 637.402 197.049 643.638 197.189 649.869L197.278 654.131C198.275 649.904 198.44 649.735 197.772 653.623C197.338 658.423 196.486 663.224 195.858 668.009C195.604 669.983 195.349 671.972 195.11 673.991C177.524 684.847 165.201 703.795 171.183 725.538C175.266 740.343 186.422 750.452 199.477 757.54C199.581 762.595 199.671 767.664 199.671 772.734C199.671 792.713 203.41 810.703 216.584 826.285C226.589 838.129 241.334 846.803 255.002 853.936C269.164 861.413 283.819 867.798 298.235 874.707C360.714 904.616 425.96 929.485 493.643 944.768C512.022 948.926 529.01 956.283 547.987 957.375C560.277 958.068 572.607 957.294 584.715 955.072C590.854 954.103 596.8 952.164 602.331 949.329L599.714 950.72C604.468 948.963 609.078 946.838 613.502 944.365C653.559 927.207 693.437 909.7 733.136 891.845C766.454 876.891 800.012 862.385 833.106 846.982C849.555 839.281 865.527 830.443 881.737 822.173C900.176 812.782 917.792 799.368 922.891 778.207C925.568 767.141 925.658 755.671 926.525 744.381C927.258 734.81 927.542 725.209 927.587 715.623C927.677 694.762 926.6 673.916 925.747 653.084C924.252 609.403 923.908 565.736 922.921 522.055ZM156.423 363.195C157.59 358.111 157.799 357.498 157.021 361.341C156.872 362.223 156.782 363.135 156.648 364.018L156.423 363.195ZM870.342 365.782C875.501 366.022 872.974 366.141 870.342 365.782V365.782ZM868.398 365.693C867.904 365.693 867.396 365.603 866.902 365.588L868.398 365.693ZM167.489 388.109C169.149 389.081 168.85 389.201 167.489 388.109V388.109Z" fill="white"/>
<path d="M291.863 430.878C279.72 434.288 272.422 446.506 267.562 458.125C260.204 475.547 230.894 640.867 226.198 697.753C219.488 698.657 213.178 701.464 208.014 705.843C188.977 723.25 233.96 736.754 245.953 737.531C251.471 737.89 257.423 737.412 261.819 734.047C268.265 729.112 269.132 719.093 265.154 711.989C259.561 702.075 247.015 697.23 234.513 697.125C248.166 647.028 277.656 509.059 291.07 463.942C294.315 453.115 297.411 440.778 291.863 430.878Z" fill="#DDFF66"/>
<path d="M291.266 428.725C275.325 433.944 266.86 450.513 262.853 465.842C259.099 480.288 256.288 494.988 253.446 509.613C244.992 552.98 237.555 596.527 231.135 640.254C228.323 659.35 225.572 678.507 223.942 697.753L225.587 695.585C215.657 697.469 195.274 706.172 202.617 719.84C208.284 730.413 224.659 735.154 235.352 737.86C248.467 741.195 267.279 741.3 269.582 724.117C272.229 704.438 250.53 695.375 234.499 694.882L236.653 697.708C255.704 627.632 269.238 556.121 287.408 485.806C291.894 468.324 302.362 447.134 293.793 429.757C292.522 427.17 288.649 429.428 289.92 432.015C295.558 443.485 290.997 455.942 287.722 467.382C285.957 473.573 284.327 479.794 282.727 486.015C278.555 502.255 274.652 518.556 270.763 534.871C261.791 572.526 253.327 610.255 244.399 647.91C240.541 664.151 236.683 680.406 232.301 696.527C232.215 696.86 232.206 697.208 232.274 697.546C232.342 697.883 232.486 698.201 232.695 698.474C232.904 698.748 233.172 698.97 233.479 699.125C233.787 699.28 234.125 699.363 234.469 699.368C248.347 699.802 270.868 708.67 264.228 726.794C259.608 739.416 242.38 735.378 232.495 732.432C224.405 730.024 214.834 726.809 208.808 720.603C198.1 709.582 218.274 701.521 226.753 699.906C227.222 699.772 227.635 699.489 227.931 699.102C228.228 698.714 228.391 698.241 228.398 697.753C231.538 660.442 237.954 623.296 244.145 586.403C250.336 549.511 256.587 512.693 264.916 476.31C268.7 459.725 274.323 438.924 292.417 433.047C295.199 432.179 294.032 427.828 291.266 428.725Z" fill="#1C1835"/>
<path d="M496.634 701.686C486.764 692.998 470.359 693.745 457.408 699.921C453.49 679.524 448.047 659.41 442.589 639.356C428.397 587.136 409.495 487.959 395.303 435.739C392.312 424.792 388.484 412.709 378.569 407.221C370.03 416.507 370.285 430.729 372.244 443.186C375.608 464.63 387.198 532.299 394.002 552.906C405.876 588.706 417.745 624.512 429.608 660.322C434.738 675.755 440.076 691.652 449.303 704.871C445.77 707.51 442.826 710.856 440.66 714.696C428.397 737.382 475.339 735.348 486.898 732.133C492.237 730.637 497.71 728.245 500.746 723.624C505.217 716.85 502.72 707.055 496.634 701.686Z" fill="#DDFF66"/>
<path d="M498.217 700.101C486 690.291 469.804 691.906 456.27 697.992L459.575 699.323C451.41 657.675 438.819 616.88 429.577 575.442C420.709 535.708 412.529 495.825 402.884 456.286C398.681 439.118 396.064 415.371 379.689 405.277C379.259 405.029 378.76 404.93 378.268 404.995C377.776 405.06 377.319 405.285 376.968 405.636C365.632 419.169 368.922 436.905 371.554 452.951C374.306 469.61 377.252 486.229 380.392 502.809C383.383 518.585 386.269 534.572 390.771 550.004C398.038 574.948 407.086 599.503 415.266 624.178C424.313 651.469 431.162 681.842 447.358 706.008L447.717 703.286C441.167 708.67 431.955 719.556 438.744 728.17C444.337 735.258 456.241 735.991 464.48 736.275C473.887 736.589 484.235 736.171 492.983 732.357C506.906 726.271 508.79 710.539 498.217 700.101C496.169 698.067 492.983 701.237 495.047 703.271C501.029 709.118 503.496 718.913 496.468 725.104C493.043 728.095 488.407 729.591 484.026 730.503C477.584 731.7 471.023 732.132 464.48 731.789C458.125 731.565 450.169 731.146 444.711 727.467C435.738 721.485 445.204 711.122 450.887 706.531C451.235 706.178 451.457 705.72 451.52 705.228C451.582 704.737 451.48 704.238 451.231 703.809C437.323 683.083 431.117 657.81 423.341 634.362L398.038 558.095C388.228 528.515 383.608 497.081 378.344 466.44C375.353 448.719 367.397 424.149 380.153 408.94L377.431 409.284C392.67 418.691 395.092 443.335 398.996 459.456C403.482 477.91 407.594 496.453 411.677 514.996C419.842 552.068 427.528 589.274 436.785 626.107C443.021 650.946 450.319 675.456 455.239 700.654C455.337 700.982 455.507 701.284 455.737 701.538C455.967 701.792 456.251 701.99 456.568 702.119C456.886 702.249 457.228 702.305 457.57 702.284C457.911 702.264 458.244 702.166 458.544 702C470.043 696.841 484.579 695.001 495.047 703.406C497.275 705.066 500.475 701.91 498.217 700.101Z" fill="#1C1835"/>
<path d="M302.825 192.297C289.485 189.71 266.411 196.649 257.139 206.579C247.868 216.508 239.912 232.704 243.426 245.834C225.481 238.596 208.568 241.048 190.593 248.077C172.618 255.105 161.028 269.955 152.788 287.392C146.926 299.819 144.563 314.504 149.408 327.365C155.121 342.528 169.716 352.578 184.641 358.918C186.824 359.845 189.277 360.952 190.069 363.195C190.44 364.741 190.389 366.357 189.92 367.876C186.166 386.3 188.634 406.488 199.356 421.921C210.078 437.354 229.728 446.999 248.137 443.231C251.666 442.513 255.24 441.331 258.799 441.84C263.106 442.453 266.65 445.414 270.135 448.016C299.325 469.879 341.541 472.676 373.319 454.865C385.687 447.941 397.052 437.219 399.803 423.312C417.036 434.256 437.782 438.25 457.847 434.486C477.912 430.722 495.799 419.48 507.893 403.033C513.561 395.332 517.913 386.24 517.883 376.699C517.853 367.158 512.544 357.258 503.616 353.819C528.949 345.699 545.488 316.433 539.342 290.607C533.196 264.781 505.456 245.953 479.196 250.006C485.297 235.396 489.933 218.467 483.323 204.081C477.102 190.622 461.909 182.742 447.044 181.934C432.179 181.126 417.584 186.241 404.185 192.761C388.887 179.227 363.988 166.995 343.74 169.671C323.492 172.348 314.04 175.264 302.825 192.297Z" fill="#DDFF66"/>
<path d="M303.422 190.144C272.317 185.075 233.691 212.022 241.257 246.432L244.009 243.666C210.855 231.119 173.634 246.836 156.003 276.565C147.359 291.116 141.288 308.717 146.417 325.57C150.993 340.644 163.809 351.232 177.432 358.096C182.053 360.429 187.123 360.877 187.766 367.323C188.14 371.106 186.27 376.295 186.136 380.109C185.617 389.319 186.804 398.546 189.635 407.325C192.011 414.821 195.911 421.746 201.088 427.664C206.266 433.583 212.61 438.368 219.723 441.72C225.955 444.604 232.717 446.162 239.583 446.296C242.654 446.267 245.716 445.967 248.735 445.399C256.526 444.113 260.698 443.978 267.248 448.629C281.215 458.678 296.229 465.423 313.367 467.801C345.324 472.287 393.597 460.189 402.031 423.91L398.726 425.256C427.902 443.111 465.243 442.064 492.759 421.427C504.722 412.455 516.207 399.34 519.348 384.356C522.039 371.555 517.299 357.438 504.812 351.89L504.274 355.987C530.354 347.015 547.641 318.347 541.779 291.011C535.797 263.286 506.891 244.114 479.195 247.778L481.349 250.619C490.112 229.205 494.03 202.93 472.242 188.006C450.947 173.41 424.507 180.603 403.048 190.832L405.77 191.191C389.499 177.149 366.889 165.17 344.786 167.264C336.292 168.101 327.23 169.507 319.483 173.246C311.468 177.134 305.8 183.848 300.88 191.086C299.265 193.494 303.138 195.737 304.753 193.359C328.157 158.845 375.398 170.808 402.599 194.271C402.961 194.605 403.417 194.817 403.905 194.879C404.393 194.941 404.888 194.848 405.321 194.615C424.762 185.359 448.404 178.45 468.129 190.638C489.813 203.992 485.147 229.294 476.952 249.333C476.863 249.667 476.852 250.016 476.919 250.355C476.986 250.693 477.129 251.012 477.339 251.286C477.548 251.561 477.818 251.783 478.126 251.937C478.435 252.091 478.775 252.173 479.121 252.175C504.244 248.855 530.459 265.17 536.904 290.129C543.469 315.461 527.363 343.171 503.003 351.576C501.388 352.129 500.565 354.821 502.464 355.673C517.763 362.462 517.777 380.647 511.048 393.687C504.827 405.755 494.299 415.79 482.635 422.639C457.213 437.593 425.809 436.576 400.865 421.278C400.565 421.111 400.233 421.014 399.891 420.993C399.549 420.973 399.207 421.029 398.89 421.158C398.572 421.287 398.288 421.486 398.058 421.74C397.828 421.993 397.658 422.295 397.56 422.624C390.083 455.03 347.164 466.41 318.302 463.808C302.758 462.456 287.798 457.238 274.785 448.629C269.85 445.309 265.289 440.599 259.203 439.657C251.98 438.445 244.637 442.154 237.25 441.705C220.665 440.674 205.741 429.936 197.905 415.565C193.669 407.621 191.161 398.871 190.547 389.889C189.889 381.484 192.282 373.723 192.357 365.498C192.357 360.818 189.366 358.814 185.568 356.959C178.3 353.46 171.211 350.065 164.961 344.846C150.604 332.883 145.864 315.551 151.068 297.651C155.898 281.096 167.144 264.138 181.859 254.881C199.699 243.651 222.908 240.51 242.633 247.987C244.338 248.63 245.729 246.746 245.385 245.221C242.11 230.266 251.501 211.903 264.018 203.648C274.486 196.709 289.44 192.402 302.032 194.451C305.067 194.929 306.264 190.608 303.422 190.144Z" fill="#1C1835"/>
<path d="M247.689 273.35C235.591 293.807 237.057 321.996 257.11 337.085C273.186 349.198 296.724 353.011 313.354 340.076C321.06 334.254 326.935 326.344 330.283 317.285C333.63 308.225 334.31 298.396 332.241 288.962C327.755 268.863 305.502 254.462 285.643 253.685C270.928 253.117 256.213 261.476 247.689 273.305C244.878 277.208 251.353 280.946 254.149 277.073C261.058 267.503 274.831 260.025 287.632 261.297C299.023 262.698 309.553 268.079 317.361 276.49C326.244 286.33 327.65 299.998 324.21 312.455C318.976 331.357 299.865 344.113 280.574 339.687C269.059 337.025 257.439 330.61 251.846 319.783C244.653 305.86 246.343 290.248 254.149 277.073C256.602 272.961 250.142 269.177 247.689 273.35Z" fill="black"/>
<path d="M295.124 307.67C294.518 308.606 294.153 309.678 294.062 310.789C293.97 311.901 294.156 313.018 294.601 314.04C295 314.903 295.587 315.665 296.319 316.271C297.052 316.876 297.911 317.31 298.833 317.54C300.067 317.975 301.413 317.974 302.646 317.535C303.879 317.097 304.924 316.249 305.607 315.132C306.603 313.66 306.989 311.859 306.684 310.107C306.394 308.93 305.785 307.856 304.926 307.001C304.066 306.147 302.987 305.545 301.809 305.262C300.582 304.938 299.285 304.994 298.091 305.424C296.897 305.854 295.862 306.637 295.124 307.67V307.67Z" fill="black"/>
<path d="M384.746 296.529C384.127 297.468 383.752 298.546 383.656 299.666C383.559 300.787 383.744 301.913 384.192 302.944C384.591 303.807 385.178 304.569 385.911 305.175C386.643 305.78 387.502 306.214 388.424 306.444C389.658 306.882 391.005 306.882 392.239 306.443C393.473 306.005 394.518 305.155 395.199 304.036C396.181 302.586 396.571 300.815 396.29 299.086C395.994 297.909 395.382 296.836 394.52 295.982C393.659 295.128 392.58 294.526 391.4 294.241C390.19 293.908 388.907 293.948 387.719 294.357C386.532 294.765 385.495 295.522 384.746 296.529Z" fill="black"/>
<path d="M360.489 260.34C348.391 280.797 349.857 309.001 369.895 324.09C385.986 336.188 409.524 340.016 426.153 327.081C433.86 321.262 439.736 313.356 443.083 304.298C446.431 295.241 447.111 285.413 445.041 275.982C440.554 255.883 418.287 241.467 398.443 240.705C383.728 240.136 369.013 248.496 360.489 260.31C357.678 264.228 364.153 267.966 366.949 264.093C373.858 254.522 387.631 247.045 400.432 248.316C411.823 249.718 422.352 255.099 430.161 263.51C439.044 273.335 440.45 287.018 437.01 299.475C431.776 318.377 412.665 331.133 393.374 326.692C381.859 324.045 370.239 317.629 364.646 306.803C357.453 292.88 359.143 277.268 366.949 264.093C369.372 259.966 362.942 256.197 360.489 260.34Z" fill="black"/>
<path d="M331.252 306.713C340.515 307.939 349.929 306.229 358.169 301.823C362.431 299.595 358.663 293.134 354.386 295.363C347.295 299.053 339.219 300.409 331.312 299.236C326.556 298.608 326.601 306.085 331.312 306.713H331.252Z" fill="black"/>
<path d="M319.319 367.682C324.793 372.168 332.001 375.966 338.222 370.418C341.826 367.218 336.532 361.939 332.943 365.139C330.445 367.367 326.468 363.913 324.598 362.388C320.905 359.397 315.626 364.631 319.319 367.682Z" fill="black"/>
<path d="M543.813 573.303C539.955 612.464 535.514 651.564 530.489 690.605C521.516 690.216 511.497 692.325 508.79 701.671C504.753 715.534 527.603 717.298 536.082 715.384C537.182 715.133 538.226 714.682 539.163 714.053C540.575 713.62 541.827 712.778 542.761 711.633C543.695 710.489 544.27 709.093 544.411 707.623C550.254 663.518 555.363 619.333 559.74 575.068C560.786 564.809 544.83 563.03 543.813 573.303Z" fill="#2C2C67" stroke="#1C1835" stroke-width="3" stroke-miterlimit="10"/>
<path d="M615.398 583.128C615.772 572.885 599.861 571.045 599.487 581.364C598.055 619.698 599.079 658.084 602.553 696.287C595.509 696.938 588.821 699.683 583.351 704.168C579.657 707.159 579.089 714.083 583.59 716.85C587.978 719.638 592.939 721.398 598.103 721.999C603.266 722.6 608.499 722.026 613.409 720.319C614.816 719.836 616.007 718.872 616.774 717.597C617.947 716.784 618.87 715.662 619.443 714.355C620.016 713.048 620.216 711.608 620.019 710.195C615.378 668.009 613.834 625.54 615.398 583.128V583.128Z" fill="#2C2C67" stroke="#1C1835" stroke-width="3" stroke-miterlimit="10"/>
<path d="M477.118 409.21C468.743 417.509 462.492 428.007 456.182 437.907C447.493 451.56 439.194 465.468 430.939 479.39C424.763 489.783 418.811 500.326 412.246 510.525C409.764 514.353 406.848 517.808 405.367 522.219C402.451 530.908 404.874 540.748 414.34 543.753C427.799 548.015 440.181 533.016 431.911 520.963C430.71 519.174 429.133 517.669 427.29 516.552C430.685 511.108 433.9 505.575 437.175 500.102C448.735 480.661 460.16 461.056 472.497 442.064C475.278 437.787 478.12 433.525 481.096 429.383C482.352 427.648 483.623 425.943 484.954 424.269C485.447 423.67 485.956 423.087 486.449 422.489C486.704 422.175 486.988 421.891 487.242 421.592L487.406 421.397C494.076 414.145 484.326 402.062 477.118 409.21Z" fill="#779900" stroke="#1C1835" stroke-width="3" stroke-miterlimit="10"/>
<path d="M746.46 559.067C742.303 548.958 739.372 538.235 735.992 527.857C730.968 512.469 725.958 497.096 720.575 481.843C716.088 469.131 711.916 455.523 704.588 444.098C699.025 435.41 686.643 445.504 692.087 454.102C692.087 454.192 692.176 454.297 692.251 454.431C692.535 455 692.849 455.553 693.133 456.121C693.941 457.691 694.629 459.292 695.377 460.907C697.216 465.034 698.876 469.251 700.491 473.468C704.424 483.802 707.968 494.255 711.557 504.738C717.718 522.997 723.341 541.465 729.682 559.665C729.293 559.799 728.889 559.949 728.485 560.128C716.657 565.258 716.612 582.844 728.485 587.869C730.639 588.837 732.989 589.29 735.348 589.19C737.707 589.09 740.011 588.44 742.074 587.293C744.138 586.146 745.906 584.532 747.236 582.581C748.566 580.63 749.422 578.395 749.735 576.055C750.707 569.953 748.734 564.57 746.46 559.067Z" fill="#2C2C67" stroke="#1C1835" stroke-width="3" stroke-miterlimit="10"/>
<path d="M584.579 293.374C579.988 294.403 575.594 296.171 571.569 298.608L525.211 326.602C518.078 330.924 510.795 335.35 505.396 341.706C499.415 348.809 496.095 357.797 492.939 366.575L478.135 407.819C466.959 439.014 455.768 470.253 444.562 501.538C442.289 507.863 439.986 514.518 441.003 521.158C442.364 529.951 449.198 536.8 456.122 542.408C495.631 574.41 536.053 601.791 585.686 612.857C592.7 614.428 599.953 615.998 607.011 614.682C613.591 613.441 619.423 609.807 625.091 606.233C646.46 592.774 674.769 578.597 700.356 550.423C703.945 546.475 709.642 544.441 711.856 539.611C713.545 535.917 713.545 531.715 713.501 527.648C713.191 495.167 712.882 462.681 712.573 430.191C712.499 422.1 712.394 413.831 709.762 406.174C706.876 397.77 701.148 390.681 696.004 383.443C684.687 367.523 675.699 350.07 669.311 331.612C666.978 324.852 664.824 317.689 659.785 312.65C655.672 308.522 650.094 306.294 644.621 304.305C630.837 299.295 616.627 295.546 602.166 293.104C596.341 292.029 590.358 292.146 584.579 293.448V293.374Z" fill="#779900"/>
<path d="M583.981 291.205C567.995 295.273 553.13 307.132 539.222 315.536L524.134 324.658C510.57 332.898 500.61 341.482 494.434 356.421C486.823 374.815 480.766 394.001 474.052 412.739L453.774 469.236L444.382 495.421C441.391 503.571 437.518 512.29 438.759 521.158C440.778 535.469 454.985 544.516 465.423 552.666C491.025 572.66 518.167 590.979 548.33 603.376C563.463 609.612 579.988 615.34 596.333 617.089C612.155 618.824 624.013 609.388 636.874 601.657C649.931 594.092 662.561 585.815 674.709 576.862C680.898 572.14 686.828 567.088 692.474 561.729C695.749 558.603 698.68 555.134 701.94 552.008C704.617 549.466 707.847 547.597 710.494 545.04C714.741 540.957 715.564 535.798 715.758 530.085C716.102 519.468 715.564 508.73 715.459 498.098L714.816 437.578C714.726 427.828 715.22 417.659 712.648 408.148C710.33 399.579 705.17 392.371 700.011 385.268C687.699 368.339 677.935 349.697 671.03 329.937C668.413 322.46 665.781 314.698 659.455 309.464C653.129 304.23 643.873 301.583 635.977 298.996C620.051 293.882 600.73 287.422 583.921 291.22C581.095 291.863 582.291 296.185 585.102 295.542C600.146 292.162 617.897 298.084 632.283 302.541C639.76 304.844 648.239 307.027 654.715 311.513C662.984 317.166 665.183 327.155 668.398 336.008C673.82 350.766 680.893 364.862 689.483 378.03C698.994 392.565 709.148 403.856 710.061 422.115C711.795 457.108 711.302 492.655 711.167 527.693C711.167 533.375 711.018 538.4 706.516 542.647C704.557 544.456 702.105 545.742 700.116 547.552C694.03 553.055 688.721 559.351 682.5 564.779C671.082 574.46 658.883 583.178 646.026 590.845C635.035 597.619 623.311 606.771 611.168 611.168C596.333 616.551 576.429 608.805 562.147 603.855C533.57 593.97 507.43 578.283 483.099 560.487C476.489 555.657 469.999 550.662 463.658 545.533C457.512 540.658 450.768 535.813 446.536 529.083C441.481 521.083 443.051 512.918 445.893 504.469C448.973 495.346 452.398 486.329 455.643 477.282L491.219 378.12C494.449 369.147 497.201 359.636 501.777 351.202C506.772 341.945 514.383 335.919 523.191 330.475C528.485 327.2 533.839 324.015 539.163 320.8L563.239 306.249C570.372 301.927 576.952 297.591 585.177 295.497C587.959 294.824 586.777 290.487 583.981 291.205Z" fill="#1C1835"/>
<path d="M549.077 375.936C550.572 370.672 556.868 368.459 561.848 369.82C564.346 370.549 566.535 372.081 568.076 374.178C569.617 376.276 570.424 378.822 570.372 381.425C570.507 386.225 577.984 386.255 577.849 381.425C577.61 372.168 571.583 363.913 562.177 362.268C553.563 360.773 544.411 365.364 541.869 373.947C540.493 378.568 547.701 380.542 549.077 375.936Z" fill="black"/>
<path d="M609.762 387.317C611.258 382.053 617.553 379.839 622.548 381.2C625.039 381.948 627.218 383.486 628.756 385.583C630.294 387.679 631.107 390.22 631.072 392.82C631.192 397.62 638.669 397.635 638.549 392.82C638.295 383.548 632.268 375.293 622.862 373.648C614.249 372.153 605.096 376.744 602.554 385.328C601.178 389.949 608.401 391.922 609.762 387.317Z" fill="black"/>
<path d="M593.55 425.106C590.111 424.313 587.194 427.155 586.282 430.295C585.827 431.906 585.702 433.592 585.916 435.252C586.129 436.912 586.676 438.512 587.523 439.956C589.348 443.036 592.892 445.279 596.496 444.292C599.367 443.515 600.743 441.167 601.551 438.505C602.563 435.573 602.424 432.366 601.162 429.533C600.244 427.963 598.882 426.7 597.249 425.902C595.615 425.104 593.782 424.806 591.98 425.046C585.071 426.542 586.88 441.077 593.909 440.883C594.56 440.88 595.199 440.708 595.763 440.383C596.327 440.058 596.796 439.591 597.124 439.028C598.105 436.858 598.285 434.41 597.633 432.12C596.586 427.439 589.378 429.413 590.425 434.109C590.478 434.499 590.563 434.884 590.679 435.26L593.909 433.406H593.386L596.032 434.497C595.571 434.06 595.284 433.47 595.225 432.837C595.195 432.469 595.195 432.099 595.225 431.731C595.509 430.953 595.479 430.834 595.225 431.372L593.58 432.329L594.044 432.239H592.055C593.445 432.464 594.716 432.419 594.806 433.974C594.832 434.66 594.751 435.346 594.567 436.008C594.477 436.352 594.373 436.681 594.253 437.01C594.133 437.339 594.044 437.578 594.253 437.234C594.253 437.369 594.118 437.488 594.058 437.623C594.627 437.503 594.821 437.279 594.672 436.95C594.522 436.621 593.715 435.589 593.58 435.155C593.334 434.455 593.272 433.703 593.4 432.972C593.565 432.15 593.939 432.045 593.296 432.254H591.307H591.636C596.317 433.331 598.32 426.123 593.625 425.046L593.55 425.106Z" fill="black"/>
<path d="M893.938 405.576C891.485 399.235 884.606 400.087 875.648 399.803C864.732 399.444 849.538 399.28 844.857 381.125C839.937 362.044 838.98 344.771 835.376 325.406C831.593 305.143 829.395 282.681 817.641 265.215C803.539 244.114 777.264 235.052 752.679 235.067C723.488 235.067 701.191 249.019 690.753 276.58C682.394 298.607 681.93 323.088 684.592 346.207C690.036 393.313 713.499 450.977 764.568 462.522C827.062 476.653 860.784 450.558 881.301 428.127C890.019 418.631 896.106 411.243 893.938 405.576Z" fill="#4F6600" stroke="#1D1935" stroke-width="3" stroke-miterlimit="10"/>
<path d="M761.339 350.649C763.986 350.56 766.563 349.782 768.816 348.39C769.684 347.807 773.078 345.22 771.448 345.026C771.194 345.026 768.981 346.79 768.457 346.97C766.829 347.553 765.1 347.808 763.373 347.718C761.309 347.718 755.985 347.374 754.565 345.684L755.357 348.675L755.612 348.002L753.473 350.14C755.671 349.467 758.976 350.604 761.264 350.649C765.227 350.723 765.227 344.577 761.264 344.502C757.032 344.428 751.394 342.02 749.42 347.045C749.282 347.569 749.282 348.121 749.421 348.645C749.56 349.169 749.833 349.649 750.213 350.035C752.995 353.31 760.367 353.983 764.375 353.849C768.861 353.714 774.409 352.039 776.966 347.867C779.523 343.695 776.189 339.866 771.867 339.837C767.545 339.807 765.526 344.143 761.264 344.472C757.421 344.801 757.391 350.963 761.339 350.649Z" fill="black"/>
<path d="M710.599 314.04H727.303C733.075 314.04 733.09 305.068 727.303 305.068H710.599C704.826 305.068 704.826 314.04 710.599 314.04Z" fill="black"/>
<path d="M753.474 314.773H773.138C778.911 314.773 778.911 305.801 773.138 305.801H753.474C747.701 305.801 747.686 314.773 753.474 314.773Z" fill="black"/>
<path d="M557.975 596.213C553.22 577.147 547.358 536.979 523.132 523.206C486.748 502.465 432.449 487.51 392.641 470.956C349.871 453.19 315.79 436.95 285.852 435.26C282.502 435.066 238.536 431.581 226.663 457.004C225.242 459.994 226.513 464.242 226.738 469.864C227.052 477.506 226.738 487.181 226.932 494.539C230.042 598.711 233.482 773.885 233.422 774.618C230.91 810.269 264.019 820.976 315.207 845.591C413.592 892.952 479.062 905.962 501.628 911.585C507.026 912.931 528.695 919.062 533.944 921.32C547.403 926.973 583.024 921.32 585.402 920.273C632.568 899.068 690.889 874.827 732.567 855.027C775.695 834.585 822.083 818.359 861.608 793.939C870.491 788.451 881.258 785.206 886.791 777.489C891.965 770.326 890.126 769.04 891.277 760.92C896.003 727.034 893.685 688.631 892.249 653.025C890.948 620.843 890.32 589.289 889.946 556.3C889.737 536.366 887.763 452.368 886.581 432.179C886.028 422.878 886.462 419.767 876.996 416.148C868.561 412.918 845.442 417.749 836.29 419.708C795.315 428.441 699.294 488.497 665.811 504.334C603.137 533.988 590.666 541.122 570.986 560.278C555.433 575.487 557.975 596.213 557.975 596.213Z" fill="#C6FF00"/>
<path d="M228.607 458.14C242.216 437.279 272.633 435.469 294.885 438.7C321.802 442.632 347.524 454.102 372.378 464.69C395.781 474.65 419.11 484.609 443.216 492.849C467.592 501.179 492.76 508.656 515.296 521.457C528.007 528.665 538.386 537.652 543.56 551.679C548.614 565.377 551.037 580.362 554.372 594.538C555.045 597.335 559.366 596.153 558.694 593.342C552.966 569.295 550.543 541.765 529.727 525.569C508.911 509.374 481.784 501.164 457.184 492.849C428.666 483.204 401.03 472.033 373.335 460.264C347.509 449.287 320.815 437.384 292.716 433.914C269.163 430.998 238.881 434.124 224.734 455.837C223.149 458.26 227.037 460.518 228.607 458.11V458.14Z" fill="#1C1835"/>
<path d="M225.078 458.589C255.256 483.084 294.331 492.55 329.339 507.788C349.513 516.567 368.415 527.887 387.796 538.235C406.334 548.249 425.751 556.544 445.803 563.015C466.395 569.58 487.406 574.709 508.118 580.96C517.091 583.637 526.063 586.508 534.796 589.798C540.09 591.787 545.265 593.91 550.454 596.258C555.075 598.367 556.794 600.37 561.505 598.651C604.349 583.009 645.757 561.519 685.895 540.03C717.06 523.281 746.52 503.661 777.625 487.002C804.138 472.825 832.193 462.761 860.008 451.59L875.785 445.249C878.566 444.143 882.843 443.29 885.251 441.451C888.69 438.819 889.079 432.164 888.615 427.992C888.251 424.929 887.052 422.025 885.147 419.598C883.243 417.172 880.707 415.316 877.818 414.234C870.341 411.139 861.728 412.036 854.011 413.367C842.822 415.418 831.819 418.379 821.112 422.22C802.26 429.012 783.986 437.314 766.469 447.044C721.172 471.494 677.012 497.395 630.384 519.228C610.6 528.47 590.008 537.174 574.754 553.414C564.81 564.061 551.142 581.184 555.852 596.871C556.69 599.623 561.026 598.456 560.189 595.675C555.553 580.257 571.928 561.998 582.097 552.397C596.348 538.938 615.116 531.297 632.643 523.102C671.524 504.932 709.164 484.654 746.43 463.404C781.064 443.664 819.048 421.771 859.395 417.046C869.279 415.894 883.965 416.881 884.353 429.921C884.563 436.546 884.981 436.815 879.867 438.894L851.603 450.125C825.493 460.593 799.398 470.178 774.544 483.532C746.744 498.487 720.35 515.879 692.714 531.117C654.88 552.106 615.942 571.04 576.07 587.839C571.18 589.887 565.602 593.222 560.353 594.224C556.136 595.032 551.979 591.876 548.211 590.261C539.522 586.523 530.624 583.278 521.622 580.347C502.734 574.185 483.443 569.325 464.347 563.897C442.394 557.586 420.979 550.154 400.626 539.835C380.648 529.756 361.521 518.032 341.333 508.357C304.111 490.516 260.908 481.888 228.293 455.418C226.08 453.609 222.88 456.764 225.123 458.589H225.078Z" fill="#1C1835"/>
<path d="M520.963 584.115C523.087 599.473 522.683 615.429 522.982 630.892C523.52 657.915 523.67 684.952 523.76 711.974C523.949 767.874 523.815 823.768 523.356 879.657C523.266 892.129 523.172 904.591 523.072 917.043L525.913 914.874C444.951 899.098 367.667 869.563 294.121 832.745C278.285 824.835 258.829 817.492 245.894 805.05C237.983 797.408 235.949 788.122 235.77 777.504C235.56 765.795 235.635 754.086 235.486 742.377C234.902 697.783 233.497 653.204 232.151 608.625C230.655 558.08 229.16 507.534 228.98 456.974C228.98 456.379 228.744 455.808 228.323 455.388C227.903 454.967 227.332 454.73 226.737 454.73C226.142 454.73 225.572 454.967 225.151 455.388C224.73 455.808 224.494 456.379 224.494 456.974C224.838 550.169 229.549 643.289 230.91 736.47C231.089 748.313 231.204 760.152 231.253 771.986C231.253 780.839 231.074 789.931 235.127 798.096C242.604 813.051 260.355 820.528 274.397 827.736C310.334 846.51 347.244 863.362 384.969 878.221C430.256 896.037 477.052 909.75 524.792 919.196C525.124 919.282 525.471 919.292 525.807 919.224C526.143 919.157 526.46 919.014 526.733 918.807C527.007 918.6 527.23 918.334 527.385 918.028C527.541 917.723 527.626 917.386 527.633 917.043C527.952 882.458 528.161 847.874 528.261 813.29C528.485 754.684 528.665 696.063 527.663 637.472C527.364 619.407 527.842 600.834 525.375 582.889C524.971 580.048 520.649 581.259 521.038 584.085L520.963 584.115Z" fill="#1C1835"/>
<path d="M523.729 918.658C531.864 924.939 544.44 925.821 554.295 926.24C569.16 926.853 584.667 924.744 597.663 917.267C598.176 916.966 598.549 916.473 598.699 915.896C598.849 915.32 598.764 914.708 598.463 914.194C598.161 913.68 597.668 913.308 597.092 913.158C596.516 913.008 595.903 913.093 595.39 913.394C583.561 920.168 569.653 922.142 556.18 921.828C547.312 921.619 534.271 921.245 526.839 915.503C524.581 913.753 521.381 916.908 523.669 918.673L523.729 918.658Z" fill="#1C1835"/>
<path d="M883.994 426.841C886.028 487.495 886.985 548.195 888.615 608.865C889.468 639.805 890.873 670.731 891.157 701.686C891.292 716.79 891.157 731.924 890.47 747.027C890.17 753.981 890.365 761.488 888.54 768.248C886.252 776.697 880.346 781.856 873.093 786.193C856.478 796.048 838.354 803.899 820.947 812.213C802.095 821.186 783.152 830.019 764.121 838.712C727.572 855.441 690.879 871.851 654.042 887.942C634.522 896.496 614.976 904.97 595.406 913.364L598.786 915.293C596.941 841.07 595.391 766.847 594.135 692.624C593.487 656.594 592.879 620.564 592.311 584.534C592.311 581.648 587.824 581.648 587.824 584.534C589.32 678.552 590.95 772.554 593.118 866.557C593.507 882.798 593.901 899.043 594.299 915.293C594.311 915.684 594.422 916.066 594.623 916.401C594.823 916.737 595.107 917.015 595.446 917.21C595.785 917.405 596.168 917.51 596.559 917.515C596.95 917.52 597.336 917.424 597.679 917.237C651.096 894.377 704.244 870.889 757.122 846.773C794.373 829.785 831.699 812.752 868.083 793.954C877.639 789.019 887.688 783.366 891.726 772.779C896.406 760.546 895.105 745.233 895.404 732.402C896.152 700.759 894.941 669.115 893.909 637.502C891.621 567.292 890.784 497.036 888.436 426.841C888.346 423.955 883.86 423.94 883.949 426.841H883.994Z" fill="#1C1835"/>
<path d="M261.58 439.044C294.375 451.74 326.692 465.827 359.202 479.271C407.445 499.235 455.672 519.243 504.035 538.953C517.808 544.576 531.536 550.633 545.593 555.523C548.329 556.465 549.496 552.128 546.789 551.186C512.753 539.372 479.614 524.178 446.326 510.45C398.293 490.651 350.279 470.801 302.286 450.902C289.141 445.474 276.041 439.851 262.777 434.707C260.085 433.675 258.919 438.012 261.58 439.044V439.044Z" fill="#1C1835"/>
<path d="M239.717 445.728C279.196 462.676 318.701 479.535 358.23 496.304C407.998 517.464 457.766 538.624 507.698 559.381C522.174 565.362 536.605 571.793 551.394 577.027C554.116 577.999 555.283 573.662 552.576 572.705C517.717 560.338 483.786 544.621 449.735 530.25C398.571 508.666 347.473 486.942 296.439 465.079C278.284 457.333 260.134 449.576 241.99 441.81C239.358 440.688 237.07 444.547 239.717 445.683V445.728Z" fill="#1C1835"/>
<path d="M561.879 579.584C576.265 566.529 596.663 560.607 614.473 553.818C635.424 545.584 655.75 535.843 675.293 524.672C719.572 499.982 763.658 475.323 809.074 452.757C833.255 440.793 858.049 430.594 884.623 425.196C887.449 424.628 886.253 420.306 883.427 420.874C835.184 430.654 791.413 456.002 748.389 478.867C703.975 502.45 661.385 531.087 614.264 549.152C595.407 556.375 573.962 562.611 558.709 576.459C556.555 578.403 559.741 581.573 561.879 579.629V579.584Z" fill="#1C1835"/>
</svg>
