<?xml version="1.0" encoding="utf-8"?>
<!-- Generator: Adobe Illustrator 25.4.1, SVG Export Plug-In . SVG Version: 6.00 Build 0)  -->
<svg version="1.1" id="Layer_1" xmlns="http://www.w3.org/2000/svg" xmlns:xlink="http://www.w3.org/1999/xlink" x="0px" y="0px"
	 viewBox="0 0 1080 1080" style="enable-background:new 0 0 1080 1080;" xml:space="preserve">
<style type="text/css">
	.st0{fill:#FFFFFF;}
	.st1{fill:#8EDADD;}
	.st2{fill:#1C1835;}
	.st3{fill:#2C2C67;stroke:#1C1835;stroke-width:3;stroke-miterlimit:10;}
	.st4{fill:#096E8D;stroke:#1C1835;stroke-width:3;stroke-miterlimit:10;}
	.st5{fill:#096E8D;}
	.st6{fill:#06485E;stroke:#1D1935;stroke-width:3;stroke-miterlimit:10;}
	.st7{fill:#03BBDB;}
</style>
<path class="st0" d="M599.8,950.7L599,951C596.6,951.9,593.6,954,599.8,950.7z"/>
<path class="st0" d="M922.9,522.1c-0.7-29.7-2-59.4-2.8-89.1c4.6-7.3,7.8-15.2,7.9-24.5c0.3-18.2-12-34-29-39.6
	c-7.5-2.5-15.4-2.5-23.2-2.7l-0.7-3.4c-1.9-9.5-3.2-19.2-4.5-28.8c-2.5-17.8-5.1-36.1-9.9-53.4c-5.5-19.6-15.3-38.8-31-52.1
	c-15.6-13.3-34.7-21.9-54.9-25c-40.4-6-79.5,4.9-103.9,39.2c-6.4,9.2-11.4,19.3-14.7,30c-4.3-1.6-8.7-3-13-4.4
	c-11.3-3.5-22.8-6.2-34.5-8.1c-14.6-2.5-29.6-1-43.5,4.4c-3.9-7.9-9-15.1-15.1-21.4c-8.6-8.8-18.8-15.8-30.2-20.6
	c0.1-4.5-0.1-9.1-0.7-13.6c-2.7-20.2-14.2-36.8-31-48.1c-24.2-16.3-52.7-14.6-79-6c-19.2-12.4-41.7-20.9-64.3-18.9
	c-14.3,1.3-28.3,3.8-41.2,10.3c-6.4,3.3-12.1,7.6-17,12.9c-16.8,1.5-32.7,7.6-46.1,17.8c-10.6,8.3-19,19-24.4,31.3
	c-15.4,1.1-30.6,5.1-44.6,11.6c-19.7,9-35.4,26.8-45.4,45.6c-13.6,25.8-17.9,55-4.6,81.9c5.4,10.8,13.8,19.6,23.3,26.9
	c3.2,2.5,6.4,4.9,9.8,7c-0.1,4.5,0.1,9,0.7,13.5c1.8,14.8,5.4,29.3,13.6,42.1c6.1,9.7,14.1,18.1,23.5,24.8
	c-0.1,8.2,0.8,16.6,0.8,24.8c0,23.9,0.9,48,1.5,72c0.7,24.3,1.5,48.5,2.1,72.8c0.1,6.2,0.3,12.5,0.4,18.7l0.1,4.3
	c1-4.2,1.2-4.4,0.5-0.5c-0.4,4.8-1.3,9.6-1.9,14.4c-0.3,2-0.5,4-0.7,6c-17.6,10.9-29.9,29.8-23.9,51.5c4.1,14.8,15.2,24.9,28.3,32
	c0.1,5.1,0.2,10.1,0.2,15.2c0,20,3.7,38,16.9,53.6c10,11.8,24.8,20.5,38.4,27.7c14.2,7.5,28.8,13.9,43.2,20.8
	c62.5,29.9,127.7,54.8,195.4,70.1c18.4,4.2,35.4,11.5,54.3,12.6c12.3,0.7,24.6-0.1,36.7-2.3c6.1-1,12.1-2.9,17.6-5.7l-2.6,1.4
	c4.8-1.8,9.4-3.9,13.8-6.4c40.1-17.2,79.9-34.7,119.6-52.5c33.3-15,66.9-29.5,100-44.9c16.4-7.7,32.4-16.5,48.6-24.8
	c18.4-9.4,36.1-22.8,41.2-44c2.7-11.1,2.8-22.5,3.6-33.8c0.7-9.6,1-19.2,1.1-28.8c0.1-20.9-1-41.7-1.8-62.5
	C924.3,609.4,923.9,565.7,922.9,522.1z M156.4,363.2c1.2-5.1,1.4-5.7,0.6-1.9c-0.1,0.9-0.2,1.8-0.4,2.7L156.4,363.2z M870.3,365.8
	C875.5,366,873,366.1,870.3,365.8L870.3,365.8z M868.4,365.7c-0.5,0-1-0.1-1.5-0.1L868.4,365.7z M167.5,388.1
	C169.1,389.1,168.9,389.2,167.5,388.1L167.5,388.1z"/>
<path class="st1" d="M291.9,430.9c-12.1,3.4-19.4,15.6-24.3,27.2c-7.4,17.4-36.7,182.7-41.4,239.6c-6.7,0.9-13,3.7-18.2,8.1
	c-19,17.4,25.9,30.9,37.9,31.7c5.5,0.4,11.5-0.1,15.9-3.5c6.4-4.9,7.3-15,3.3-22.1c-5.6-9.9-18.1-14.8-30.6-14.9
	c13.7-50.1,43.1-188.1,56.6-233.2C294.3,453.1,297.4,440.8,291.9,430.9z"/>
<path class="st2" d="M291.3,428.7c-15.9,5.2-24.4,21.8-28.4,37.1c-3.8,14.4-6.6,29.1-9.4,43.8c-8.5,43.4-15.9,86.9-22.3,130.6
	c-2.8,19.1-5.6,38.3-7.2,57.5l1.6-2.2c-9.9,1.9-30.3,10.6-23,24.3c5.7,10.6,22,15.3,32.7,18c13.1,3.3,31.9,3.4,34.2-13.7
	c2.6-19.7-19.1-28.7-35.1-29.2l2.2,2.8c19.1-70.1,32.6-141.6,50.8-211.9c4.5-17.5,15-38.7,6.4-56c-1.3-2.6-5.1-0.3-3.9,2.3
	c5.6,11.5,1.1,23.9-2.2,35.4c-1.8,6.2-3.4,12.4-5,18.6c-4.2,16.2-8.1,32.5-12,48.9c-9,37.7-17.4,75.4-26.4,113
	c-3.9,16.2-7.7,32.5-12.1,48.6c-0.1,0.3-0.1,0.7,0,1c0.1,0.3,0.2,0.7,0.4,0.9c0.2,0.3,0.5,0.5,0.8,0.7c0.3,0.2,0.6,0.2,1,0.2
	c13.9,0.4,36.4,9.3,29.8,27.4c-4.6,12.6-21.8,8.6-31.7,5.6c-8.1-2.4-17.7-5.6-23.7-11.8c-10.7-11,9.5-19.1,17.9-20.7
	c0.5-0.1,0.9-0.4,1.2-0.8c0.3-0.4,0.5-0.9,0.5-1.3c3.1-37.3,9.6-74.5,15.7-111.3c6.2-36.9,12.4-73.7,20.8-110.1
	c3.8-16.6,9.4-37.4,27.5-43.3C295.2,432.2,294,427.8,291.3,428.7z"/>
<path class="st1" d="M496.6,701.7c-9.9-8.7-26.3-7.9-39.2-1.8c-3.9-20.4-9.4-40.5-14.8-60.6c-14.2-52.2-33.1-151.4-47.3-203.6
	c-3-10.9-6.8-23-16.7-28.5c-8.5,9.3-8.3,23.5-6.3,36c3.4,21.4,15,89.1,21.8,109.7c11.9,35.8,23.7,71.6,35.6,107.4
	c5.1,15.4,10.5,31.3,19.7,44.5c-3.5,2.6-6.5,6-8.6,9.8c-12.3,22.7,34.7,20.7,46.2,17.4c5.3-1.5,10.8-3.9,13.8-8.5
	C505.2,716.8,502.7,707.1,496.6,701.7z"/>
<path class="st2" d="M498.2,700.1c-12.2-9.8-28.4-8.2-41.9-2.1l3.3,1.3c-8.2-41.6-20.8-82.4-30-123.9c-8.9-39.7-17-79.6-26.7-119.2
	c-4.2-17.2-6.8-40.9-23.2-51c-0.4-0.2-0.9-0.3-1.4-0.3s-0.9,0.3-1.3,0.6c-11.3,13.5-8,31.3-5.4,47.3c2.8,16.7,5.7,33.3,8.8,49.9
	c3,15.8,5.9,31.8,10.4,47.2c7.3,24.9,16.3,49.5,24.5,74.2c9,27.3,15.9,57.7,32.1,81.8l0.4-2.7c-6.6,5.4-15.8,16.3-9,24.9
	c5.6,7.1,17.5,7.8,25.7,8.1c9.4,0.3,19.8-0.1,28.5-3.9C506.9,726.3,508.8,710.5,498.2,700.1c-2-2-5.2,1.1-3.2,3.2
	c6,5.8,8.4,15.6,1.4,21.8c-3.4,3-8.1,4.5-12.4,5.4c-6.4,1.2-13,1.6-19.5,1.3c-6.4-0.2-14.3-0.6-19.8-4.3c-9-6,0.5-16.3,6.2-20.9
	c0.3-0.4,0.6-0.8,0.6-1.3c0.1-0.5,0-1-0.3-1.4c-13.9-20.7-20.1-46-27.9-69.4L398,558.1c-9.8-29.6-14.4-61-19.7-91.7
	c-3-17.7-10.9-42.3,1.8-57.5l-2.7,0.3c15.2,9.4,17.7,34.1,21.6,50.2c4.5,18.5,8.6,37,12.7,55.5c8.2,37.1,15.9,74.3,25.1,111.1
	c6.2,24.8,13.5,49.3,18.5,74.5c0.1,0.3,0.3,0.6,0.5,0.9c0.2,0.3,0.5,0.5,0.8,0.6c0.3,0.1,0.7,0.2,1,0.2c0.3,0,0.7-0.1,1-0.3
	c11.5-5.2,26-7,36.5,1.4C497.3,705.1,500.5,701.9,498.2,700.1z"/>
<path class="st1" d="M302.8,192.3c-13.3-2.6-36.4,4.4-45.7,14.3c-9.3,9.9-17.2,26.1-13.7,39.3c-17.9-7.2-34.9-4.8-52.8,2.2
	c-18,7-29.6,21.9-37.8,39.3c-5.9,12.4-8.2,27.1-3.4,40c5.7,15.2,20.3,25.2,35.2,31.6c2.2,0.9,4.6,2,5.4,4.3c0.4,1.5,0.3,3.2-0.1,4.7
	c-3.8,18.4-1.3,38.6,9.4,54c10.7,15.4,30.4,25.1,48.8,21.3c3.5-0.7,7.1-1.9,10.7-1.4c4.3,0.6,7.9,3.6,11.3,6.2
	c29.2,21.9,71.4,24.7,103.2,6.8c12.4-6.9,23.7-17.6,26.5-31.6c17.2,10.9,38,14.9,58,11.2c20.1-3.8,38-15,50-31.5
	c5.7-7.7,10-16.8,10-26.3c0-9.5-5.3-19.4-14.3-22.9c25.3-8.1,41.9-37.4,35.7-63.2c-6.1-25.8-33.9-44.7-60.1-40.6
	c6.1-14.6,10.7-31.5,4.1-45.9c-6.2-13.5-21.4-21.3-36.3-22.1c-14.9-0.8-29.5,4.3-42.9,10.8c-15.3-13.5-40.2-25.8-60.4-23.1
	C323.5,172.3,314,175.3,302.8,192.3z"/>
<path class="st2" d="M303.4,190.1c-31.1-5.1-69.7,21.9-62.2,56.3l2.8-2.8c-33.2-12.5-70.4,3.2-88,32.9c-8.6,14.6-14.7,32.2-9.6,49
	c4.6,15.1,17.4,25.7,31,32.5c4.6,2.3,9.7,2.8,10.3,9.2c0.4,3.8-1.5,9-1.6,12.8c-0.5,9.2,0.7,18.4,3.5,27.2
	c2.4,7.5,6.3,14.4,11.5,20.3c5.2,5.9,11.5,10.7,18.6,14.1c6.2,2.9,13,4.4,19.9,4.6c3.1,0,6.1-0.3,9.2-0.9c7.8-1.3,12-1.4,18.5,3.2
	c14,10,29,16.8,46.1,19.2c32,4.5,80.2-7.6,88.7-43.9l-3.3,1.3c29.2,17.9,66.5,16.8,94-3.8c12-9,23.4-22.1,26.6-37.1
	c2.7-12.8-2-26.9-14.5-32.5l-0.5,4.1c26.1-9,43.4-37.6,37.5-65c-6-27.7-34.9-46.9-62.6-43.2l2.2,2.8c8.8-21.4,12.7-47.7-9.1-62.6
	c-21.3-14.6-47.7-7.4-69.2,2.8l2.7,0.4c-16.3-14-38.9-26-61-23.9c-8.5,0.8-17.6,2.2-25.3,6c-8,3.9-13.7,10.6-18.6,17.8
	c-1.6,2.4,2.3,4.7,3.9,2.3c23.4-34.5,70.6-22.6,97.8,0.9c0.4,0.3,0.8,0.5,1.3,0.6s1,0,1.4-0.3c19.4-9.3,43.1-16.2,62.8-4
	c21.7,13.4,17,38.7,8.8,58.7c-0.1,0.3-0.1,0.7,0,1c0.1,0.3,0.2,0.7,0.4,0.9c0.2,0.3,0.5,0.5,0.8,0.7c0.3,0.2,0.6,0.2,1,0.2
	c25.1-3.3,51.3,13,57.8,38c6.6,25.3-9.5,53-33.9,61.4c-1.6,0.6-2.4,3.2-0.5,4.1c15.3,6.8,15.3,25,8.6,38
	c-6.2,12.1-16.7,22.1-28.4,29c-25.4,15-56.8,13.9-81.8-1.4c-0.3-0.2-0.6-0.3-1-0.3c-0.3,0-0.7,0-1,0.2c-0.3,0.1-0.6,0.3-0.8,0.6
	c-0.2,0.3-0.4,0.6-0.5,0.9c-7.5,32.4-50.4,43.8-79.3,41.2c-15.5-1.4-30.5-6.6-43.5-15.2c-4.9-3.3-9.5-8-15.6-9
	c-7.2-1.2-14.6,2.5-22,2c-16.6-1-31.5-11.8-39.3-26.1c-4.2-7.9-6.7-16.7-7.4-25.7c-0.7-8.4,1.7-16.2,1.8-24.4c0-4.7-3-6.7-6.8-8.5
	c-7.3-3.5-14.4-6.9-20.6-12.1c-14.4-12-19.1-29.3-13.9-47.2c4.8-16.6,16.1-33.5,30.8-42.8c17.8-11.2,41-14.4,60.8-6.9
	c1.7,0.6,3.1-1.2,2.8-2.8c-3.3-15,6.1-33.3,18.6-41.6c10.5-6.9,25.4-11.2,38-9.2C305.1,194.9,306.3,190.6,303.4,190.1z"/>
<path d="M247.7,273.4c-12.1,20.5-10.6,48.6,9.4,63.7c16.1,12.1,39.6,15.9,56.2,3c7.7-5.8,13.6-13.7,16.9-22.8c3.3-9.1,4-18.9,2-28.3
	c-4.5-20.1-26.7-34.5-46.6-35.3C270.9,253.1,256.2,261.5,247.7,273.4c-2.8,3.9,3.7,7.6,6.5,3.7c6.9-9.6,20.7-17,33.5-15.8
	c11.4,1.4,21.9,6.8,29.7,15.2c8.9,9.8,10.3,23.5,6.8,36c-5.2,18.9-24.3,31.7-43.6,27.2c-11.5-2.7-23.1-9.1-28.7-19.9
	c-7.2-13.9-5.5-29.5,2.3-42.7C256.6,273,250.1,269.2,247.7,273.4z"/>
<path d="M295.1,307.7c-0.6,0.9-1,2-1.1,3.1c-0.1,1.1,0.1,2.2,0.5,3.3c0.4,0.9,1,1.6,1.7,2.2c0.7,0.6,1.6,1,2.5,1.3
	c1.2,0.4,2.6,0.4,3.8,0c1.2-0.4,2.3-1.3,3-2.4c1-1.5,1.4-3.3,1.1-5c-0.3-1.2-0.9-2.3-1.8-3.1c-0.9-0.9-1.9-1.5-3.1-1.7
	c-1.2-0.3-2.5-0.3-3.7,0.2C296.9,305.9,295.9,306.6,295.1,307.7L295.1,307.7z"/>
<path d="M384.7,296.5c-0.6,0.9-1,2-1.1,3.1c-0.1,1.1,0.1,2.2,0.5,3.3c0.4,0.9,1,1.6,1.7,2.2c0.7,0.6,1.6,1,2.5,1.3
	c1.2,0.4,2.6,0.4,3.8,0c1.2-0.4,2.3-1.3,3-2.4c1-1.5,1.4-3.2,1.1-5c-0.3-1.2-0.9-2.2-1.8-3.1c-0.9-0.9-1.9-1.5-3.1-1.7
	c-1.2-0.3-2.5-0.3-3.7,0.1C386.5,294.8,385.5,295.5,384.7,296.5z"/>
<path d="M360.5,260.3c-12.1,20.5-10.6,48.7,9.4,63.8c16.1,12.1,39.6,15.9,56.3,3c7.7-5.8,13.6-13.7,16.9-22.8c3.3-9.1,4-18.9,2-28.3
	c-4.5-20.1-26.8-34.5-46.6-35.3C383.7,240.1,369,248.5,360.5,260.3c-2.8,3.9,3.7,7.6,6.5,3.8c6.9-9.6,20.7-17,33.5-15.8
	c11.4,1.4,21.9,6.8,29.7,15.2c8.9,9.8,10.3,23.5,6.8,36c-5.2,18.9-24.3,31.7-43.6,27.2c-11.5-2.6-23.1-9.1-28.7-19.9
	c-7.2-13.9-5.5-29.5,2.3-42.7C369.4,260,362.9,256.2,360.5,260.3z"/>
<path d="M331.3,306.7c9.3,1.2,18.7-0.5,26.9-4.9c4.3-2.2,0.5-8.7-3.8-6.5c-7.1,3.7-15.2,5-23.1,3.9
	C326.6,298.6,326.6,306.1,331.3,306.7L331.3,306.7z"/>
<path d="M319.3,367.7c5.5,4.5,12.7,8.3,18.9,2.7c3.6-3.2-1.7-8.5-5.3-5.3c-2.5,2.2-6.5-1.2-8.3-2.8
	C320.9,359.4,315.6,364.6,319.3,367.7z"/>
<path class="st3" d="M543.8,573.3c-3.9,39.2-8.3,78.3-13.3,117.3c-9-0.4-19,1.7-21.7,11.1c-4,13.9,18.8,15.6,27.3,13.7
	c1.1-0.3,2.1-0.7,3.1-1.3c1.4-0.4,2.7-1.3,3.6-2.4c0.9-1.1,1.5-2.5,1.7-4c5.8-44.1,11-88.3,15.3-132.6
	C560.8,564.8,544.8,563,543.8,573.3z"/>
<path class="st3" d="M615.4,583.1c0.4-10.2-15.5-12.1-15.9-1.8c-1.4,38.3-0.4,76.7,3.1,114.9c-7,0.7-13.7,3.4-19.2,7.9
	c-3.7,3-4.3,9.9,0.2,12.7c4.4,2.8,9.3,4.5,14.5,5.1c5.2,0.6,10.4,0,15.3-1.7c1.4-0.5,2.6-1.4,3.4-2.7c1.2-0.8,2.1-1.9,2.7-3.2
	s0.8-2.7,0.6-4.2C615.4,668,613.8,625.5,615.4,583.1L615.4,583.1z"/>
<path class="st4" d="M477.1,409.2c-8.4,8.3-14.6,18.8-20.9,28.7c-8.7,13.7-17,27.6-25.2,41.5c-6.2,10.4-12.1,20.9-18.7,31.1
	c-2.5,3.8-5.4,7.3-6.9,11.7c-2.9,8.7-0.5,18.5,9,21.5c13.5,4.3,25.8-10.7,17.6-22.8c-1.2-1.8-2.8-3.3-4.6-4.4
	c3.4-5.4,6.6-11,9.9-16.5c11.6-19.4,23-39,35.3-58c2.8-4.3,5.6-8.5,8.6-12.7c1.3-1.7,2.5-3.4,3.9-5.1c0.5-0.6,1-1.2,1.5-1.8
	c0.3-0.3,0.5-0.6,0.8-0.9l0.2-0.2C494.1,414.1,484.3,402.1,477.1,409.2z"/>
<path class="st3" d="M746.5,559.1c-4.2-10.1-7.1-20.8-10.5-31.2c-5-15.4-10-30.8-15.4-46c-4.5-12.7-8.7-26.3-16-37.7
	c-5.6-8.7-17.9,1.4-12.5,10c0,0.1,0.1,0.2,0.2,0.3c0.3,0.6,0.6,1.1,0.9,1.7c0.8,1.6,1.5,3.2,2.2,4.8c1.8,4.1,3.5,8.3,5.1,12.6
	c3.9,10.3,7.5,20.8,11.1,31.3c6.2,18.3,11.8,36.7,18.1,54.9c-0.4,0.1-0.8,0.3-1.2,0.5c-11.8,5.1-11.9,22.7,0,27.7
	c2.2,1,4.5,1.4,6.9,1.3c2.4-0.1,4.7-0.8,6.7-1.9c2.1-1.1,3.8-2.8,5.2-4.7c1.3-2,2.2-4.2,2.5-6.5C750.7,570,748.7,564.6,746.5,559.1z
	"/>
<path class="st5" d="M584.6,293.4c-4.6,1-9,2.8-13,5.2l-46.4,28c-7.1,4.3-14.4,8.7-19.8,15.1c-6,7.1-9.3,16.1-12.5,24.9l-14.8,41.2
	c-11.2,31.2-22.4,62.4-33.6,93.7c-2.3,6.3-4.6,13-3.6,19.6c1.4,8.8,8.2,15.6,15.1,21.2c39.5,32,79.9,59.4,129.6,70.4
	c7,1.6,14.3,3.1,21.3,1.8c6.6-1.2,12.4-4.9,18.1-8.4c21.4-13.5,49.7-27.6,75.3-55.8c3.6-3.9,9.3-6,11.5-10.8c1.7-3.7,1.7-7.9,1.6-12
	c-0.3-32.5-0.6-65-0.9-97.5c-0.1-8.1-0.2-16.4-2.8-24c-2.9-8.4-8.6-15.5-13.8-22.7c-11.3-15.9-20.3-33.4-26.7-51.8
	c-2.3-6.8-4.5-13.9-9.5-19c-4.1-4.1-9.7-6.4-15.2-8.3c-13.8-5-28-8.8-42.5-11.2C596.3,292,590.4,292.1,584.6,293.4L584.6,293.4z"/>
<path class="st2" d="M584,291.2c-16,4.1-30.9,15.9-44.8,24.3l-15.1,9.1c-13.6,8.2-23.5,16.8-29.7,31.8
	c-7.6,18.4-13.7,37.6-20.4,56.3l-20.3,56.5l-9.4,26.2c-3,8.2-6.9,16.9-5.6,25.7c2,14.3,16.2,23.4,26.7,31.5
	c25.6,20,52.7,38.3,82.9,50.7c15.1,6.2,31.7,12,48,13.7c15.8,1.7,27.7-7.7,40.5-15.4c13.1-7.6,25.7-15.8,37.8-24.8
	c6.2-4.7,12.1-9.8,17.8-15.1c3.3-3.1,6.2-6.6,9.5-9.7c2.7-2.5,5.9-4.4,8.6-7c4.2-4.1,5.1-9.2,5.3-15c0.3-10.6-0.2-21.4-0.3-32
	l-0.6-60.5c-0.1-9.8,0.4-19.9-2.2-29.4c-2.3-8.6-7.5-15.8-12.6-22.9c-12.3-16.9-22.1-35.6-29-55.3c-2.6-7.5-5.2-15.2-11.6-20.5
	c-6.3-5.2-15.6-7.9-23.5-10.5C620.1,293.9,600.7,287.4,584,291.2c-2.9,0.7-1.7,5,1.1,4.3c15-3.4,32.8,2.5,47.2,7
	c7.5,2.3,16,4.5,22.4,9c8.3,5.7,10.5,15.6,13.7,24.5c5.4,14.8,12.5,28.9,21.1,42c9.5,14.5,19.7,25.8,20.6,44.1
	c1.7,35,1.2,70.5,1.1,105.6c0,5.7-0.1,10.7-4.7,15c-2,1.8-4.4,3.1-6.4,4.9c-6.1,5.5-11.4,11.8-17.6,17.2
	c-11.4,9.7-23.6,18.4-36.5,26.1c-11,6.8-22.7,15.9-34.9,20.3c-14.8,5.4-34.7-2.4-49-7.3c-28.6-9.9-54.7-25.6-79-43.4
	c-6.6-4.8-13.1-9.8-19.4-15c-6.1-4.9-12.9-9.7-17.1-16.5c-5.1-8-3.5-16.2-0.6-24.6c3.1-9.1,6.5-18.1,9.8-27.2l35.6-99.2
	c3.2-9,6-18.5,10.6-26.9c5-9.3,12.6-15.3,21.4-20.7c5.3-3.3,10.6-6.5,16-9.7l24.1-14.6c7.1-4.3,13.7-8.7,21.9-10.8
	C588,294.8,586.8,290.5,584,291.2z"/>
<path d="M549.1,375.9c1.5-5.3,7.8-7.5,12.8-6.1c2.5,0.7,4.7,2.3,6.2,4.4c1.5,2.1,2.3,4.6,2.3,7.2c0.1,4.8,7.6,4.8,7.5,0
	c-0.2-9.3-6.3-17.5-15.7-19.2c-8.6-1.5-17.8,3.1-20.3,11.7C540.5,378.6,547.7,380.5,549.1,375.9z"/>
<path d="M609.8,387.3c1.5-5.3,7.8-7.5,12.8-6.1c2.5,0.7,4.7,2.3,6.2,4.4c1.5,2.1,2.4,4.6,2.3,7.2c0.1,4.8,7.6,4.8,7.5,0
	c-0.3-9.3-6.3-17.5-15.7-19.2c-8.6-1.5-17.8,3.1-20.3,11.7C601.2,389.9,608.4,391.9,609.8,387.3z"/>
<path d="M593.5,425.1c-3.4-0.8-6.4,2-7.3,5.2c-0.5,1.6-0.6,3.3-0.4,5c0.2,1.7,0.8,3.3,1.6,4.7c1.8,3.1,5.4,5.3,9,4.3
	c2.9-0.8,4.2-3.1,5.1-5.8c1-2.9,0.9-6.1-0.4-9c-0.9-1.6-2.3-2.8-3.9-3.6c-1.6-0.8-3.5-1.1-5.3-0.9c-6.9,1.5-5.1,16,1.9,15.8
	c0.7,0,1.3-0.2,1.9-0.5c0.6-0.3,1-0.8,1.4-1.4c1-2.2,1.2-4.6,0.5-6.9c-1-4.7-8.3-2.7-7.2,2c0.1,0.4,0.1,0.8,0.3,1.2l3.2-1.9h-0.5
	l2.6,1.1c-0.5-0.4-0.7-1-0.8-1.7c0-0.4,0-0.7,0-1.1c0.3-0.8,0.3-0.9,0-0.4l-1.6,1l0.5-0.1h-2c1.4,0.2,2.7,0.2,2.8,1.7
	c0,0.7-0.1,1.4-0.2,2c-0.1,0.3-0.2,0.7-0.3,1c-0.1,0.3-0.2,0.6,0,0.2c0,0.1-0.1,0.3-0.2,0.4c0.6-0.1,0.8-0.3,0.6-0.7
	c-0.2-0.3-1-1.4-1.1-1.8c-0.2-0.7-0.3-1.5-0.2-2.2c0.2-0.8,0.5-0.9-0.1-0.7h-2h0.3C596.3,433.3,598.3,426.1,593.5,425.1L593.5,425.1
	z"/>
<path class="st6" d="M893.9,405.6c-2.5-6.3-9.3-5.5-18.3-5.8c-10.9-0.4-26.1-0.5-30.8-18.7c-4.9-19.1-5.9-36.4-9.5-55.7
	c-3.8-20.3-6-42.7-17.7-60.2c-14.1-21.1-40.4-30.2-65-30.1c-29.2,0-51.5,14-61.9,41.5c-8.4,22-8.8,46.5-6.2,69.6
	c5.4,47.1,28.9,104.8,80,116.3c62.5,14.1,96.2-12,116.7-34.4C890,418.6,896.1,411.2,893.9,405.6z"/>
<path d="M761.3,350.6c2.6-0.1,5.2-0.9,7.5-2.3c0.9-0.6,4.3-3.2,2.6-3.4c-0.3,0-2.5,1.8-3,1.9c-1.6,0.6-3.4,0.8-5.1,0.7
	c-2.1,0-7.4-0.3-8.8-2l0.8,3l0.3-0.7l-2.1,2.1C755.7,349.5,759,350.6,761.3,350.6c3.9,0.1,3.9-6.1-0.1-6.1
	c-4.2-0.1-9.9-2.5-11.8,2.5c-0.1,0.5-0.1,1.1,0,1.6c0.1,0.5,0.4,1,0.8,1.4c2.8,3.3,10.2,3.9,14.2,3.8c4.5-0.1,10-1.8,12.6-6
	s-0.8-8-5.1-8c-4.3,0-6.3,4.3-10.6,4.6C757.4,344.8,757.4,351,761.3,350.6z"/>
<path d="M710.6,314h16.7c5.8,0,5.8-9,0-9h-16.7C704.8,305.1,704.8,314,710.6,314z"/>
<path d="M753.5,314.8h19.7c5.8,0,5.8-9,0-9h-19.7C747.7,305.8,747.7,314.8,753.5,314.8z"/>
<path class="st7" d="M558,596.2c-4.8-19.1-10.6-59.2-34.8-73c-36.4-20.7-90.7-35.7-130.5-52.2c-42.8-17.8-76.9-34-106.8-35.7
	c-3.3-0.2-47.3-3.7-59.2,21.7c-1.4,3-0.1,7.2,0.1,12.9c0.3,7.6,0,17.3,0.2,24.7c3.1,104.2,6.5,279.3,6.5,280.1
	c-2.5,35.7,30.6,46.4,81.8,71c98.4,47.4,163.9,60.4,186.4,66c5.4,1.3,27.1,7.5,32.3,9.7c13.5,5.7,49.1,0,51.5-1
	c47.2-21.2,105.5-45.4,147.2-65.2c43.1-20.4,89.5-36.7,129-61.1c8.9-5.5,19.7-8.7,25.2-16.5c5.2-7.2,3.3-8.4,4.5-16.6
	c4.7-33.9,2.4-72.3,1-107.9c-1.3-32.2-1.9-63.7-2.3-96.7c-0.2-19.9-2.2-103.9-3.4-124.1c-0.6-9.3-0.1-12.4-9.6-16
	c-8.4-3.2-31.6,1.6-40.7,3.6c-41,8.7-137,68.8-170.5,84.6c-62.7,29.7-75.1,36.8-94.8,55.9C555.4,575.5,558,596.2,558,596.2z"/>
<path class="st2" d="M228.6,458.1c13.6-20.9,44-22.7,66.3-19.4c26.9,3.9,52.6,15.4,77.5,26c23.4,10,46.7,19.9,70.8,28.2
	c24.4,8.3,49.5,15.8,72.1,28.6c12.7,7.2,23.1,16.2,28.3,30.2c5.1,13.7,7.5,28.7,10.8,42.9c0.7,2.8,5,1.6,4.3-1.2
	c-5.7-24-8.2-51.6-29-67.8c-20.8-16.2-47.9-24.4-72.5-32.7c-28.5-9.6-56.2-20.8-83.8-32.6c-25.8-11-52.5-22.9-80.6-26.4
	c-23.6-2.9-53.8,0.2-68,21.9C223.1,458.3,227,460.5,228.6,458.1L228.6,458.1z"/>
<path class="st2" d="M225.1,458.6c30.2,24.5,69.3,34,104.3,49.2c20.2,8.8,39.1,20.1,58.5,30.4c18.5,10,38,18.3,58,24.8
	c20.6,6.6,41.6,11.7,62.3,17.9c9,2.7,17.9,5.5,26.7,8.8c5.3,2,10.5,4.1,15.7,6.5c4.6,2.1,6.3,4.1,11.1,2.4
	c42.8-15.6,84.3-37.1,124.4-58.6c31.2-16.7,60.6-36.4,91.7-53c26.5-14.2,54.6-24.2,82.4-35.4l15.8-6.3c2.8-1.1,7.1-2,9.5-3.8
	c3.4-2.6,3.8-9.3,3.4-13.5c-0.4-3.1-1.6-6-3.5-8.4c-1.9-2.4-4.4-4.3-7.3-5.4c-7.5-3.1-16.1-2.2-23.8-0.9c-11.2,2.1-22.2,5-32.9,8.9
	c-18.9,6.8-37.1,15.1-54.6,24.8c-45.3,24.4-89.5,50.4-136.1,72.2c-19.8,9.2-40.4,17.9-55.6,34.2c-9.9,10.6-23.6,27.8-18.9,43.5
	c0.8,2.8,5.2,1.6,4.3-1.2c-4.6-15.4,11.7-33.7,21.9-43.3c14.3-13.5,33-21.1,50.5-29.3c38.9-18.2,76.5-38.4,113.8-59.7
	c34.6-19.7,72.6-41.6,113-46.4c9.9-1.2,24.6-0.2,25,12.9c0.2,6.6,0.6,6.9-4.5,9l-28.3,11.2c-26.1,10.5-52.2,20.1-77.1,33.4
	c-27.8,15-54.2,32.3-81.8,47.6c-37.8,21-76.8,39.9-116.6,56.7c-4.9,2-10.5,5.4-15.7,6.4c-4.2,0.8-8.4-2.3-12.1-4
	c-8.7-3.7-17.6-7-26.6-9.9c-18.9-6.2-38.2-11-57.3-16.5c-22-6.3-43.4-13.7-63.7-24.1c-20-10.1-39.1-21.8-59.3-31.5
	c-37.2-17.8-80.4-26.5-113-52.9C226.1,453.6,222.9,456.8,225.1,458.6L225.1,458.6z"/>
<path class="st2" d="M521,584.1c2.1,15.4,1.7,31.3,2,46.8c0.5,27,0.7,54.1,0.8,81.1c0.2,55.9,0.1,111.8-0.4,167.7
	c-0.1,12.5-0.2,24.9-0.3,37.4l2.8-2.2c-81-15.8-158.2-45.3-231.8-82.1c-15.8-7.9-35.3-15.3-48.2-27.7c-7.9-7.6-9.9-16.9-10.1-27.5
	c-0.2-11.7-0.1-23.4-0.3-35.1c-0.6-44.6-2-89.2-3.3-133.8c-1.5-50.5-3-101.1-3.2-151.7c0-0.6-0.2-1.2-0.7-1.6
	c-0.4-0.4-1-0.7-1.6-0.7s-1.2,0.2-1.6,0.7c-0.4,0.4-0.7,1-0.7,1.6c0.3,93.2,5.1,186.3,6.4,279.5c0.2,11.8,0.3,23.7,0.3,35.5
	c0,8.9-0.2,17.9,3.9,26.1c7.5,15,25.2,22.4,39.3,29.6c35.9,18.8,72.8,35.6,110.6,50.5c45.3,17.8,92.1,31.5,139.8,41
	c0.3,0.1,0.7,0.1,1,0c0.3-0.1,0.7-0.2,0.9-0.4c0.3-0.2,0.5-0.5,0.7-0.8c0.2-0.3,0.2-0.6,0.2-1c0.3-34.6,0.5-69.2,0.6-103.8
	c0.2-58.6,0.4-117.2-0.6-175.8c-0.3-18.1,0.2-36.6-2.3-54.6C525,580,520.6,581.3,521,584.1L521,584.1z"/>
<path class="st2" d="M523.7,918.7c8.1,6.3,20.7,7.2,30.6,7.6c14.9,0.6,30.4-1.5,43.4-9c0.5-0.3,0.9-0.8,1-1.4
	c0.2-0.6,0.1-1.2-0.2-1.7c-0.3-0.5-0.8-0.9-1.4-1c-0.6-0.2-1.2-0.1-1.7,0.2c-11.8,6.8-25.7,8.7-39.2,8.4c-8.9-0.2-21.9-0.6-29.3-6.3
	C524.6,913.8,521.4,916.9,523.7,918.7L523.7,918.7z"/>
<path class="st2" d="M884,426.8c2,60.7,3,121.4,4.6,182c0.9,30.9,2.3,61.9,2.5,92.8c0.1,15.1,0,30.2-0.7,45.3
	c-0.3,7-0.1,14.5-1.9,21.2c-2.3,8.4-8.2,13.6-15.4,17.9c-16.6,9.9-34.7,17.7-52.1,26c-18.9,9-37.8,17.8-56.8,26.5
	c-36.5,16.7-73.2,33.1-110.1,49.2c-19.5,8.6-39.1,17-58.6,25.4l3.4,1.9c-1.8-74.2-3.4-148.4-4.7-222.7c-0.6-36-1.3-72.1-1.8-108.1
	c0-2.9-4.5-2.9-4.5,0c1.5,94,3.1,188,5.3,282c0.4,16.2,0.8,32.5,1.2,48.7c0,0.4,0.1,0.8,0.3,1.1c0.2,0.3,0.5,0.6,0.8,0.8
	s0.7,0.3,1.1,0.3s0.8-0.1,1.1-0.3c53.4-22.9,106.6-46.3,159.4-70.5c37.3-17,74.6-34,111-52.8c9.6-4.9,19.6-10.6,23.6-21.2
	c4.7-12.2,3.4-27.5,3.7-40.4c0.7-31.6-0.5-63.3-1.5-94.9c-2.3-70.2-3.1-140.5-5.5-210.7C888.3,424,883.9,423.9,884,426.8L884,426.8z
	"/>
<path class="st2" d="M261.6,439c32.8,12.7,65.1,26.8,97.6,40.2c48.2,20,96.5,40,144.8,59.7c13.8,5.6,27.5,11.7,41.6,16.6
	c2.7,0.9,3.9-3.4,1.2-4.3c-34-11.8-67.2-27-100.5-40.7c-48-19.8-96-39.6-144-59.5c-13.1-5.4-26.2-11.1-39.5-16.2
	C260.1,433.7,258.9,438,261.6,439L261.6,439z"/>
<path class="st2" d="M239.7,445.7c39.5,16.9,79,33.8,118.5,50.6c49.8,21.2,99.5,42.3,149.5,63.1c14.5,6,28.9,12.4,43.7,17.6
	c2.7,1,3.9-3.4,1.2-4.3c-34.9-12.4-68.8-28.1-102.8-42.5c-51.2-21.6-102.3-43.3-153.3-65.2c-18.2-7.7-36.3-15.5-54.4-23.3
	C239.4,440.7,237.1,444.5,239.7,445.7L239.7,445.7z"/>
<path class="st2" d="M561.9,579.6c14.4-13.1,34.8-19,52.6-25.8c21-8.2,41.3-18,60.8-29.1c44.3-24.7,88.4-49.3,133.8-71.9
	c24.2-12,49-22.2,75.5-27.6c2.8-0.6,1.6-4.9-1.2-4.3c-48.2,9.8-92,35.1-135,58c-44.4,23.6-87,52.2-134.1,70.3
	c-18.9,7.2-40.3,13.5-55.6,27.3C556.6,578.4,559.7,581.6,561.9,579.6L561.9,579.6z"/>
</svg>
