<svg
                width="100%"
                height="100%"
                viewBox="0 0 168 80"
                fill="none"
                xmlns="http://www.w3.org/2000/svg"
              >
                <path
                  d="M158 79H10C5.02944 79 1 74.9706 1 70V10C1 5.02944 5.02944 1 10 1H159C163.418 1 167 4.58172 167 9V70C167 74.9706 162.971 79 158 79Z"
                  fill="#18162B"
                  stroke="#C6FF00"
                  stroke-width="2"
                />
                <path
                  d="M25.536 47.944C21.376 47.944 18.08 46.792 15.648 44.488C13.216 42.152 12 38.824 12 34.504V26.44C12 22.12 13.216 18.808 15.648 16.504C18.08 14.168 21.376 13 25.536 13C29.664 13 32.848 14.136 35.088 16.408C37.36 18.648 38.496 21.736 38.496 25.672V25.96H32.256V25.48C32.256 23.496 31.696 21.864 30.576 20.584C29.488 19.304 27.808 18.664 25.536 18.664C23.296 18.664 21.536 19.352 20.256 20.728C18.976 22.104 18.336 23.976 18.336 26.344V34.6C18.336 36.936 18.976 38.808 20.256 40.216C21.536 41.592 23.296 42.28 25.536 42.28C27.808 42.28 29.488 41.64 30.576 40.36C31.696 39.048 32.256 37.416 32.256 35.464V34.6H38.496V35.272C38.496 39.208 37.36 42.312 35.088 44.584C32.848 46.824 29.664 47.944 25.536 47.944Z"
                  fill="#C6FF00"
                />
                <path
                  d="M56.7146 47.944C52.4906 47.944 49.1306 46.792 46.6346 44.488C44.1386 42.152 42.8906 38.824 42.8906 34.504V26.44C42.8906 22.12 44.1386 18.808 46.6346 16.504C49.1306 14.168 52.4906 13 56.7146 13C60.9386 13 64.2986 14.168 66.7946 16.504C69.2906 18.808 70.5386 22.12 70.5386 26.44V34.504C70.5386 38.824 69.2906 42.152 66.7946 44.488C64.2986 46.792 60.9386 47.944 56.7146 47.944ZM56.7146 42.28C59.0826 42.28 60.9226 41.592 62.2346 40.216C63.5466 38.84 64.2026 37 64.2026 34.696V26.248C64.2026 23.944 63.5466 22.104 62.2346 20.728C60.9226 19.352 59.0826 18.664 56.7146 18.664C54.3786 18.664 52.5386 19.352 51.1946 20.728C49.8826 22.104 49.2266 23.944 49.2266 26.248V34.696C49.2266 37 49.8826 38.84 51.1946 40.216C52.5386 41.592 54.3786 42.28 56.7146 42.28Z"
                  fill="#C6FF00"
                />
                <path
                  d="M76.0961 47.272V13.672H87.8561L93.6641 42.952H94.5281L100.336 13.672H112.096V47.272H105.952V18.328H105.088L99.3281 47.272H88.8641L83.1041 18.328H82.2401V47.272H76.0961Z"
                  fill="#C6FF00"
                />
                <path
                  d="M118.424 47.272V13.672H124.76V47.272H118.424Z"
                  fill="#C6FF00"
                />
                <path
                  d="M143.848 47.944C139.688 47.944 136.393 46.792 133.961 44.488C131.529 42.152 130.312 38.824 130.312 34.504V26.44C130.312 22.12 131.529 18.808 133.961 16.504C136.393 14.168 139.688 13 143.848 13C147.976 13 151.16 14.136 153.4 16.408C155.672 18.648 156.809 21.736 156.809 25.672V25.96H150.568V25.48C150.568 23.496 150.009 21.864 148.889 20.584C147.801 19.304 146.12 18.664 143.848 18.664C141.608 18.664 139.849 19.352 138.569 20.728C137.289 22.104 136.648 23.976 136.648 26.344V34.6C136.648 36.936 137.289 38.808 138.569 40.216C139.849 41.592 141.608 42.28 143.848 42.28C146.12 42.28 147.801 41.64 148.889 40.36C150.009 39.048 150.568 37.416 150.568 35.464V34.6H156.809V35.272C156.809 39.208 155.672 42.312 153.4 44.584C151.16 46.824 147.976 47.944 143.848 47.944Z"
                  fill="#C6FF00"
                />
                <path
                  d="M83.6 67.268V65.784H84.916V58.952H83.6V57.468H88.612C89.2 57.468 89.7133 57.5706 90.152 57.776C90.6 57.972 90.9453 58.2566 91.188 58.63C91.44 58.994 91.566 59.4326 91.566 59.946V60.072C91.566 60.52 91.482 60.8886 91.314 61.178C91.146 61.4673 90.9453 61.6913 90.712 61.85C90.4786 62.0086 90.2546 62.1206 90.04 62.186V62.424C90.2546 62.48 90.4833 62.5873 90.726 62.746C90.978 62.8953 91.188 63.1193 91.356 63.418C91.5333 63.7073 91.622 64.0853 91.622 64.552V64.692C91.622 65.224 91.4913 65.686 91.23 66.078C90.978 66.4606 90.628 66.7546 90.18 66.96C89.7413 67.1653 89.2326 67.268 88.654 67.268H83.6ZM86.596 65.742H88.458C88.906 65.742 89.2606 65.6346 89.522 65.42C89.7926 65.196 89.928 64.8833 89.928 64.482V64.356C89.928 63.9546 89.7973 63.6466 89.536 63.432C89.2746 63.208 88.9153 63.096 88.458 63.096H86.596V65.742ZM86.596 61.57H88.444C88.8733 61.57 89.2186 61.4626 89.48 61.248C89.7506 61.0333 89.886 60.7346 89.886 60.352V60.212C89.886 59.8293 89.7506 59.5306 89.48 59.316C89.2186 59.1013 88.8733 58.994 88.444 58.994H86.596V61.57Z"
                  fill="white"
                />
                <path
                  d="M96.9341 67.268V63.81L93.5601 57.468H95.4501L97.6621 61.794H97.9001L100.112 57.468H101.988L98.6141 63.81V67.268H96.9341Z"
                  fill="white"
                />
                <path
                  d="M109.313 67.268V57.468H113.275C113.891 57.468 114.433 57.5893 114.899 57.832C115.366 58.0746 115.735 58.42 116.005 58.868C116.276 59.3066 116.411 59.8293 116.411 60.436V60.632C116.411 61.2293 116.271 61.752 115.991 62.2C115.721 62.648 115.347 62.9933 114.871 63.236C114.405 63.4786 113.873 63.6 113.275 63.6H111.007V67.268H109.313ZM111.007 62.074H113.107C113.593 62.074 113.98 61.9433 114.269 61.682C114.568 61.4206 114.717 61.0613 114.717 60.604V60.464C114.717 60.0066 114.573 59.6473 114.283 59.386C113.994 59.1246 113.602 58.994 113.107 58.994H111.007V62.074Z"
                  fill="white"
                />
                <path
                  d="M117.697 67.268L120.385 57.468H123.311L125.999 67.268H124.263L123.675 65.028H120.021L119.433 67.268H117.697ZM120.413 63.488H123.283L121.967 58.518H121.729L120.413 63.488Z"
                  fill="white"
                />
                <path
                  d="M128.643 67.268V57.468H132.829C133.445 57.468 133.981 57.5753 134.439 57.79C134.896 58.0046 135.251 58.308 135.503 58.7C135.764 59.0826 135.895 59.5446 135.895 60.086V60.24C135.895 60.8466 135.75 61.332 135.461 61.696C135.171 62.06 134.821 62.326 134.411 62.494V62.718C134.775 62.7366 135.059 62.8626 135.265 63.096C135.479 63.3293 135.587 63.642 135.587 64.034V67.268H133.907V64.272C133.907 64.0386 133.841 63.852 133.711 63.712C133.589 63.5626 133.389 63.488 133.109 63.488H130.337V67.268H128.643ZM130.337 61.962H132.661C133.146 61.962 133.524 61.836 133.795 61.584C134.075 61.3226 134.215 60.9773 134.215 60.548V60.422C134.215 59.9833 134.079 59.638 133.809 59.386C133.538 59.1246 133.155 58.994 132.661 58.994H130.337V61.962Z"
                  fill="white"
                />
                <path
                  d="M138.202 67.268L140.89 57.468H143.816L146.504 67.268H144.768L144.18 65.028H140.526L139.938 67.268H138.202ZM140.918 63.488H143.788L142.472 58.518H142.234L140.918 63.488Z"
                  fill="white"
                />
                <path
                  d="M152.508 67.464C151.761 67.464 151.099 67.3333 150.52 67.072C149.951 66.8013 149.503 66.414 149.176 65.91C148.849 65.406 148.686 64.79 148.686 64.062V63.698H150.352V64.062C150.352 64.706 150.548 65.1866 150.94 65.504C151.332 65.8213 151.855 65.98 152.508 65.98C153.171 65.98 153.67 65.8446 154.006 65.574C154.342 65.3033 154.51 64.9533 154.51 64.524C154.51 64.2346 154.431 64.0013 154.272 63.824C154.113 63.6373 153.88 63.488 153.572 63.376C153.273 63.264 152.909 63.1566 152.48 63.054L152.06 62.97C151.416 62.8206 150.856 62.634 150.38 62.41C149.913 62.1766 149.554 61.878 149.302 61.514C149.05 61.15 148.924 60.674 148.924 60.086C148.924 59.498 149.064 58.994 149.344 58.574C149.624 58.154 150.021 57.832 150.534 57.608C151.047 57.384 151.649 57.272 152.34 57.272C153.031 57.272 153.647 57.3886 154.188 57.622C154.729 57.8553 155.154 58.2053 155.462 58.672C155.779 59.1386 155.938 59.722 155.938 60.422V60.884H154.272V60.422C154.272 60.0206 154.193 59.6986 154.034 59.456C153.875 59.2133 153.651 59.036 153.362 58.924C153.073 58.812 152.732 58.756 152.34 58.756C151.761 58.756 151.323 58.868 151.024 59.092C150.725 59.316 150.576 59.6333 150.576 60.044C150.576 60.3053 150.641 60.5293 150.772 60.716C150.912 60.8933 151.113 61.0426 151.374 61.164C151.645 61.276 151.981 61.374 152.382 61.458L152.802 61.556C153.474 61.7053 154.062 61.8966 154.566 62.13C155.07 62.354 155.462 62.6526 155.742 63.026C156.031 63.3993 156.176 63.8846 156.176 64.482C156.176 65.07 156.022 65.588 155.714 66.036C155.415 66.484 154.991 66.834 154.44 67.086C153.899 67.338 153.255 67.464 152.508 67.464Z"
                  fill="white"
                />
                <path d="M159 0L165 3L168 9H159V0Z" fill="#C6FF00" />
                <path d="M9 80L3.5 76.5L0 71H9V80Z" fill="#C6FF00" />
              </svg>