<svg width="1080" height="1080" viewBox="0 0 1080 1080" fill="none" xmlns="http://www.w3.org/2000/svg">
<g clip-path="url(#clip0)">
<path d="M478.523 223.03C465.903 267.594 452.289 311.885 436.128 355.3C431.816 366.869 427.427 378.138 422.919 389.249C389.682 336.211 343.694 262.293 318.401 221.502C316.989 219.234 314.93 217.44 312.489 216.352C310.047 215.264 307.336 214.932 304.704 215.399C302.072 215.865 299.641 217.109 297.723 218.969C295.805 220.83 294.488 223.222 293.943 225.837C278.07 299.219 240.469 373.019 194.455 430.145C167.868 463.167 134.853 496.737 134.2 539.16C133.638 574.703 171.147 615.076 200.922 634.479C212.745 642.183 233.336 650.435 255.716 656.911C249.104 735.004 237.395 812.582 220.663 889.149C220.657 889.227 220.657 889.306 220.663 889.384C220.022 892.322 219.356 895.247 218.742 898.172C216.756 906.998 221.355 916.204 230.396 918.698C230.657 918.815 230.905 918.933 231.167 919.024C245.538 924.352 288.495 932.081 288.443 906.567C288.443 894.711 276.319 886.668 266.533 882.777C263.362 881.527 260.088 880.557 256.748 879.878C271.501 808.855 282.089 737.03 288.456 664.772C311.816 669.172 333.464 670.452 345.575 666.012C348.424 664.968 351.22 663.871 353.963 662.722C353.502 738.872 354.103 815.014 355.766 891.147C355.962 900.483 362.416 905.758 369.576 906.972C370.308 907.29 371.064 907.552 371.836 907.756C386.717 911.673 429.399 916.073 429.06 891.473C428.903 879.513 416.295 872.057 406.249 868.845C400.538 867.127 394.614 866.222 388.65 866.155C387.265 792.381 386.865 718.607 387.448 644.833C450.159 603.167 472.579 537.189 476.812 522.656C481.11 507.862 478.589 492.755 474.617 481.643C467.797 462.54 457.711 444.847 447.024 427.546C465.132 384.745 481.554 341.368 495.573 296.882C502.262 275.664 508.533 254.315 514.595 232.901C521.075 209.803 485.069 199.879 478.523 223.03Z" fill="white" stroke="white" stroke-width="47" stroke-miterlimit="10"/>
<path d="M902.83 359.492C856.815 302.353 819.215 228.553 803.328 155.184C802.79 152.561 801.476 150.159 799.556 148.291C797.637 146.423 795.2 145.173 792.562 144.705C789.925 144.236 787.207 144.57 784.761 145.663C782.315 146.756 780.254 148.558 778.844 150.836C753.498 191.627 707.51 265.544 674.325 318.583C669.818 307.458 665.428 296.19 661.117 284.634C644.956 241.205 631.329 196.915 618.722 152.35C612.189 129.252 576.169 139.123 582.728 162.261C588.79 183.675 595.061 205.024 601.75 226.242C615.756 270.637 632.191 314.117 650.299 356.906C639.612 374.207 629.526 391.9 622.706 411.003C618.787 422.115 616.174 437.235 620.511 452.029C624.744 466.549 647.111 532.527 709.875 574.193C710.458 647.967 710.058 721.741 708.673 795.515C702.71 795.582 696.785 796.487 691.075 798.205C681.028 801.417 668.42 808.873 668.263 820.833C667.924 845.433 710.606 841.046 725.487 837.129C726.258 836.915 727.013 836.648 727.748 836.332C734.907 835.131 741.348 829.803 741.557 820.507C743.212 744.382 743.813 668.245 743.36 592.095C746.104 593.235 748.9 594.332 751.748 595.385C763.859 599.825 785.507 598.532 808.867 594.08C815.233 666.342 825.821 738.171 840.576 809.199C837.232 809.875 833.953 810.841 830.777 812.085C821.004 816.002 808.906 824.032 808.88 835.875C808.88 861.35 851.811 853.672 866.157 848.332C866.418 848.24 866.666 848.123 866.927 848.018C875.994 845.537 880.554 836.267 878.581 827.505C877.928 824.567 877.275 821.643 876.661 818.718C876.661 818.626 876.661 818.548 876.661 818.47C859.91 741.917 848.183 664.352 841.555 586.271C863.935 579.743 884.526 571.543 896.349 563.839C926.124 544.423 963.633 504.036 963.071 468.52C962.418 426.123 929.416 392.501 902.83 359.492Z" fill="white" stroke="white" stroke-width="47" stroke-miterlimit="10"/>
<path d="M387.685 613.143C386.674 697.494 386.97 781.844 388.573 866.194C394.536 866.261 400.461 867.167 406.171 868.884C416.218 872.096 428.826 879.552 428.983 891.512C429.322 916.112 386.639 911.725 371.759 907.795C370.987 907.591 370.231 907.329 369.498 907.011C362.339 905.797 355.885 900.483 355.689 891.186C353.668 798.531 353.207 705.85 354.304 613.143C354.565 591.69 387.946 591.599 387.685 613.143Z" fill="#C6FF00" stroke="#1D1935" stroke-width="3" stroke-miterlimit="10"/>
<path d="M218.638 898.211C219.291 895.286 219.944 892.361 220.559 889.423C220.552 889.345 220.552 889.266 220.559 889.188C238.793 805.808 251.057 721.235 257.258 636.111C257.911 627.128 264.469 619.437 273.954 619.437C282.473 619.437 291.292 627.089 290.638 636.111C284.711 718.04 273.364 799.487 256.67 879.918C260.01 880.597 263.284 881.566 266.455 882.816C276.241 886.734 288.339 894.751 288.365 906.607C288.365 932.082 245.434 924.391 231.089 919.063C230.827 918.972 230.579 918.854 230.318 918.737C221.225 916.243 216.652 907.038 218.638 898.211Z" fill="#C6FF00" stroke="#1D1935" stroke-width="3" stroke-miterlimit="10"/>
<path d="M414.924 499.296C445.796 433.409 473.598 366.347 495.494 296.908C502.184 275.69 508.455 254.341 514.517 232.927C521.049 209.789 485.069 199.918 478.523 223.017C465.902 267.581 452.289 311.872 436.128 355.287C419.967 398.703 402.551 438.084 382.693 480.455C378.42 489.595 380.08 500.563 389.382 505.969C397.482 510.709 410.625 508.45 414.924 499.283V499.296Z" fill="#C6FF00" stroke="#1D1935" stroke-width="3" stroke-miterlimit="10"/>
<path d="M438.871 414.672C452.393 436.125 466.007 457.761 474.538 481.682C478.457 492.794 481.07 507.901 476.733 522.695C471.677 540.075 440.648 631.149 345.497 666.052C316.14 676.824 230.657 653.934 200.869 634.518C171.081 615.102 133.585 574.716 134.147 539.2C134.8 496.816 167.815 463.206 194.402 430.184C240.416 373.058 278.017 299.258 293.891 225.876C294.436 223.261 295.752 220.869 297.67 219.008C299.588 217.148 302.02 215.904 304.652 215.438C307.283 214.971 309.995 215.303 312.436 216.391C314.877 217.479 316.936 219.273 318.348 221.541C348.083 269.357 406.235 362.834 438.871 414.672Z" fill="#C6FF00" stroke="#1D1935" stroke-width="3" stroke-miterlimit="10"/>
<path d="M311.123 332.972C310.901 332.084 311.123 333.534 311.123 332.972C311.123 332.411 310.979 333.73 311.123 333.116C311.266 332.502 310.783 333.834 311.188 333.051C311.031 333.338 310.783 333.56 311.188 333.142C310.757 333.442 310.692 333.508 310.979 333.338C311.266 333.168 311.188 333.22 310.979 333.338C310.597 333.42 310.207 333.455 309.816 333.442C310.273 333.442 310.195 333.612 309.816 333.442L309.516 333.168C309.829 333.495 309.882 333.534 309.659 333.273C309.437 333.011 309.372 332.685 309.372 332.189C309.372 331.693 309.633 331.484 309.372 332.006C309.558 331.629 309.786 331.274 310.051 330.948C310.378 330.478 309.659 331.144 310.195 330.948C310.535 330.818 310.509 330.805 310.091 330.948L310.665 330.857C311.034 330.891 311.393 330.992 311.724 331.157C312.134 331.408 312.455 331.783 312.638 332.228C312.743 332.476 312.769 333.534 312.834 332.829C312.834 333.064 312.743 333.782 312.834 333.142L312.599 333.69C312.821 333.351 312.821 333.338 312.599 333.69C312.112 334.202 311.46 334.526 310.757 334.605C310.054 334.684 309.347 334.513 308.758 334.121C309.202 334.474 308.823 334.291 308.758 333.978C309.111 335.088 308.653 333.325 308.758 333.978C308.862 334.461 308.941 332.998 308.758 333.978C308.806 333.635 308.903 333.301 309.045 332.985C308.745 333.69 309.254 332.894 309.385 332.698C309.516 332.502 309.673 332.502 309.45 332.633C309.228 332.763 309.267 332.776 309.803 332.528C309.189 332.528 309.803 332.528 310.051 332.528C309.712 332.528 309.202 332.28 309.659 332.528C310.417 332.998 309.163 332.032 309.868 332.528C310.169 332.75 310.535 332.855 310.731 333.207C310.829 334.259 310.605 335.315 310.091 336.237C308.993 337.686 306.014 337.151 305.27 335.623C305.899 336.687 306.923 337.46 308.12 337.773C309.316 338.086 310.588 337.914 311.658 337.294C312.702 336.649 313.457 335.628 313.769 334.442C314.08 333.256 313.923 331.996 313.331 330.922C311.279 326.705 304.825 327.005 302.565 330.818C300.201 334.892 302.761 339.958 306.981 341.368C308.545 341.88 310.222 341.938 311.818 341.536C313.413 341.134 314.862 340.288 315.996 339.096C317.227 337.701 317.951 335.931 318.05 334.073C318.15 332.215 317.619 330.378 316.545 328.859C314.075 325.321 309.15 323.937 305.805 327.214C304.602 328.415 303.819 329.973 303.571 331.655C303.324 333.337 303.627 335.053 304.434 336.55C305.477 338.209 307.129 339.395 309.035 339.853C310.942 340.312 312.952 340.008 314.637 339.005C316.394 338.026 317.7 336.4 318.276 334.473C318.852 332.547 318.652 330.471 317.72 328.689C316.684 326.781 314.952 325.345 312.883 324.681C310.815 324.017 308.57 324.176 306.615 325.125C304.826 326.109 303.418 327.663 302.616 329.539C301.813 331.416 301.662 333.507 302.186 335.479C302.349 336.07 302.627 336.623 303.004 337.106C303.381 337.59 303.849 337.994 304.382 338.297C304.915 338.599 305.503 338.794 306.111 338.869C306.72 338.945 307.337 338.9 307.928 338.737C308.519 338.574 309.073 338.297 309.556 337.92C310.04 337.543 310.445 337.075 310.747 336.542C311.05 336.01 311.245 335.422 311.32 334.814C311.396 334.206 311.351 333.589 311.188 332.998L311.123 332.972Z" fill="black"/>
<path d="M350.918 332.972C350.683 332.084 350.918 333.534 350.918 332.972C350.918 332.411 350.775 333.73 350.918 333.116C351.062 332.502 350.579 333.834 350.918 333.051C350.775 333.338 350.526 333.56 350.918 333.142C350.487 333.442 350.409 333.508 350.709 333.338C351.01 333.168 350.918 333.22 350.644 333.338C350.266 333.42 349.88 333.455 349.494 333.442C349.951 333.442 349.873 333.612 349.494 333.442L349.181 333.168C349.507 333.495 349.56 333.534 349.337 333.273C349.115 333.011 349.05 332.685 349.05 332.189C349.05 331.693 349.298 331.484 349.05 332.006C349.236 331.632 349.46 331.278 349.716 330.948C350.043 330.478 349.337 331.144 349.86 330.948C350.383 330.753 350.187 330.805 349.769 330.948L350.33 330.857C350.703 330.889 351.067 330.991 351.402 331.157C351.809 331.412 352.128 331.786 352.316 332.228C352.421 332.476 352.447 333.534 352.499 332.829C352.499 333.064 352.421 333.782 352.499 333.142L352.277 333.69C352.499 333.351 352.499 333.338 352.277 333.69C351.786 334.201 351.132 334.524 350.428 334.603C349.724 334.681 349.014 334.511 348.423 334.121C348.88 334.474 348.501 334.291 348.423 333.978C348.789 335.088 348.331 333.325 348.488 333.978C348.593 334.461 348.658 332.998 348.488 333.978C348.536 333.635 348.633 333.301 348.776 332.985C348.475 333.69 348.985 332.894 349.115 332.698C349.246 332.502 349.403 332.502 349.181 332.633C348.959 332.763 348.998 332.776 349.533 332.528C348.919 332.528 349.533 332.528 349.782 332.528C349.442 332.528 348.932 332.28 349.39 332.528C350.147 332.998 348.893 332.032 349.599 332.528C349.899 332.75 350.265 332.855 350.461 333.207C350.564 334.26 350.336 335.319 349.808 336.237C348.723 337.686 345.745 337.151 345 335.623C345.629 336.687 346.654 337.46 347.85 337.773C349.047 338.086 350.318 337.914 351.389 337.294C352.43 336.647 353.183 335.626 353.494 334.441C353.805 333.256 353.65 331.997 353.061 330.922C351.01 326.705 344.543 327.005 342.295 330.818C339.918 334.892 342.491 339.958 346.711 341.368C348.275 341.88 349.952 341.938 351.548 341.536C353.143 341.134 354.592 340.288 355.726 339.096C356.953 337.698 357.674 335.929 357.773 334.073C357.873 332.216 357.345 330.38 356.275 328.859C353.806 325.321 348.88 323.937 345.536 327.214C344.343 328.423 343.572 329.984 343.336 331.666C343.101 333.347 343.414 335.06 344.229 336.55C345.273 338.209 346.924 339.395 348.831 339.853C350.737 340.312 352.748 340.008 354.433 339.005C356.19 338.026 357.496 336.4 358.071 334.473C358.647 332.547 358.448 330.471 357.516 328.689C356.48 326.781 354.747 325.345 352.679 324.681C350.61 324.017 348.365 324.176 346.411 325.125C344.622 326.109 343.214 327.663 342.411 329.539C341.609 331.416 341.458 333.507 341.982 335.479C342.321 336.665 343.111 337.671 344.183 338.281C345.255 338.891 346.524 339.057 347.717 338.744C348.899 338.394 349.899 337.6 350.508 336.529C351.117 335.457 351.288 334.192 350.984 332.998L350.918 332.972Z" fill="black"/>
<path d="M272.74 378.96C273.916 381.911 277.509 383.791 280.004 385.619C282.628 387.782 285.748 389.258 289.084 389.915C291.475 390.281 292.52 386.612 290.09 386.233C287.557 385.783 285.167 384.741 283.114 383.191C282.134 382.499 281.18 381.767 280.213 381.049C279.247 380.331 276.895 379.143 276.412 377.942C275.51 375.696 271.826 376.636 272.74 378.96V378.96Z" fill="black"/>
<path d="M204.344 448.948C199.379 490.535 212.183 533.637 236.222 567.691C244.427 579.312 253.716 589.954 268.492 592.239C284.353 594.693 301.35 591.233 316.741 587.603C334.222 583.49 352.525 578.92 368.517 570.485C377.414 565.784 383.136 556.54 379.204 546.355C375.898 537.816 364.036 530.948 355.073 535.687C343.537 541.772 330.681 545.637 318.152 549.071C316.336 549.567 314.52 550.024 312.704 550.507C312.011 550.69 309.215 551.33 312.704 550.507C311.92 550.69 311.136 550.886 310.339 551.056C306.42 551.891 302.592 552.727 298.685 553.419C291.709 554.725 284.784 555.169 277.782 555.717C276.724 555.823 275.658 555.653 274.687 555.222C273.716 554.792 272.873 554.117 272.242 553.263C271.288 552.127 270.361 550.977 269.459 549.802C265.355 544.332 261.61 538.601 258.25 532.645C258.106 532.397 256.878 530.125 257.871 531.992C258.864 533.859 257.387 531.013 257.152 530.53C256.29 528.806 255.415 527.07 254.539 525.307C252.684 521.355 250.981 517.342 249.431 513.268C245.91 504.548 243.424 495.446 242.023 486.148C241.194 480.912 240.671 475.632 240.455 470.335C240.455 469.03 240.455 467.646 240.364 466.288V464.29C240.364 465.596 240.364 465.517 240.364 464.185C240.521 461.078 240.808 457.983 241.187 454.902C242.376 444.9 235.961 435.172 225.731 433.514C216.076 431.96 205.533 438.906 204.331 448.948H204.344Z" fill="#C6FF00" stroke="#1D1935" stroke-width="3" stroke-miterlimit="10"/>
<path d="M709.601 542.477C710.602 626.819 710.306 711.165 708.712 795.515C702.749 795.582 696.825 796.487 691.114 798.205C681.067 801.417 668.46 808.873 668.303 820.833C667.963 845.433 710.646 841.046 725.527 837.129C726.297 836.915 727.052 836.649 727.787 836.332C734.946 835.131 741.387 829.803 741.596 820.507C743.617 727.843 744.079 635.167 742.981 542.477C742.668 521.089 709.287 520.959 709.601 542.477Z" fill="#779900" stroke="#1C1835" stroke-width="3" stroke-miterlimit="10"/>
<path d="M878.594 827.545C877.941 824.62 877.287 821.682 876.673 818.757C876.673 818.666 876.673 818.587 876.673 818.509C858.424 735.147 846.143 650.591 839.922 565.484C839.269 556.501 832.71 548.797 823.225 548.797C814.707 548.797 805.875 556.448 806.541 565.484C812.47 647.413 823.818 728.86 840.51 809.29C837.166 809.967 833.888 810.932 830.711 812.176C820.939 816.093 808.841 824.124 808.815 835.967C808.815 861.441 851.746 853.764 866.091 848.423C866.352 848.332 866.6 848.214 866.862 848.11C876.007 845.577 880.567 836.358 878.594 827.545Z" fill="#779900" stroke="#1C1835" stroke-width="3" stroke-miterlimit="10"/>
<path d="M682.308 428.617C651.423 362.73 623.634 295.681 601.737 226.229C595.048 205.01 588.777 183.662 582.715 162.248C576.182 139.11 612.163 129.239 618.708 152.337C631.316 196.902 644.943 241.192 661.104 284.621C677.265 328.05 694.681 367.404 714.539 409.775C718.811 418.916 717.152 429.897 707.85 435.302C699.75 440.029 686.606 437.77 682.308 428.604V428.617Z" fill="#779900" stroke="#1C1835" stroke-width="3" stroke-miterlimit="10"/>
<path d="M658.36 343.993C644.838 365.459 631.224 387.082 622.693 411.003C618.774 422.115 616.161 437.235 620.498 452.029C625.554 469.408 656.583 560.483 751.734 595.385C781.091 606.145 866.574 583.268 896.362 563.839C926.15 544.409 963.646 504.036 963.084 468.52C962.418 426.149 929.416 392.527 902.829 359.518C856.815 302.379 819.214 228.579 803.327 155.21C802.793 152.585 801.482 150.181 799.564 148.309C797.646 146.438 795.21 145.185 792.572 144.714C789.933 144.242 787.214 144.574 784.766 145.665C782.318 146.757 780.255 148.558 778.844 150.836C749.147 198.691 690.996 292.155 658.36 343.993Z" fill="#779900" stroke="#1C1835" stroke-width="3" stroke-miterlimit="10"/>
<path d="M795.176 263.481C795.667 261.654 795.579 259.719 794.924 257.944C794.269 256.169 793.079 254.641 791.518 253.571C789.928 252.542 788.033 252.089 786.15 252.289C784.266 252.489 782.509 253.328 781.17 254.668C779.723 256.049 778.868 257.937 778.782 259.936C778.697 261.934 779.389 263.888 780.713 265.388C781.928 266.767 783.589 267.676 785.407 267.955C787.224 268.235 789.082 267.867 790.655 266.915C792.22 265.826 793.315 264.186 793.72 262.323C794.125 260.461 793.809 258.514 792.837 256.874C792.391 256.062 791.783 255.351 791.05 254.784C790.317 254.217 789.475 253.807 788.577 253.579C787.679 253.351 786.743 253.311 785.829 253.46C784.914 253.609 784.04 253.944 783.261 254.446C781.701 255.462 780.508 256.951 779.856 258.695C779.205 260.438 779.13 262.345 779.642 264.134C780.235 265.853 781.368 267.333 782.873 268.355C784.378 269.376 786.173 269.883 787.99 269.801C792.615 269.605 796.77 265.283 795.489 260.504C794.183 255.503 786.514 253.806 784.031 258.911C783.432 259.985 783.271 261.25 783.583 262.44C783.894 263.63 784.654 264.653 785.704 265.296C787.794 266.393 790.93 265.962 792.092 263.625L790.12 265.022C789.749 265.157 789.349 265.19 788.961 265.119C788.573 265.048 788.21 264.875 787.912 264.617C787.558 264.503 787.257 264.263 787.067 263.944C786.877 263.624 786.811 263.246 786.88 262.881C786.67 262.696 786.526 262.449 786.467 262.177C786.408 261.904 786.438 261.62 786.553 261.366C786.702 261.054 786.938 260.791 787.232 260.609C787.494 260.426 788.003 260.426 787.415 260.53C788.552 260.347 787.807 260.53 787.48 260.53C786.814 260.53 788.682 260.596 787.559 260.53C787.872 260.53 788.238 260.909 787.755 260.53C787.925 260.648 788.63 261.497 788.408 261.118C788.186 260.739 788.29 260.922 788.408 261.118C788.553 261.347 788.617 261.618 788.591 261.888C788.5 261.34 788.591 261.692 788.591 262.071C788.813 261.222 788.343 262.528 788.591 262.071C788.839 261.614 788.121 262.659 788.526 262.176C788.931 261.692 788.068 262.502 787.82 262.567L785.455 262.254L784.985 261.875C784.632 261.34 784.541 261.209 784.724 261.51C784.907 261.81 784.841 261.679 784.724 261.366C784.606 261.053 784.58 261 784.658 261.248C784.737 261.497 784.724 261.444 784.658 260.778C784.658 261.405 784.658 260.713 784.737 260.452C784.876 259.981 785.165 259.569 785.56 259.277C785.847 259.055 786.183 258.908 786.54 258.846C786.853 258.846 787.846 258.976 787.062 258.846C787.402 258.924 787.689 259.198 787.245 258.846C787.573 259.098 787.841 259.419 788.029 259.786C788.134 260.099 788.147 260.125 788.029 259.877C787.912 259.629 787.964 259.655 788.108 260.217C788.109 260.528 788.056 260.838 787.951 261.131C787.637 261.51 787.598 261.575 787.833 261.34C788.068 261.105 788.016 261.157 787.833 261.34C787.65 261.523 786.945 261.549 787.65 261.523C787.337 261.542 787.023 261.542 786.71 261.523L786.279 261.301C786.657 261.536 786.697 261.549 786.409 261.301C785.847 260.883 786.723 261.823 786.331 261.301C786.122 261.013 786.135 261.066 786.331 261.431L786.161 261L786.252 261.366V260.857C785.952 262.045 786.579 259.864 786.252 261.079C785.923 262.272 786.082 263.547 786.693 264.623C787.304 265.699 788.318 266.488 789.512 266.817C790.706 267.146 791.981 266.988 793.058 266.377C794.135 265.766 794.925 264.753 795.254 263.56L795.176 263.481Z" fill="black"/>
<path d="M755.328 263.481C755.809 261.655 755.718 259.725 755.066 257.953C754.414 256.18 753.233 254.651 751.683 253.571C750.091 252.541 748.194 252.088 746.308 252.287C744.423 252.487 742.663 253.327 741.322 254.667C739.875 256.049 739.019 257.939 738.936 259.938C738.853 261.937 739.55 263.891 740.878 265.388C742.092 266.764 743.751 267.671 745.566 267.95C747.38 268.229 749.235 267.863 750.807 266.915C752.375 265.828 753.472 264.188 753.877 262.324C754.282 260.461 753.965 258.513 752.989 256.874C752.543 256.062 751.935 255.351 751.202 254.784C750.469 254.217 749.628 253.807 748.729 253.579C747.831 253.351 746.896 253.311 745.981 253.46C745.066 253.609 744.192 253.944 743.413 254.445C741.853 255.462 740.66 256.951 740.009 258.695C739.357 260.438 739.282 262.345 739.794 264.134C740.387 265.853 741.521 267.333 743.025 268.355C744.53 269.376 746.325 269.883 748.142 269.801C752.78 269.605 756.922 265.283 755.641 260.504C754.335 255.503 746.666 253.806 744.184 258.911C743.587 259.986 743.428 261.249 743.74 262.438C744.051 263.628 744.809 264.651 745.856 265.296C747.959 266.393 751.082 265.962 752.245 263.625L750.272 265.022C749.901 265.157 749.501 265.19 749.113 265.119C748.725 265.048 748.363 264.875 748.064 264.617C747.71 264.503 747.41 264.263 747.22 263.944C747.03 263.624 746.963 263.246 747.032 262.881C746.823 262.696 746.678 262.449 746.619 262.177C746.561 261.904 746.591 261.62 746.705 261.366C746.855 261.054 747.09 260.791 747.385 260.609C747.646 260.426 748.155 260.426 747.567 260.53C748.704 260.347 747.959 260.53 747.633 260.53C746.966 260.53 748.835 260.595 747.711 260.53C748.025 260.53 748.391 260.909 747.92 260.53C748.077 260.648 748.782 261.496 748.56 261.118C748.338 260.739 748.443 260.922 748.56 261.118C748.7 261.349 748.76 261.62 748.73 261.888C748.639 261.34 748.73 261.692 748.73 262.071C748.952 261.222 748.495 262.528 748.73 262.071C748.965 261.614 748.26 262.659 748.73 262.175C749.201 261.692 748.26 262.502 748.025 262.567L745.647 262.254L745.177 261.875C744.824 261.34 744.732 261.209 744.928 261.509C745.124 261.81 745.033 261.679 744.928 261.366C744.824 261.052 744.785 261 744.863 261.248C744.941 261.496 744.941 261.444 744.863 260.778C744.863 261.405 744.863 260.713 744.863 260.452C745.007 259.984 745.295 259.573 745.686 259.277C745.973 259.055 746.309 258.907 746.666 258.846C746.98 258.846 747.972 258.976 747.189 258.846C747.541 258.924 747.829 259.198 747.371 258.846C747.699 259.101 747.971 259.421 748.168 259.786C748.26 260.099 748.273 260.125 748.168 259.877C748.064 259.629 748.103 259.655 748.168 260.217C748.17 260.528 748.116 260.838 748.012 261.131C747.698 261.509 747.659 261.575 747.894 261.34C748.129 261.105 748.077 261.157 747.894 261.34C747.711 261.523 747.019 261.549 747.711 261.523C747.398 261.542 747.084 261.542 746.77 261.523L746.339 261.301C746.718 261.536 746.757 261.549 746.47 261.301C745.921 260.883 746.784 261.823 746.405 261.301C746.183 261.013 746.196 261.066 746.405 261.431L746.222 261L746.326 261.366V260.857C746.013 262.045 746.64 259.864 746.326 261.079C745.997 262.272 746.156 263.546 746.767 264.623C747.378 265.699 748.392 266.488 749.586 266.817C750.78 267.146 752.055 266.988 753.132 266.377C754.209 265.766 754.999 264.753 755.328 263.56V263.481Z" fill="black"/>
<path d="M820.821 305.957C820.338 307.171 818.064 308.268 817.019 309.064C815.974 309.861 815.099 310.527 814.119 311.206C812.067 312.759 809.676 313.806 807.142 314.261C804.725 314.627 805.744 318.296 808.148 317.93C811.505 317.282 814.647 315.81 817.294 313.647C819.776 311.819 823.382 309.913 824.558 306.975C825.472 304.703 821.788 303.711 820.886 305.957H820.821Z" fill="black"/>
<path d="M892.887 378.281C897.851 419.856 885.048 462.971 861.009 497.011C852.804 508.632 843.515 519.287 828.739 521.559C812.878 524.014 795.88 520.567 780.49 516.937C762.996 512.811 744.705 508.254 728.714 499.806C719.804 495.118 714.082 485.86 718.027 475.689C721.333 467.136 733.195 460.281 742.158 465.008C753.694 471.093 766.55 474.958 779.079 478.392C780.882 478.888 782.711 479.358 784.527 479.828C785.22 480.011 788.015 480.651 784.527 479.828C785.311 480.011 786.095 480.207 786.892 480.376C790.811 481.225 794.639 482.061 798.546 482.753C805.522 483.98 812.447 484.489 819.449 485.051C820.508 485.155 821.575 484.983 822.546 484.55C823.517 484.117 824.359 483.439 824.989 482.583C825.943 481.46 826.87 480.298 827.772 479.123C831.879 473.654 835.623 467.923 838.981 461.966C839.125 461.717 840.288 459.446 839.36 461.313C838.433 463.18 839.844 460.333 840.079 459.863C840.941 458.127 841.816 456.403 842.692 454.64C844.547 450.697 846.25 446.684 847.8 442.602C851.318 433.881 853.804 424.779 855.208 415.482C856.044 410.242 856.568 404.958 856.776 399.656C856.776 398.35 856.841 396.966 856.88 395.621V393.584C856.88 394.89 856.88 394.812 856.88 393.48C856.723 390.372 856.436 387.291 856.057 384.196C854.868 374.194 861.283 364.467 871.5 362.808C881.168 361.254 891.711 368.201 892.913 378.255L892.887 378.281Z" fill="#779900" stroke="#1C1835" stroke-width="3" stroke-miterlimit="10"/>
</g>
<defs>
<clipPath id="clip0">
<rect width="1080" height="1080" fill="white"/>
</clipPath>
</defs>
</svg>
