<?xml version="1.0" encoding="utf-8"?>
<!-- Generator: Adobe Illustrator 25.4.1, SVG Export Plug-In . SVG Version: 6.00 Build 0)  -->
<svg version="1.1" id="Layer_1" xmlns="http://www.w3.org/2000/svg" xmlns:xlink="http://www.w3.org/1999/xlink" x="0px" y="0px"
	 viewBox="0 0 1080 1080" style="enable-background:new 0 0 1080 1080;" xml:space="preserve">
<style type="text/css">
	.st0{clip-path:url(#SVGID_00000057140784354422838260000012498971938976226443_);}
	.st1{fill:#FFFFFF;stroke:#FFFFFF;stroke-width:47;stroke-miterlimit:10;}
	.st2{fill:#096E8D;stroke:#1D1935;stroke-width:3;stroke-miterlimit:10;}
	.st3{fill:#03BBDB;stroke:#1D1935;stroke-width:3;stroke-miterlimit:10;}
	.st4{fill:#06485E;stroke:#1C1835;stroke-width:3;stroke-miterlimit:10;}
	.st5{fill:#096E8D;stroke:#1C1835;stroke-width:3;stroke-miterlimit:10;}
</style>
<g>
	<defs>
		<rect id="SVGID_1_" width="1080" height="1080"/>
	</defs>
	<clipPath id="SVGID_00000044875601033552844990000014136459833232311459_">
		<use xlink:href="#SVGID_1_"  style="overflow:visible;"/>
	</clipPath>
	<g style="clip-path:url(#SVGID_00000044875601033552844990000014136459833232311459_);">
		<path class="st1" d="M478.5,223c-12.6,44.6-26.2,88.9-42.4,132.3c-4.3,11.6-8.7,22.8-13.2,33.9c-33.2-53-79.2-127-104.5-167.7
			c-1.4-2.3-3.5-4.1-5.9-5.1c-2.4-1.1-5.2-1.4-7.8-1c-2.6,0.5-5.1,1.7-7,3.6c-1.9,1.9-3.2,4.3-3.8,6.9
			c-15.9,73.4-53.5,147.2-99.5,204.3c-26.6,33-59.6,66.6-60.3,109c-0.6,35.5,36.9,75.9,66.7,95.3c11.8,7.7,32.4,16,54.8,22.4
			c-6.6,78.1-18.3,155.7-35.1,232.2c0,0.1,0,0.2,0,0.2c-0.6,2.9-1.3,5.9-1.9,8.8c-2,8.8,2.6,18,11.7,20.5c0.3,0.1,0.5,0.2,0.8,0.3
			c14.4,5.3,57.3,13.1,57.3-12.5c0-11.9-12.1-19.9-21.9-23.8c-3.2-1.2-6.4-2.2-9.8-2.9c14.8-71,25.3-142.8,31.7-215.1
			c23.4,4.4,45,5.7,57.1,1.2c2.8-1,5.6-2.1,8.4-3.3c-0.5,76.2,0.1,152.3,1.8,228.4c0.2,9.3,6.6,14.6,13.8,15.8
			c0.7,0.3,1.5,0.6,2.3,0.8c14.9,3.9,57.6,8.3,57.2-16.3c-0.2-12-12.8-19.4-22.8-22.6c-5.7-1.7-11.6-2.6-17.6-2.7
			c-1.4-73.8-1.8-147.5-1.2-221.3c62.7-41.7,85.1-107.6,89.4-122.2c4.3-14.8,1.8-29.9-2.2-41c-6.8-19.1-16.9-36.8-27.6-54.1
			c18.1-42.8,34.5-86.2,48.5-130.7c6.7-21.2,13-42.6,19-64C521.1,209.8,485.1,199.9,478.5,223z"/>
		<path class="st1" d="M902.8,359.5c-46-57.1-83.6-130.9-99.5-204.3c-0.5-2.6-1.9-5-3.8-6.9c-1.9-1.9-4.4-3.1-7-3.6
			c-2.6-0.5-5.4-0.1-7.8,1c-2.4,1.1-4.5,2.9-5.9,5.2c-25.3,40.8-71.3,114.7-104.5,167.7c-4.5-11.1-8.9-22.4-13.2-33.9
			c-16.2-43.4-29.8-87.7-42.4-132.3c-6.5-23.1-42.6-13.2-36,9.9c6.1,21.4,12.3,42.8,19,64c14,44.4,30.4,87.9,48.5,130.7
			c-10.7,17.3-20.8,35-27.6,54.1c-3.9,11.1-6.5,26.2-2.2,41c4.2,14.5,26.6,80.5,89.4,122.2c0.6,73.8,0.2,147.5-1.2,221.3
			c-6,0.1-11.9,1-17.6,2.7c-10,3.2-22.7,10.7-22.8,22.6c-0.3,24.6,42.3,20.2,57.2,16.3c0.8-0.2,1.5-0.5,2.3-0.8
			c7.2-1.2,13.6-6.5,13.8-15.8c1.7-76.1,2.3-152.3,1.8-228.4c2.7,1.1,5.5,2.2,8.4,3.3c12.1,4.4,33.8,3.1,57.1-1.3
			c6.4,72.3,17,144.1,31.7,215.1c-3.3,0.7-6.6,1.6-9.8,2.9c-9.8,3.9-21.9,11.9-21.9,23.8c0,25.5,42.9,17.8,57.3,12.5
			c0.3-0.1,0.5-0.2,0.8-0.3c9.1-2.5,13.6-11.8,11.7-20.5c-0.7-2.9-1.3-5.9-1.9-8.8c0-0.1,0-0.2,0-0.2
			c-16.8-76.6-28.5-154.1-35.1-232.2c22.4-6.5,43-14.7,54.8-22.4c29.8-19.4,67.3-59.8,66.7-95.3
			C962.4,426.1,929.4,392.5,902.8,359.5z"/>
		<path class="st2" d="M387.7,613.1c-1,84.4-0.7,168.7,0.9,253.1c6,0.1,11.9,1,17.6,2.7c10,3.2,22.7,10.7,22.8,22.6
			c0.3,24.6-42.3,20.2-57.2,16.3c-0.8-0.2-1.5-0.5-2.3-0.8c-7.2-1.2-13.6-6.5-13.8-15.8c-2-92.7-2.5-185.3-1.4-278
			C354.6,591.7,387.9,591.6,387.7,613.1z"/>
		<path class="st2" d="M218.6,898.2c0.7-2.9,1.3-5.8,1.9-8.8c0-0.1,0-0.2,0-0.2c18.2-83.4,30.5-168,36.7-253.1
			c0.7-9,7.2-16.7,16.7-16.7c8.5,0,17.3,7.7,16.7,16.7c-5.9,81.9-17.3,163.4-34,243.8c3.3,0.7,6.6,1.6,9.8,2.9
			c9.8,3.9,21.9,11.9,21.9,23.8c0,25.5-42.9,17.8-57.3,12.5c-0.3-0.1-0.5-0.2-0.8-0.3C221.2,916.2,216.7,907,218.6,898.2z"/>
		<path class="st2" d="M414.9,499.3c30.9-65.9,58.7-132.9,80.6-202.4c6.7-21.2,13-42.6,19-64c6.5-23.1-29.4-33-36-9.9
			c-12.6,44.6-26.2,88.9-42.4,132.3c-16.2,43.4-33.6,82.8-53.4,125.2c-4.3,9.1-2.6,20.1,6.7,25.5
			C397.5,510.7,410.6,508.5,414.9,499.3L414.9,499.3z"/>
		<path class="st3" d="M438.9,414.7c13.5,21.5,27.1,43.1,35.7,67c3.9,11.1,6.5,26.2,2.2,41c-5.1,17.4-36.1,108.5-131.2,143.4
			c-29.4,10.8-114.8-12.1-144.6-31.5s-67.3-59.8-66.7-95.3c0.7-42.4,33.7-76,60.3-109c46-57.1,83.6-130.9,99.5-204.3
			c0.5-2.6,1.9-5,3.8-6.9c1.9-1.9,4.3-3.1,7-3.6c2.6-0.5,5.3-0.1,7.8,1c2.4,1.1,4.5,2.9,5.9,5.1
			C348.1,269.4,406.2,362.8,438.9,414.7z"/>
		<path d="M311.1,333C310.9,332.1,311.1,333.5,311.1,333c0-0.6-0.1,0.8,0,0.1C311.3,332.5,310.8,333.8,311.1,333
			c-0.1,0.4-0.3,0.6,0.1,0.2c-0.4,0.3-0.5,0.4-0.2,0.2c0.3-0.2,0.2-0.1,0,0c-0.4,0.1-0.8,0.1-1.2,0.1c0.5,0,0.4,0.2,0,0l-0.3-0.3
			c0.3,0.3,0.4,0.4,0.1,0.1c-0.2-0.3-0.3-0.6-0.3-1.1s0.3-0.7,0-0.2c0.2-0.4,0.4-0.7,0.7-1.1c0.3-0.5-0.4,0.2,0.1,0
			c0.3-0.1,0.3-0.1-0.1,0l0.6-0.1c0.4,0,0.7,0.1,1.1,0.3c0.4,0.3,0.7,0.6,0.9,1.1c0.1,0.2,0.1,1.3,0.2,0.6c0,0.2-0.1,1,0,0.3
			l-0.2,0.5c0.2-0.3,0.2-0.4,0,0c-0.5,0.5-1.1,0.8-1.8,0.9c-0.7,0.1-1.4-0.1-2-0.5c0.4,0.4,0.1,0.2,0-0.1c0.4,1.1-0.1-0.7,0,0
			c0.1,0.5,0.2-1,0,0c0-0.3,0.1-0.7,0.3-1c-0.3,0.7,0.2-0.1,0.3-0.3c0.1-0.2,0.3-0.2,0.1-0.1c-0.2,0.1-0.2,0.1,0.4-0.1
			c-0.6,0,0,0,0.2,0c-0.3,0-0.8-0.2-0.4,0c0.8,0.5-0.5-0.5,0.2,0c0.3,0.2,0.7,0.3,0.9,0.7c0.1,1.1-0.1,2.1-0.6,3
			c-1.1,1.4-4.1,0.9-4.8-0.6c0.6,1.1,1.7,1.8,2.9,2.2c1.2,0.3,2.5,0.1,3.5-0.5c1-0.6,1.8-1.7,2.1-2.9c0.3-1.2,0.2-2.4-0.4-3.5
			c-2.1-4.2-8.5-3.9-10.8-0.1c-2.4,4.1,0.2,9.1,4.4,10.6c1.6,0.5,3.2,0.6,4.8,0.2c1.6-0.4,3-1.2,4.2-2.4c1.2-1.4,2-3.2,2.1-5
			c0.1-1.9-0.4-3.7-1.5-5.2c-2.5-3.5-7.4-4.9-10.7-1.6c-1.2,1.2-2,2.8-2.2,4.4c-0.2,1.7,0.1,3.4,0.9,4.9c1,1.7,2.7,2.8,4.6,3.3
			c1.9,0.5,3.9,0.2,5.6-0.8c1.8-1,3.1-2.6,3.6-4.5c0.6-1.9,0.4-4-0.6-5.8c-1-1.9-2.8-3.3-4.8-4c-2.1-0.7-4.3-0.5-6.3,0.4
			c-1.8,1-3.2,2.5-4,4.4c-0.8,1.9-1,4-0.4,5.9c0.2,0.6,0.4,1.1,0.8,1.6c0.4,0.5,0.8,0.9,1.4,1.2c0.5,0.3,1.1,0.5,1.7,0.6
			c0.6,0.1,1.2,0,1.8-0.1s1.1-0.4,1.6-0.8c0.5-0.4,0.9-0.8,1.2-1.4c0.3-0.5,0.5-1.1,0.6-1.7C311.4,334.2,311.4,333.6,311.1,333
			L311.1,333z"/>
		<path d="M350.9,333C350.7,332.1,350.9,333.5,350.9,333c0-0.6-0.1,0.8,0,0.1C351.1,332.5,350.6,333.8,350.9,333
			c-0.1,0.4-0.4,0.6,0,0.2c-0.4,0.3-0.5,0.4-0.2,0.2c0.3-0.2,0.2-0.1-0.1,0c-0.4,0.1-0.8,0.1-1.2,0.1c0.5,0,0.4,0.2,0,0l-0.3-0.3
			c0.3,0.3,0.4,0.4,0.2,0.1c-0.2-0.3-0.3-0.6-0.3-1.1s0.2-0.7,0-0.2c0.2-0.4,0.4-0.7,0.7-1.1c0.3-0.5-0.4,0.2,0.1,0
			c0.5-0.2,0.3-0.1-0.1,0l0.6-0.1c0.4,0,0.7,0.1,1.1,0.3c0.4,0.3,0.7,0.6,0.9,1.1c0.1,0.2,0.1,1.3,0.2,0.6c0,0.2-0.1,1,0,0.3
			l-0.2,0.5c0.2-0.3,0.2-0.4,0,0c-0.5,0.5-1.1,0.8-1.8,0.9c-0.7,0.1-1.4-0.1-2-0.5c0.5,0.4,0.1,0.2,0-0.1c0.4,1.1-0.1-0.7,0.1,0
			c0.1,0.5,0.2-1,0,0c0-0.3,0.1-0.7,0.3-1c-0.3,0.7,0.2-0.1,0.3-0.3c0.1-0.2,0.3-0.2,0.1-0.1c-0.2,0.1-0.2,0.1,0.4-0.1
			c-0.6,0,0,0,0.2,0c-0.3,0-0.9-0.2-0.4,0c0.8,0.5-0.5-0.5,0.2,0c0.3,0.2,0.7,0.3,0.9,0.7c0.1,1.1-0.1,2.1-0.7,3
			c-1.1,1.4-4.1,0.9-4.8-0.6c0.6,1.1,1.7,1.8,2.9,2.2c1.2,0.3,2.5,0.1,3.5-0.5c1-0.6,1.8-1.7,2.1-2.9c0.3-1.2,0.2-2.4-0.4-3.5
			c-2.1-4.2-8.5-3.9-10.8-0.1c-2.4,4.1,0.2,9.1,4.4,10.6c1.6,0.5,3.2,0.6,4.8,0.2c1.6-0.4,3-1.2,4.2-2.4c1.2-1.4,1.9-3.2,2-5
			c0.1-1.9-0.4-3.7-1.5-5.2c-2.5-3.5-7.4-4.9-10.7-1.6c-1.2,1.2-2,2.8-2.2,4.5c-0.2,1.7,0.1,3.4,0.9,4.9c1,1.7,2.7,2.8,4.6,3.3
			c1.9,0.5,3.9,0.2,5.6-0.8c1.8-1,3.1-2.6,3.6-4.5c0.6-1.9,0.4-4-0.6-5.8c-1-1.9-2.8-3.3-4.8-4c-2.1-0.7-4.3-0.5-6.3,0.4
			c-1.8,1-3.2,2.5-4,4.4c-0.8,1.9-1,4-0.4,5.9c0.3,1.2,1.1,2.2,2.2,2.8c1.1,0.6,2.3,0.8,3.5,0.5c1.2-0.3,2.2-1.1,2.8-2.2
			C351.1,335.5,351.3,334.2,350.9,333L350.9,333z"/>
		<path d="M272.7,379c1.2,3,4.8,4.8,7.3,6.7c2.6,2.2,5.7,3.6,9.1,4.3c2.4,0.4,3.4-3.3,1-3.7c-2.5-0.5-4.9-1.5-7-3
			c-1-0.7-1.9-1.4-2.9-2.1c-1-0.7-3.3-1.9-3.8-3.1C275.5,375.7,271.8,376.6,272.7,379L272.7,379z"/>
		<path class="st2" d="M204.3,448.9c-5,41.6,7.8,84.7,31.9,118.7c8.2,11.6,17.5,22.3,32.3,24.5c15.9,2.5,32.9-1,48.2-4.6
			c17.5-4.1,35.8-8.7,51.8-17.1c8.9-4.7,14.6-13.9,10.7-24.1c-3.3-8.5-15.2-15.4-24.1-10.7c-11.5,6.1-24.4,10-36.9,13.4
			c-1.8,0.5-3.6,1-5.4,1.4c-0.7,0.2-3.5,0.8,0,0c-0.8,0.2-1.6,0.4-2.4,0.5c-3.9,0.8-7.7,1.7-11.7,2.4c-7,1.3-13.9,1.8-20.9,2.3
			c-1.1,0.1-2.1-0.1-3.1-0.5c-1-0.4-1.8-1.1-2.4-2c-1-1.1-1.9-2.3-2.8-3.5c-4.1-5.5-7.8-11.2-11.2-17.2c-0.1-0.2-1.4-2.5-0.4-0.7
			s-0.5-1-0.7-1.5c-0.9-1.7-1.7-3.5-2.6-5.2c-1.9-4-3.6-8-5.1-12c-3.5-8.7-6-17.8-7.4-27.1c-0.8-5.2-1.4-10.5-1.6-15.8
			c0-1.3,0-2.7-0.1-4v-2c0,1.3,0,1.2,0-0.1c0.2-3.1,0.4-6.2,0.8-9.3c1.2-10-5.2-19.7-15.5-21.4C216.1,432,205.5,438.9,204.3,448.9
			L204.3,448.9z"/>
		<path class="st4" d="M709.6,542.5c1,84.3,0.7,168.7-0.9,253c-6,0.1-11.9,1-17.6,2.7c-10,3.2-22.7,10.7-22.8,22.6
			c-0.3,24.6,42.3,20.2,57.2,16.3c0.8-0.2,1.5-0.5,2.3-0.8c7.2-1.2,13.6-6.5,13.8-15.8c2-92.7,2.5-185.3,1.4-278
			C742.7,521.1,709.3,521,709.6,542.5z"/>
		<path class="st4" d="M878.6,827.5c-0.7-2.9-1.3-5.9-1.9-8.8c0-0.1,0-0.2,0-0.2c-18.2-83.4-30.5-167.9-36.8-253
			c-0.7-9-7.2-16.7-16.7-16.7c-8.5,0-17.3,7.7-16.7,16.7c5.9,81.9,17.3,163.4,34,243.8c-3.3,0.7-6.6,1.6-9.8,2.9
			c-9.8,3.9-21.9,11.9-21.9,23.8c0,25.5,42.9,17.8,57.3,12.5c0.3-0.1,0.5-0.2,0.8-0.3C876,845.6,880.6,836.4,878.6,827.5z"/>
		<path class="st4" d="M682.3,428.6c-30.9-65.9-58.7-132.9-80.6-202.4c-6.7-21.2-13-42.6-19-64c-6.5-23.1,29.4-33,36-9.9
			c12.6,44.6,26.2,88.9,42.4,132.3s33.6,82.8,53.4,125.2c4.3,9.1,2.6,20.1-6.7,25.5C699.8,440,686.6,437.8,682.3,428.6L682.3,428.6z
			"/>
		<path class="st5" d="M658.4,344c-13.5,21.5-27.1,43.1-35.7,67c-3.9,11.1-6.5,26.2-2.2,41c5.1,17.4,36.1,108.5,131.2,143.4
			c29.4,10.8,114.8-12.1,144.6-31.5c29.8-19.4,67.3-59.8,66.7-95.3c-0.7-42.4-33.7-76-60.3-109c-46-57.1-83.6-130.9-99.5-204.3
			c-0.5-2.6-1.8-5-3.8-6.9c-1.9-1.9-4.4-3.1-7-3.6c-2.6-0.5-5.4-0.1-7.8,1c-2.4,1.1-4.5,2.9-5.9,5.2
			C749.1,198.7,691,292.2,658.4,344z"/>
		<path d="M795.2,263.5c0.5-1.8,0.4-3.8-0.3-5.5c-0.7-1.8-1.8-3.3-3.4-4.4c-1.6-1-3.5-1.5-5.4-1.3c-1.9,0.2-3.6,1-5,2.4
			c-1.4,1.4-2.3,3.3-2.4,5.3c-0.1,2,0.6,4,1.9,5.5c1.2,1.4,2.9,2.3,4.7,2.6c1.8,0.3,3.7-0.1,5.2-1c1.6-1.1,2.7-2.7,3.1-4.6
			c0.4-1.9,0.1-3.8-0.9-5.4c-0.4-0.8-1.1-1.5-1.8-2.1c-0.7-0.6-1.6-1-2.5-1.2c-0.9-0.2-1.8-0.3-2.7-0.1c-0.9,0.1-1.8,0.5-2.6,1
			c-1.6,1-2.8,2.5-3.4,4.2c-0.7,1.7-0.7,3.6-0.2,5.4c0.6,1.7,1.7,3.2,3.2,4.2c1.5,1,3.3,1.5,5.1,1.4c4.6-0.2,8.8-4.5,7.5-9.3
			c-1.3-5-9-6.7-11.5-1.6c-0.6,1.1-0.8,2.3-0.4,3.5c0.3,1.2,1.1,2.2,2.1,2.9c2.1,1.1,5.2,0.7,6.4-1.7l-2,1.4
			c-0.4,0.1-0.8,0.2-1.2,0.1c-0.4-0.1-0.8-0.2-1-0.5c-0.4-0.1-0.7-0.4-0.8-0.7c-0.2-0.3-0.3-0.7-0.2-1.1c-0.2-0.2-0.4-0.4-0.4-0.7
			c-0.1-0.3,0-0.6,0.1-0.8c0.1-0.3,0.4-0.6,0.7-0.8c0.3-0.2,0.8-0.2,0.2-0.1c1.1-0.2,0.4,0,0.1,0c-0.7,0,1.2,0.1,0.1,0
			c0.3,0,0.7,0.4,0.2,0c0.2,0.1,0.9,1,0.7,0.6c-0.2-0.4-0.1-0.2,0,0c0.1,0.2,0.2,0.5,0.2,0.8c-0.1-0.5,0-0.2,0,0.2
			c0.2-0.8-0.2,0.5,0,0s-0.5,0.6-0.1,0.1c0.4-0.5-0.5,0.3-0.7,0.4l-2.4-0.3l-0.5-0.4c-0.4-0.5-0.4-0.7-0.3-0.4
			c0.2,0.3,0.1,0.2,0-0.1c-0.1-0.3-0.1-0.4-0.1-0.1c0.1,0.2,0.1,0.2,0-0.5c0,0.6,0-0.1,0.1-0.3c0.1-0.5,0.4-0.9,0.8-1.2
			c0.3-0.2,0.6-0.4,1-0.4c0.3,0,1.3,0.1,0.5,0c0.3,0.1,0.6,0.4,0.2,0c0.3,0.3,0.6,0.6,0.8,0.9c0.1,0.3,0.1,0.3,0,0.1
			c-0.1-0.2-0.1-0.2,0.1,0.3c0,0.3-0.1,0.6-0.2,0.9c-0.3,0.4-0.4,0.4-0.1,0.2c0.2-0.2,0.2-0.2,0,0c-0.2,0.2-0.9,0.2-0.2,0.2
			c-0.3,0-0.6,0-0.9,0l-0.4-0.2c0.4,0.2,0.4,0.2,0.1,0c-0.6-0.4,0.3,0.5-0.1,0c-0.2-0.3-0.2-0.2,0,0.1l-0.2-0.4l0.1,0.4v-0.5
			c-0.3,1.2,0.3-1,0,0.2c-0.3,1.2-0.2,2.5,0.4,3.5c0.6,1.1,1.6,1.9,2.8,2.2c1.2,0.3,2.5,0.2,3.5-0.4
			C794.1,265.8,794.9,264.8,795.2,263.5L795.2,263.5z"/>
		<path d="M755.3,263.5c0.5-1.8,0.4-3.8-0.3-5.5c-0.7-1.8-1.8-3.3-3.4-4.4c-1.6-1-3.5-1.5-5.4-1.3c-1.9,0.2-3.6,1-5,2.4
			c-1.4,1.4-2.3,3.3-2.4,5.3c-0.1,2,0.6,4,1.9,5.5c1.2,1.4,2.9,2.3,4.7,2.6c1.8,0.3,3.7-0.1,5.2-1c1.6-1.1,2.7-2.7,3.1-4.6
			c0.4-1.9,0.1-3.8-0.9-5.5c-0.4-0.8-1.1-1.5-1.8-2.1c-0.7-0.6-1.6-1-2.5-1.2c-0.9-0.2-1.8-0.3-2.7-0.1c-0.9,0.1-1.8,0.5-2.6,1
			c-1.6,1-2.8,2.5-3.4,4.2c-0.7,1.7-0.7,3.6-0.2,5.4c0.6,1.7,1.7,3.2,3.2,4.2c1.5,1,3.3,1.5,5.1,1.4c4.6-0.2,8.8-4.5,7.5-9.3
			c-1.3-5-9-6.7-11.5-1.6c-0.6,1.1-0.8,2.3-0.4,3.5c0.3,1.2,1.1,2.2,2.1,2.9c2.1,1.1,5.2,0.7,6.4-1.7l-2,1.4
			c-0.4,0.1-0.8,0.2-1.2,0.1c-0.4-0.1-0.8-0.2-1-0.5c-0.4-0.1-0.7-0.4-0.8-0.7c-0.2-0.3-0.3-0.7-0.2-1.1c-0.2-0.2-0.4-0.4-0.4-0.7
			c-0.1-0.3,0-0.6,0.1-0.8c0.1-0.3,0.4-0.6,0.7-0.8c0.3-0.2,0.8-0.2,0.2-0.1c1.1-0.2,0.4,0,0.1,0c-0.7,0,1.2,0.1,0.1,0
			c0.3,0,0.7,0.4,0.2,0c0.2,0.1,0.9,1,0.6,0.6c-0.2-0.4-0.1-0.2,0,0c0.1,0.2,0.2,0.5,0.2,0.8c-0.1-0.5,0-0.2,0,0.2
			c0.2-0.8-0.2,0.5,0,0c0.2-0.5-0.5,0.6,0,0.1c0.5-0.5-0.5,0.3-0.7,0.4l-2.4-0.3l-0.5-0.4c-0.4-0.5-0.4-0.7-0.2-0.4
			c0.2,0.3,0.1,0.2,0-0.1c-0.1-0.3-0.1-0.4-0.1-0.1c0.1,0.2,0.1,0.2,0-0.5c0,0.6,0-0.1,0-0.3c0.1-0.5,0.4-0.9,0.8-1.2
			c0.3-0.2,0.6-0.4,1-0.4c0.3,0,1.3,0.1,0.5,0c0.4,0.1,0.6,0.4,0.2,0c0.3,0.3,0.6,0.6,0.8,0.9c0.1,0.3,0.1,0.3,0,0.1
			c-0.1-0.2-0.1-0.2,0,0.3c0,0.3-0.1,0.6-0.2,0.9c-0.3,0.4-0.4,0.4-0.1,0.2c0.2-0.2,0.2-0.2,0,0c-0.2,0.2-0.9,0.2-0.2,0.2
			c-0.3,0-0.6,0-0.9,0l-0.4-0.2c0.4,0.2,0.4,0.2,0.1,0c-0.5-0.4,0.3,0.5-0.1,0c-0.2-0.3-0.2-0.2,0,0.1l-0.2-0.4l0.1,0.4v-0.5
			c-0.3,1.2,0.3-1,0,0.2c-0.3,1.2-0.2,2.5,0.4,3.5c0.6,1.1,1.6,1.9,2.8,2.2c1.2,0.3,2.5,0.2,3.5-0.4
			C754.2,265.8,755,264.8,755.3,263.5L755.3,263.5z"/>
		<path d="M820.8,306c-0.5,1.2-2.8,2.3-3.8,3.1c-1,0.8-1.9,1.5-2.9,2.1c-2.1,1.6-4.4,2.6-7,3.1c-2.4,0.4-1.4,4,1,3.7
			c3.4-0.6,6.5-2.1,9.1-4.3c2.5-1.8,6.1-3.7,7.3-6.7C825.5,304.7,821.8,303.7,820.8,306L820.8,306z"/>
		<path class="st4" d="M892.9,378.3c5,41.6-7.8,84.7-31.9,118.7c-8.2,11.6-17.5,22.3-32.3,24.5c-15.9,2.5-32.9-1-48.2-4.6
			c-17.5-4.1-35.8-8.7-51.8-17.1c-8.9-4.7-14.6-13.9-10.7-24.1c3.3-8.6,15.2-15.4,24.1-10.7c11.5,6.1,24.4,10,36.9,13.4
			c1.8,0.5,3.6,1,5.4,1.4c0.7,0.2,3.5,0.8,0,0c0.8,0.2,1.6,0.4,2.4,0.5c3.9,0.8,7.7,1.7,11.7,2.4c7,1.2,13.9,1.7,20.9,2.3
			c1.1,0.1,2.1-0.1,3.1-0.5c1-0.4,1.8-1.1,2.4-2c1-1.1,1.9-2.3,2.8-3.5c4.1-5.5,7.9-11.2,11.2-17.2c0.1-0.2,1.3-2.5,0.4-0.7
			c-0.9,1.9,0.5-1,0.7-1.4c0.9-1.7,1.7-3.5,2.6-5.2c1.9-3.9,3.6-8,5.1-12c3.5-8.7,6-17.8,7.4-27.1c0.8-5.2,1.4-10.5,1.6-15.8
			c0-1.3,0.1-2.7,0.1-4v-2c0,1.3,0,1.2,0-0.1c-0.2-3.1-0.4-6.2-0.8-9.3c-1.2-10,5.2-19.7,15.4-21.4
			C881.2,361.3,891.7,368.2,892.9,378.3L892.9,378.3z"/>
	</g>
</g>
</svg>
