<?xml version="1.0" encoding="utf-8"?>
<!-- Generator: Adobe Illustrator 25.4.1, SVG Export Plug-In . SVG Version: 6.00 Build 0)  -->
<svg version="1.1" id="Layer_1" xmlns="http://www.w3.org/2000/svg" xmlns:xlink="http://www.w3.org/1999/xlink" x="0px" y="0px"
	 viewBox="0 0 1080 1080" style="enable-background:new 0 0 1080 1080;" xml:space="preserve">
<style type="text/css">
	.st0{clip-path:url(#SVGID_00000168084822118384355150000010136196443235544254_);}
	.st1{fill:#FFFFFF;}
	.st2{fill:#03BBDB;stroke:#1D1935;stroke-width:2.6;stroke-miterlimit:10;}
	.st3{fill:#03BBDB;}
	.st4{fill:#1D1935;}
	.st5{fill:#06485E;stroke:#222221;stroke-width:3;stroke-miterlimit:10;}
	.st6{fill:#03BBDB;stroke:#1D1935;stroke-width:2.4;stroke-miterlimit:10;}
	.st7{fill:#096E8D;stroke:#1D1935;stroke-width:2.6;stroke-miterlimit:10;}
	.st8{fill:#1E1A35;}
	.st9{fill:#096E8D;stroke:#1D1935;stroke-width:3;stroke-miterlimit:10;}
	.st10{fill:#06485E;}
</style>
<g>
	<defs>
		<rect id="SVGID_1_" width="1080" height="1080"/>
	</defs>
	<clipPath id="SVGID_00000009551009423788590080000009974654606861406349_">
		<use xlink:href="#SVGID_1_"  style="overflow:visible;"/>
	</clipPath>
	<g style="clip-path:url(#SVGID_00000009551009423788590080000009974654606861406349_);">
		<path class="st1" d="M1052.6,672.3c-0.1-1-0.3-1.9-0.5-2.9c-0.1-0.6-0.2-1.1-0.4-1.7c-8.2-36.5-42.8-68.9-79.5-75.5
			c-19.2-3.5-38.6-1.7-56.2,6.6c0-0.3,0.1-0.5,0.2-0.8c1.9-8.6,4.2-17.1,6.8-25.5c11.9-38.5,27.8-75.5,39.1-114.2
			c11.1-37.7,19.2-77,12.7-116.3c-6-35.8-29.2-66.2-60.4-84.1c-30.5-17.5-71.2-26.3-105.5-15c-11.3-3.7-22.7-6.1-35-4.7
			c-5.4,0.6-10.8,1.4-16,2.4l-3.8,0.7H754c-6.5-1-12.6-1.8-19.2,0.2c-6.1,1.9-11.5,5.7-15.4,10.7c-3.9,5.1-6.1,11.3-6.3,17.7
			c-10.8,4.1-20,10.8-23,23.3c-5.5,22.1,13.3,41,34.9,39.9c1.3,2.2,2.8,4.2,4.6,6c1.7,4.9,4.5,9.3,8.1,13c0.9,0.9,1.9,1.8,2.9,2.6
			c3.3,41,34.3,78.9,74.3,88.8c20,4.9,41,3.4,60.1-4.4c-4.4,14.2-9.3,28.3-14.2,42.2c-10.1,28.5-21.2,56.7-28.6,86
			c-1,4.1-2,8.2-2.8,12.3c0.3-8.8,0.2-17.7-0.3-26.5c-1.2-31.1-9-65.1-27.6-90.8c-10.3-14.4-22.4-26.8-37.6-35.9
			c-3.3-1.9-6.7-3.7-10.1-5.2c-0.8-0.3-11.3-4-3.7-1.7c-3.6-1.1-6.9-3-10.3-4.4c-7.1-2.8-14.5-4.8-22.1-6
			c-9.7-1.6-19.6-2.3-29.5-2.2c-0.2-1.8-0.5-3.6-0.9-5.4c-2-9.5-3.7-19.5-6.4-28.7c-1.7-5.9-5-11.3-9.4-15.7
			c-4.4-4.3-9.9-7.4-15.9-9c-6-1.6-12.3-1.6-18.3-0.1c-6,1.6-11.5,4.6-15.9,8.9c-15.6,14.8-10.4,36.1-5.5,55.1
			c-4.1-3.8-8.6-7.3-12.5-11.1c-7.9-7.6-14.7-17.2-25.8-20.4c-6.1-1.7-12.5-1.8-18.6-0.3c-6.1,1.5-11.7,4.6-16.3,9
			c-8.9,8.6-13.7,22.7-10.2,34.8c3.1,10.8,10.7,18.4,18.5,26c6.8,6.7,14.4,14.5,22.5,19.5c-3.5,5.1-6.7,10.4-9.6,16
			c-3.5-8.2-7.9-16-13.1-23.2c-10.3-14.4-22.4-26.8-37.6-35.9c-3.3-1.9-6.6-3.7-10.1-5.2c-0.8-0.3-11.3-4-3.7-1.7
			c-3.6-1.1-6.9-3-10.3-4.4c-7.1-2.8-14.5-4.8-22.1-6c-17.1-2.9-34.6-3.1-51.8-0.4l0.3-0.8c1.8-5.9,1.8-12.1,0.2-18
			c0.6-4.8,0.2-9.6-1.3-14.3c0-0.5,0-1-0.1-1.5c5.5-5.7,9.2-12.5,9.4-21.3c0.1-4.2-0.8-8.3-2.4-12.2c-1.6-3.8-4.1-7.3-7.1-10.1
			c-9.2-8.8-19.6-9.7-30.1-6.9c-4.7-3.5-10.3-5.5-16.1-5.8c-5.8-0.3-11.6,1.1-16.6,4c-1.2,0.7-7.5,5.2-9.6,8.3
			c1.5-2,4.4-2.2,1.1-0.3c-0.5,0.3-1,0.6-1.5,0.9c-0.1,0.2-0.2,0.4-0.3,0.6c0.1-0.2,0.1-0.4,0.3-0.6c-1.1,0.6-2.2,1.3-3.3,1.9
			c-8.8,5.4-16.7,11.5-22.4,20.2c-2.5,3.7-4.8,7.5-6.9,11.4c-4.6,8.5-9.4,18.7-11.2,28.9c-5.1,4.3-10.1,8.6-15.1,12.9
			c-1.4-6.4-2.9-12.8-4.5-19.1c-7.1-27.3-16.4-55.5-31.7-79.4c-8.3-13-18.3-24.4-31.1-33c-13.3-9-30-12.2-45.8-10.9
			c-21,1.8-42.7,8.1-57.3,24.2c-10.5,11.6-17.3,26.1-19.6,41.6c-3,19.2-2.8,38.2-2.5,57.6c0.2,17.1,0.1,34.1-0.9,51.2
			c-15.7,10.5-26.9,27.1-33.8,44.8c-5.7,14.9-8.1,30.9-7.1,46.9c-3.5,2.2-6.8,4.8-9.7,7.7c-12.1,12.1-16.5,31-8.2,46.5
			c2.5,4.8,6,9,10.2,12.4c4.3,3.3,9.2,5.7,14.4,7c0.3,3.5,0.6,7,1.2,10.6c2.4,14,7.2,27.5,14.3,39.9c10.5,18.9,26,34.6,44.8,45.4
			c-2.8,17.2-5,34.6-6.5,52c-1.1,12.4-3.6,26.8-0.2,38.9c4.8,16.5,19,25.2,34.1,30.8c25.3,9.4,56.7-1.3,63.7-27.7
			c1.5,3.3,3.5,6.3,5.8,9.1c-6.7-8,1.2,1.9,3.6,4.1c4.1,3.8,9.1,6.6,14.4,8.3c6.3,2,12.9,3.1,19.5,3.4c14.5,0.9,29.8-3.5,40.6-13.4
			c11.4-10.6,16.8-27.5,11.6-42.5c-2.4-7.1-6.5-13.6-12-18.7c-5.5-5.1-12.2-8.9-19.5-10.8c-1.8-0.5-3.7-0.8-5.6-1.1
			c-1-4.9-1.9-9.9-2.8-14.9c-0.9-5-1.6-9.9-2.4-14.9c10-5.5,18.8-12.8,25.9-21.7c7.1-8.9,12.4-19,15.6-30
			c7,26.3,20.4,50.4,41.3,68.8c12.2,10.8,26.2,20.7,41.7,26.1c14.5,5.1,30.5,4.7,45.7,4.8c14.5,0.1,29,0.1,43.4-0.9
			c14.9-1,28.6-2.9,41.8-10.3c22.8-12.8,37.7-36,47.1-60.5c7.5,15.5,18,29.4,30.9,40.8c12.3,10.8,26.2,20.7,41.7,26.1
			c14.5,5.1,30.5,4.7,45.6,4.8c14.5,0.1,29,0.1,43.4-0.9c14.9-1,28.7-2.9,41.8-10.3c29.9-16.8,46.3-51.5,54.4-83.6
			c0.3-0.8,0.5-1.7,0.6-2.5c0.2-1.5,0.5-3.1,0.8-4.6c0.1,3.9,0.4,7.8,0.9,11.7c4,32.9,20.5,62.8,44.7,84.9c0.3,2.4,0.6,4.8,1,7.1
			c0.8,4.5,1.9,9,3.4,13.3c2.5,7.6,5.8,14.9,9.9,21.7c1.7,2.6,4,4.8,5.6,7.3c-5.5-8.5,1,1.2,2.6,2.9c6.3,6,14.6,9.4,23.3,9.4
			c2,0,4-0.2,6-0.5c6.1,2,12.7,2.3,19,0.9l1.2,0.2c2.3,0.3,4.6,0.4,6.9,0.3c2.5,4.1,5.7,7.7,9.4,10.7c4.4,3.4,9.6,5.7,15.1,6.4
			c5.5,0.8,11.1,0.1,16.3-2.1c4.4-1.9,8.4-4.7,11.6-8.2c3.2-3.6,5.6-7.8,7-12.4c2.1-6.4,1.4-13.1-0.2-19.4c3.6-2.6,6.6-6,8.8-9.8
			c2.2-3.9,3.5-8.2,3.8-12.6c10.2-7.1,18.7-16.2,24.9-26.9C1053.5,714,1055.7,693.2,1052.6,672.3z M299,524.8
			c-1.1-11.5-2.3-22.9-3.6-34.3c11.6-10.6,23.4-21,35.3-31.2c-1.3,1.6-2.6,3.2-3.9,4.9C313,482.2,304.1,502.9,299,524.8z
			 M629.8,387.9c-0.1-0.4-0.3-0.7-0.4-1.1C629.5,386.8,629.7,387.3,629.8,387.9z M181.2,742.9c0.5-5.3,1.2-10.6,2-15.9
			c-1,6.5,0.5-3.4,0.7-4.5c0.4-2.8,0.9-5.6,1.3-8.4c1.2-0.1,2.4-0.3,3.7-0.5h0.5c1.9,13.5,4.2,27,6.9,40.4
			C192,749.4,186.9,745.7,181.2,742.9L181.2,742.9z M896.7,765.7c-0.2,0.5-0.5,1-0.7,1.6C896.2,766.7,896.4,766.2,896.7,765.7
			L896.7,765.7z M755,241.2c-0.2,0-0.4,0-0.6,0h-0.1H755z M753.8,241.2l-0.9,0.2C750.5,241.9,746.5,241.5,753.8,241.2L753.8,241.2z"
			/>
		<path class="st1" d="M341.7,330.3c-0.1,0.2-0.2,0.4-0.3,0.6l0,0C341.5,330.7,341.6,330.5,341.7,330.3L341.7,330.3z"/>
		<path class="st2" d="M275.9,768.5c-6.1-12.4-20.6-12.8-31.9-7.2c-6.5-27.4-11.1-55.1-13.7-83.1c-1.1-11.7-19.6-11.8-18.5,0
			c3.1,34.7,9.1,69,18,102.7c0.4,1.4,1.1,2.7,2.2,3.8c0.5,1.1,1.3,2,2.2,2.7c0.9,0.8,2,1.3,3.1,1.7c8.3,2.8,18.5,3.6,27,0.8
			C273.3,787,280.5,778,275.9,768.5z"/>
		<path class="st2" d="M181.3,781.8c-0.6-9.6-10.3-15.9-19-17.4c-3.1-0.5-6.3-0.6-9.5-0.1c1.9-28,5.7-55.9,11.5-83.4
			c2.4-11.6-15.4-16.5-17.8-4.9c-7.2,34-11.6,68.6-13,103.4c0,1.2,0.2,2.5,0.7,3.6c0.6,2.6,2.2,4.8,4.4,6.3
			c7.1,5.1,16.6,8.7,25.5,8.5C173.2,797.7,181.9,791.7,181.3,781.8z"/>
		<path class="st2" d="M124.6,462.2c-1.2-4.4-6.7-8.3-11.4-6.4c-21.6,8.6-33.6,29.7-37,51.9c-1.8,11.5-2.4,26.6,2.5,38.5
			c-5,1.1-9.8,2.8-14.4,5.1c-7.3,3.7-15.4,12.5-10.2,21.1c5.2,8.6,17.7,7,25.5,3.4c4.1-1.9,7.9-4.3,11.3-7.2
			c1.4-1.3,2.6-2.7,3.7-4.3c1-0.5,1.9-1.1,2.6-1.9c1.7-0.8,3-2.1,3.8-3.8c3.5-4,4-10.7-1.7-14.4l-0.3-0.2c-0.4-0.3-0.7-0.7-1-1
			l-0.1-0.2c-0.1-0.1-0.1-0.2-0.3-0.4c-0.3-0.6-0.7-1.2-1-1.8c-0.5-0.8-0.9-1.8-1.1-2.8c-0.5-1.7-1-3.5-1.3-5.3
			c-1.2-5.8-1.1-14.3,0-21.1c2.3-14.4,9.2-31.9,23.9-37.8C122.8,471.7,126.1,467.4,124.6,462.2z"/>
		<path class="st3" d="M105,505.3c28-104.4-8.3-176.3,33.7-205.1c13.4-9.2,35-11.3,46.9-9.2c53,9.5,73.4,129.3,77.4,155.5
			c10.1,65.9,17.4,166.2,14.6,187.8c-1.8,13.8-14.4,45.2-47.3,49.5c-18.2,2.4-34.6,2.1-43.3,3.4c-30.7,4.5-61.8-6.3-81.8-30
			c-17.2-20.4-26.1-46.3-23.7-71.7C84.7,549,95.4,541.2,105,505.3z"/>
		<path class="st4" d="M106.7,505.8c10.4-39.4,12.3-79.5,11.8-120c-0.2-14.6-0.7-29.4,0.9-44c1.3-11.6,4.3-23.7,12.1-32.8
			c11.1-12.9,29.5-17.3,45.9-16.9c12.6,0.3,23.1,5.6,31.9,14.4c19.1,19.1,29.1,47,36.7,72.2c16.7,55.1,22,113.5,26.6,170.6
			c1.4,16.8,2.5,33.5,3.2,50.2c0.4,10.8,1.1,21.7,0.1,32.5c-1,11.5-6.4,23-13.8,31.9c-13.5,16.3-32.1,18.7-52.2,19.9
			c-19,1.2-38.4,4.6-57.2,0.3c-20.7-4.8-38.9-17-51.2-34.3c-13-18-20.2-40.1-18.6-62.4c1.3-18.9,7.2-35.7,14.1-53
			C100.8,525.1,104,515.5,106.7,505.8c0.1-0.5,0-1-0.3-1.4c-0.2-0.4-0.6-0.7-1.1-0.8c-0.5-0.1-0.9-0.1-1.3,0.2
			c-0.4,0.2-0.7,0.6-0.9,1c-5.1,18.8-14.1,36.2-19.3,54.9c-5.7,20.6-6.8,42.5-0.2,63c12.8,39.8,48.8,68,91.1,67.2
			c9.7-0.2,19.4-1.7,29.1-2.2c11-0.6,22.6-0.7,33.3-3.6c14.9-3.9,26.9-14.5,34.3-27.8c11.8-21.2,8.5-46.4,7.2-69.7
			c-2.1-39.5-5.8-79-11-118.2c-2.9-24-7.3-47.7-12.9-71.2c-7-27.9-16.1-57.1-32.7-81c-6.7-9.5-14.9-18.5-25.5-23.6
			c-13.4-6.4-30-5.1-43.8-1c-13,3.9-24.1,11.9-30.2,24.1c-5.5,11-7,23.6-7.6,35.8c-0.9,17.3,0,34.6,0,51.9
			c0.2,21.7-1.2,43.4-4.2,64.9c-1.9,12.2-4.4,24.4-7.6,36.3c-0.1,0.5-0.1,1,0.2,1.4c0.2,0.4,0.6,0.8,1.1,0.9c0.5,0.1,1,0.1,1.4-0.2
			C106.3,506.7,106.6,506.3,106.7,505.8z"/>
		<path class="st5" d="M1026.4,676.4c-3.8-20.4-18.9-38.1-36.2-48.9c-21.2-13.2-47.5-14.8-69-1.3c-16.3,10.3-27,24-32,44.3
			c-1.7-3.5-2.9-7.1-3.6-11c-0.8-3.5-1.2-7.2-1.2-10.8c-0.1-6.2,0.4-12.5,0.9-18.7c0.8-10.8,2.1-21.5,3.9-32.1
			c0.2-1.2,0.4-2.4,0.6-3.6c0-0.2,0.3-1.3,0.4-2c0.1-0.7,0.4-1.7,0.4-1.9c0.3-1.1,0.5-2.3,0.8-3.4c1.1-4.7,2.3-9.4,3.6-14
			c2.5-8.9,5.4-17.6,8.5-26.4c12.5-35.4,26.2-70.4,36-106.7c10-36.9,18.6-80.7,1.7-116.9c-18.7-40.2-67.6-61.6-110.4-58.2
			c-25.8,2-42.4,20.6-52.7,42.7c-5,10.8-9.1,22.3-10.7,34.1c-1.7,12.5,1.8,24.2,6.9,35.4c10.6,23.6,30.5,38.8,56.3,42.2
			c20.2,2.6,42-4.6,55.9-19.7c14.6-15.8,19.5-34.2,16.4-55.4c-1.3-8.3-3.9-16.4-7.7-23.8c1,0.9,1.9,1.8,2.9,2.8
			c1.6,1.6,3.1,3.3,4.5,5.1c0.7,0.9,1.4,1.8,2.1,2.7c0.1,0.1,0.3,0.4,0.5,0.8c2.1,3.5,3.9,7.1,5.5,10.9c-0.2-0.3,1.1,3.3,1.3,4.2
			c0.5,2.1,1,4.2,1.4,6.3c0.4,2.1,0.7,4.3,0.9,6.5c0.1,0.7,0.2,1.5,0.2,2.3c0,0.3,0.1,1.4,0.1,2.2c0.3,9.3-0.2,18.6-1.5,27.8
			c-0.6,4.6-1.3,9.2-2.2,13.8l-0.3,1.7c-0.1,0.6-0.3,1.7-0.4,2c-0.5,2.4-1.1,4.9-1.7,7.3c-1.9,7.8-4,15.6-6.3,23.3
			c-5.3,17.7-11.1,35.2-17.4,52.6c-13.3,36.9-27.6,73.1-33.2,112.1c-3.1,21.6-6.4,46-0.1,67.2c6.4,21.5,18.8,40.7,35.7,55.5
			c16.6,14.2,38.8,20.6,60.2,23.2c10.3,1.3,21.2,1.9,31.4-0.9c10.8-3,20.7-8.5,29-15.9C1024.4,719.2,1030.4,697.9,1026.4,676.4z
			 M862.4,371.7c-3.3,3.5-7.2,6.5-11.4,8.8c-0.2,0.1-4.1,1.4-4.8,1.5c-7.5,2-15.5,1.2-22.5-2.3c-3.1-1.6-13.6-6.9-19.6-25.3v-0.1
			c-1.2-3.8-1.5-7.8-0.8-11.6c1-5.4,3.2-10.8,5.2-15.9c0.8-2,1.6-3.9,2.4-5.9c0.5-1.1,1-2.2,1.5-3.3c0.3-0.5,0.6-1,0.9-1.6
			c1.2-1.9,2.3-3.8,3.6-5.7c1.4,1.7,3.1,3,5.1,3.9c2,0.9,4.1,1.3,6.3,1.3c2.4-0.1,4.9-0.1,7.3,0.1c1,0.1,2.1,0.2,3.2,0.4l1.1,0.3
			c2.7,0.6,5.2,1.6,7.6,2.9c1.3,0.8,8.2,5.6,11.8,10c3.9,4.7,7.3,15.2,7.6,16.5c0.5,2.5,0.9,5,1.2,7.5c0,0.1,0,0.2,0,0.3
			C868.3,362.9,863,370.8,862.4,371.7z M922.1,694.7c0,0,0-0.1,0-0.2C922.1,694.6,922.1,694.7,922.1,694.7L922.1,694.7z
			 M921.9,692.9C921.8,691.7,921.8,692.1,921.9,692.9L921.9,692.9z M964.4,714.8c-4.9-0.1-9.7-0.5-14.5-1.1
			c-2.4-0.3-4.8-0.7-7.3-1.1l-1.7-0.3c-1.2-0.3-2.3-0.5-3.5-0.8c-4.4-1.1-8.7-2.5-12.9-4.2l-2.6-1.2c0.9-2.9,1.1-5.9,0.6-8.9
			c-0.1-0.8-0.3-1.5-0.3-2.3c0-0.2,0-0.4,0-0.6c0.1-1.9,0.3-11,0.5-12c0-0.2,0.2-1.2,0.3-1.9c0.1-0.7,0.4-1.9,0.5-2.1
			c0.6-2.5,1.4-5,2.5-7.3c7.2-13,17.7-18.8,21-20.2c14.5-6.5,32.2,5,37.8,11.1c13.2,14.4,8.9,26.6,7.8,30.7
			C992.5,692.7,984.3,715.2,964.4,714.8L964.4,714.8z"/>
		<path class="st3" d="M320.3,568.4c-0.5,29.9,0.9,60.3,10.4,87.8c9.6,27.4,32.3,49.2,55.6,61.2c9.7,5,20.7,5.8,34.1,6
			c23.6,0.2,61.4,0.5,74-4.1c32.4-12,49.8-58,53.8-96c3.6-34.4,21-143.2-60.3-179.8c-25.4-11.4-54-13.5-80.7-5.9
			C370,447.9,321.6,488.7,320.3,568.4z"/>
		<path class="st4" d="M318.5,568.4c-0.5,37.5,0.5,80.1,22.8,112c9.4,13.3,21.3,24.7,35.1,33.3c6.7,4.2,13.7,7.9,21.6,9.5
			c8.4,1.8,17.1,1.8,25.6,1.9c16.1,0.1,32.2,0.3,48.2-0.7c12.1-0.8,23.6-2.1,34-8.9c24.5-16.1,36.3-47.8,41.8-75.4
			c3.7-18.5,5.3-38,6.2-56.8c1.1-22.7,0.1-45.8-5.7-67.9c-6.1-23.3-18.1-45.2-37.3-60.3c-26.6-21-62.7-28-95.6-21.3
			c-52.1,10.7-86.5,58.4-94.4,109c-1.3,8.5-2,17-2.2,25.6c0,2.3,3.6,2.3,3.6,0c1-51.8,25.5-105.8,76.2-126
			c30.9-12.3,67.8-9.5,96.8,6.7c21.4,12,36.7,31.4,45.1,54.3c13.6,36.9,10.8,77,6.5,115.3c-3,26.7-9.4,54-25.3,76.2
			c-7.6,10.6-18.3,20.6-31.3,23.7c-13,3.1-27,2.8-40.3,3c-15.6,0.2-32,1.2-47.5-1.1c-16.2-2.4-30.9-12.9-42.6-24
			c-12.4-11.6-22.3-25.8-27.8-41.8c-6.3-18.3-8.8-37.8-9.7-57c-0.5-9.7-0.5-19.5-0.3-29.2C322.1,566.1,318.5,566.1,318.5,568.4z"/>
		<path class="st6" d="M560.6,421.5c8,8.8,16.6,17,25.8,24.5c3.9,3.1,9.3,3.8,13.1,0c3.3-3.3,3.9-9.9,0-13.1
			c-9.2-7.5-17.8-15.7-25.8-24.5C565.6,399.7,552.6,412.8,560.6,421.5L560.6,421.5z"/>
		<path class="st6" d="M637.3,384.7l6.9,31c2.6,11.6,20.4,6.7,17.8-4.9l-6.9-31C652.5,368.2,634.8,373.1,637.3,384.7z"/>
		<path class="st2" d="M255.8,490.6c27.7-25.9,56.2-51,85.5-75.2c9.2-7.6-4-20.6-13.1-13.1c-29.2,24.2-57.7,49.3-85.5,75.2
			C234,485.7,247.1,498.7,255.8,490.6z"/>
		<path class="st7" d="M390.6,349.6c-13.9,6.1-25.6,15.5-34.8,22.1c-0.1,0.1-0.3,0.1-0.4,0.1c-0.1,0-0.3-0.1-0.4-0.2
			c-0.1-0.1-0.2-0.3-0.2-0.4c0-0.1,0.1-0.3,0.1-0.4c3.1-3.9,9.6-11.6,11.5-13.4c4.6-4.4,4.9-10.4,1.5-12.6c-3.3-2.1-6.2,4.3-8.8,6.4
			c-2.7,2.1-10,5.5-16.1,10.7c-3.7,3.2-3.2,3.1-5.9,7.2c-3.3,5.1-16.8,27.2-12.6,36.7c1.2,2.6,6.4,8.8,7.2,10
			c7.3,10.1,24.1,2.3,32.4,0.4c8.4-2.1,16.2-6.1,22.8-11.7c5.1-4.8,2-10.1-3.2-12c2.5-1.9,6.4-5.2,4.9-7.9c-0.7-1.3-1.8-2.4-3.1-3.1
			c5.5-4.9-1.8-12.6-8.7-8.3c-1.8,1.1-3.9,2.6-5.6,3.7c6.8-4.9,16.1-14.7,22.2-19C400.4,353.1,395.9,347.2,390.6,349.6z"/>
		<path class="st7" d="M379,371.7c-5.7,3.5-11.3,6.9-16.3,11.3c-1,1-1.6,2.4-1.7,3.8c-0.1,1.4,0.4,2.8,1.2,3.9
			c2,2.4,4.8,2.7,7.6,1.5l0.6-0.3c0.9-0.4,1.6-1.1,2.1-1.9c4-3,8.1-5.7,12.4-8.2C391.5,377.8,385.5,367.6,379,371.7z"/>
		<path class="st7" d="M388.7,383.8c-0.8-1.3-2.1-2.3-3.6-2.7c-1.5-0.4-3.1-0.2-4.5,0.6c-4.1,2-8.1,4.3-11.9,6.8
			c-4.2,2.8-3.7,9.4,1.4,10.8l0.6,0.2c1.1,0.4,2.4,0.4,3.5-0.1c1.1-0.4,2.1-1.2,2.7-2.2c3.1-1.9,6.3-3.7,9.6-5.3
			C389.5,390.4,390.2,386.4,388.7,383.8z"/>
		<path class="st7" d="M382.8,392.6c-4.3,1.1-8,3.7-12,5.4c-2.9,1.2-3.6,5.6-2.1,8.1c1.8,3,5.2,3.4,8.1,2.1c3.2-1.4,6.4-3.5,9.1-4.2
			C393.2,402.1,390.2,390.8,382.8,392.6z"/>
		<path class="st8" d="M897.8,320c-8.4-10.6-16.4-18.6-28.5-24.9c-14.4-7.4-30.3-12.6-46.5-9.3c-2.8,0.6-1.6,4.9,1.2,4.3
			c16.2-3.3,32.6,2.9,46.6,10.8c10.2,5.7,16.9,13.3,24.1,22.3C896.4,325.5,899.6,322.3,897.8,320L897.8,320z"/>
		<path class="st9" d="M725.6,306.4c10.3-1.3,28.9,0.4,40.6-0.8c-2.9,0.5-6.4,0.8-9.3,1.3c-11.1,1.9-11.6,16.6-1.4,16.6
			c-0.7,2-0.9,4.1-0.3,6.1c0.8,4.2,8,4,12.3,3.7c-3.6,6.8-2,15.1,7.7,15.5c3.9,0.1,20.4-1.2,34.5-8.9c10.3-5.6,35.1-13,33.3-30.2
			c-0.2-2-0.5-13.3-1.7-17c-4.3-13.8-38.7-24.3-46.9-26.5c-6.6-1.8-6-2.2-12.8-2.1c-11.2,0.2-21.8,3.5-26.6,3.7
			c-4.8,0.3-13.7-3.6-15.1,1.5c-1.5,5.3,4.4,11.3,13.2,11.7c3.6,0.2,17.5,2.2,24.3,3.4c0.2,0,0.4,0.1,0.5,0.3
			c0.1,0.2,0.2,0.3,0.2,0.5c0,0.2-0.1,0.4-0.2,0.5c-0.1,0.2-0.3,0.3-0.5,0.3c-15.7,1.6-36.5,2.6-56.6,9.1
			C713.1,297.6,713.8,307.8,725.6,306.4z"/>
		<path class="st9" d="M753.2,307.5c9.1-1.6,18.2-3.3,27.4-3.3c4.1,0,7.4,3.8,7.6,7.6c0.2,4.4-2.6,7.3-6.6,8.6l-0.9,0.3
			c-1.3,0.4-2.6,0.4-3.9-0.1c-6.9,0.3-13.7,1.8-20.5,2.9C745.9,325.4,742.7,309.4,753.2,307.5z"/>
		<path class="st9" d="M754.3,329c-0.9-4.6,2.2-8.4,6.5-9.6c6.1-1.7,12.3-3,18.6-3.9c6.9-1,12.4,6.3,8.4,12.5l-0.5,0.8
			c-0.8,1.4-2.1,2.5-3.7,3.1c-1.5,0.6-3.2,0.7-4.8,0.2c-5,0.8-10,1.9-14.9,3.2C759.6,336.7,755.1,333.2,754.3,329z"/>
		<path class="st9" d="M768.6,332.8c5.4-2.8,11.7-3.6,17.5-5.5c4.2-1.4,8.9,2.5,9.6,6.4c0.9,4.8-2.3,8.2-6.5,9.6
			c-4.6,1.5-9.9,2.3-13.3,4C766.5,352.3,759.2,337.7,768.6,332.8z"/>
		<path class="st8" d="M912.5,738.4c-7.7-10.9-15-21.1-18.7-34.1c-4.3-15.3-4.4-32.5,2.3-47.1c1.2-2.6-2.7-4.9-3.9-2.3
			c-6.7,14.6-7.3,31.3-3.7,46.8c3.5,15,11.4,26.5,20.1,38.9C910.3,743,914.2,740.8,912.5,738.4L912.5,738.4z"/>
		<path class="st9" d="M979.7,790c-5.7-20.3-16.3-38.2-23.6-52.2c-0.1-0.2-0.1-0.4-0.1-0.6c0.1-0.2,0.2-0.4,0.3-0.5
			c0.2-0.1,0.4-0.2,0.6-0.1c0.2,0,0.4,0.1,0.5,0.3c4.7,5,14.1,15.5,16.2,18.4c5.2,7.1,13.4,8.7,17,4.5c3.4-4-4.7-9.3-7.1-13.4
			c-2.4-4.1-5.6-14.8-11.6-24.2c-3.6-5.7-3.7-5.1-8.8-9.6c-6.4-5.6-34.1-28.4-47.9-24.4c-3.8,1.1-13.4,7-15.1,8
			c-15.3,8-7.9,32.7-6.8,44.4c1.4,15.9,9.4,30.5,11.6,33.6c5.7,7.9,13.5,4.7,17.2-2.1c2.1,3.8,6,9.8,9.9,8.2c2-0.7,3.7-1.9,4.9-3.6
			c5.6,8.5,17.6,0,13.1-10.3c-1.2-2.7-2.8-5.8-4-8.5c5.5,10.4,17.1,25,21.7,34.3C973,802.8,981.9,797.8,979.7,790z"/>
		<path class="st9" d="M951.6,769.8c-3.7-8.5-7.3-16.9-12.4-24.7c-2.2-3.4-7.3-4.1-10.5-2.1c-3.8,2.2-4.7,6.1-3.6,10.2l0.3,0.9
			c0.4,1.3,1.1,2.4,2.2,3.2c3.5,6,6.1,12.4,8.8,18.7C940.7,785.8,955.8,779.6,951.6,769.8z"/>
		<path class="st9" d="M933,780.8c4.3-1.8,5.8-6.5,4.5-10.8c-2-6-4.3-11.9-7-17.6c-3-6.3-12.2-6.9-15.1-0.1l-0.4,0.8
			c-0.7,1.5-0.9,3.2-0.6,4.8s1.2,3.1,2.5,4.2c2.1,4.6,3.9,9.4,5.5,14.2C923.7,780.5,929.1,782.4,933,780.8z"/>
		<path class="st9" d="M922,770.9c-0.7-6-3.5-11.8-5.1-17.6c-1.2-4.3-7-6-10.7-4.5c-4.5,1.8-5.6,6.4-4.5,10.8
			c1.3,4.7,3.6,9.6,4,13.3C906.9,783.4,923.1,781.5,922,770.9z"/>
		<path d="M149.3,382.3l9.1-1.7c1.6-0.4,3.3-0.6,5-0.7c0.6-0.1,1.1-0.1,1.7,0.1c1.1,0,1.6,0.5,1.5,1.6c2.2-0.5,1.3-3.9-0.9-3.4
			c-0.6,0.1-1.1,0.4-1.5,0.8c-0.4,0.4-0.7,0.9-0.7,1.5c-0.1,0.6,0,1.1,0.2,1.6c0.2,0.5,0.6,0.9,1.1,1.2c2,1.4,5.4,0.5,5.6-2.2
			c0.7-8.6-18.8-2.8-22.1-2.1C146.1,379.3,147.1,382.7,149.3,382.3L149.3,382.3z"/>
		<path d="M191.3,378.1c3-0.6,6.1-1.2,9.1-1.7c1.6-0.4,3.3-0.6,5-0.7c0.6-0.1,1.1-0.1,1.7,0.1c1.1,0,1.6,0.5,1.5,1.6
			c2.2-0.5,1.3-3.9-0.9-3.4c-0.6,0.1-1.1,0.4-1.5,0.8c-0.4,0.4-0.7,0.9-0.7,1.5c-0.1,0.6,0,1.1,0.2,1.6c0.2,0.5,0.6,0.9,1.1,1.2
			c2,1.4,5.4,0.5,5.6-2.2c0.7-8.7-18.8-2.8-22.1-2.2C188.2,375.2,189.1,378.5,191.3,378.1z"/>
		<path d="M150,427.5c2.6,4.5,8.5,5.8,13.4,5.4c2.2-0.2,2.2-3.7,0-3.5c-3.6,0.3-8.4-0.3-10.3-3.7c-0.1-0.2-0.3-0.4-0.5-0.5
			c-0.2-0.1-0.4-0.2-0.6-0.3c-0.2-0.1-0.5-0.1-0.7,0c-0.2,0-0.4,0.1-0.6,0.2c-0.2,0.1-0.4,0.3-0.5,0.5c-0.1,0.2-0.2,0.4-0.3,0.6
			c-0.1,0.2-0.1,0.5,0,0.7C149.8,427.1,149.9,427.4,150,427.5z"/>
		<path class="st10" d="M401.8,439.3c-12.4,61.7,12.6,203.6,142.6,206.3c0,0,3.3-20.6,4.6-29.6c2.9-20.9,3.8-42,2.8-63.1
			c-2.7-53.7-26.3-94.3-63.8-109.5C456.9,428.3,422.2,433.1,401.8,439.3z"/>
		<path class="st4" d="M400.1,438.8c-6.3,32.1-2.5,66.8,6.9,97.9c11,36.4,32.3,70.7,65.2,90.8c21.7,13.3,46.8,19.2,72.2,19.9
			c0.4,0,0.8-0.1,1.1-0.4c0.3-0.2,0.5-0.6,0.7-0.9c6.7-42.2,12.9-86.2,2.3-128.3c-4.8-18.7-13-36.8-25.8-51.5
			c-12.8-14.7-29.6-24.4-48-30c-23.7-7.3-49.7-5.7-73.3,1.3c-2.2,0.7-1.3,4.1,1,3.5c39.1-11.7,85.5-6.1,114.8,24.5
			c30.4,31.8,34.9,78.7,32.9,120.6c-1,19.9-4.1,39.4-7.3,59l1.7-1.3c-42.9-1.1-82.2-19.2-107.7-54.2
			c-21.2-29.1-32.2-65.2-35.1-100.8c-1.3-16.3-1.2-32.9,2-49C404,437.6,400.5,436.6,400.1,438.8z"/>
		<path class="st3" d="M570.9,568.4c-0.5,29.9,0.9,60.3,10.4,87.8c9.6,27.4,32.3,49.2,55.6,61.2c9.7,5,20.7,5.8,34.1,6
			c23.6,0.2,61.4,0.5,73.9-4.1c32.4-12,49.8-58,53.8-96c3.6-34.4,21-143.2-60.2-179.8c-25.4-11.4-54-13.5-80.7-5.9
			C620.7,447.9,572.2,488.7,570.9,568.4z"/>
		<path class="st4" d="M569.2,568.4c-0.5,37.5,0.5,80.1,22.8,112c9.4,13.3,21.3,24.7,35.2,33.3c6.7,4.2,13.7,7.9,21.5,9.5
			c8.4,1.8,17.1,1.8,25.6,1.9c16.1,0.1,32.2,0.3,48.2-0.7c12.1-0.8,23.6-2.1,34-8.9c24.5-16.1,36.3-47.8,41.8-75.4
			c3.7-18.5,5.3-38,6.2-56.8c1.1-22.7,0-45.8-5.7-67.9c-6.1-23.3-18.1-45.2-37.3-60.3c-26.6-21-62.7-28-95.6-21.3
			c-52.1,10.7-86.5,58.4-94.4,109C570.1,551.3,569.4,559.8,569.2,568.4c0,2.3,3.6,2.3,3.6,0c1.1-51.8,25.6-105.8,76.3-126
			c30.9-12.3,67.8-9.5,96.8,6.7c21.4,12,36.7,31.4,45.1,54.3c13.6,36.9,10.8,77,6.5,115.3c-3,26.7-9.4,54-25.3,76.2
			c-7.6,10.6-18.3,20.6-31.3,23.7c-13,3.1-27,2.8-40.3,3c-15.6,0.2-32,1.2-47.5-1.1c-16.2-2.4-30.9-12.9-42.6-24
			c-12.4-11.6-22.3-25.8-27.8-41.8c-6.3-18.3-8.8-37.8-9.7-57c-0.5-9.7-0.5-19.5-0.3-29.2C572.8,566.1,569.2,566.1,569.2,568.4z"/>
		<path class="st10" d="M652.5,439.3c-12.4,61.7,12.6,203.6,142.6,206.3c0,0,3.3-20.6,4.6-29.6c2.9-20.9,3.8-42,2.8-63.1
			c-2.7-53.7-26.3-94.3-63.8-109.5C707.6,428.3,672.9,433.1,652.5,439.3z"/>
		<path class="st4" d="M650.8,438.8c-6.3,32.1-2.5,66.8,6.9,97.9c11,36.4,32.2,70.7,65.2,90.8c21.8,13.3,46.8,19.2,72.1,19.9
			c0.4,0,0.8-0.1,1.1-0.4c0.3-0.2,0.5-0.6,0.6-1c6.7-42.2,12.9-86.2,2.3-128.3c-4.8-18.7-13-36.8-25.8-51.5s-29.7-24.4-48-30
			c-23.7-7.3-49.7-5.7-73.3,1.3c-2.2,0.7-1.3,4.1,1,3.5c39.1-11.7,85.5-6.1,114.8,24.5c30.4,31.8,34.9,78.7,32.9,120.6
			c-1,19.9-4.2,39.4-7.3,59l1.7-1.3c-42.9-1.1-82.2-19.2-107.7-54.2c-21.2-29.1-32.2-65.2-35.1-100.8c-1.3-16.3-1.2-32.9,2-49
			C654.7,437.6,651.2,436.6,650.8,438.8z"/>
	</g>
</g>
</svg>
