<svg width="1080" height="1080" viewBox="0 0 1080 1080" fill="none" xmlns="http://www.w3.org/2000/svg">
<g clip-path="url(#clip0)">
<path d="M1052.56 672.328C1052.45 671.37 1052.3 670.388 1052.1 669.418C1052 668.848 1051.88 668.284 1051.72 667.729C1043.51 631.234 1008.87 598.824 972.226 592.2C953.051 588.739 933.589 590.511 916.056 598.752C916.056 598.5 916.152 598.237 916.212 597.985C918.081 589.373 920.406 580.858 923.007 572.438C934.871 533.978 950.762 496.897 962.099 458.246C973.16 420.542 981.274 381.22 974.79 341.959C968.798 306.158 945.621 275.712 914.402 257.83C883.915 240.379 843.192 231.48 808.942 242.798C797.593 239.098 786.244 236.726 773.96 238.127C768.591 238.738 763.174 239.517 757.913 240.523L754.102 241.265H754.042C747.499 240.307 741.399 239.493 734.868 241.493C728.753 243.393 723.38 247.148 719.496 252.236C715.611 257.324 713.407 263.495 713.189 269.891C702.403 273.963 693.235 280.671 690.143 293.151C684.642 315.273 703.398 334.113 725.005 333.059C726.308 335.234 727.843 337.262 729.583 339.108C731.326 343.969 734.098 348.397 737.708 352.091C738.632 353.018 739.612 353.886 740.644 354.69C743.904 395.653 774.907 433.621 814.946 443.466C834.926 448.4 855.959 446.865 875.01 439.082C870.648 453.323 865.699 467.397 860.785 481.278C850.683 509.76 839.537 537.955 832.143 567.311C831.112 571.4 830.178 575.5 829.339 579.612C829.614 570.785 829.543 561.945 829.075 553.142C827.877 522.001 820.039 488.022 801.512 462.354C791.181 447.981 779.149 435.585 763.893 426.422C760.629 424.475 757.242 422.738 753.755 421.224C752.952 420.877 742.466 417.248 750.028 419.559C746.433 418.481 743.149 416.529 739.685 415.164C732.566 412.387 725.17 410.38 717.623 409.175C707.879 407.579 698.015 406.833 688.142 406.947C687.926 405.151 687.626 403.354 687.255 401.534C685.242 392.036 683.6 382.07 680.807 372.788C679.084 366.84 675.852 361.439 671.424 357.107C666.997 352.775 661.524 349.661 655.538 348.065C649.551 346.47 643.254 346.447 637.256 348.001C631.258 349.554 625.764 352.63 621.306 356.93C605.727 371.77 610.904 393.018 615.83 412.026C611.767 408.205 607.273 404.731 603.33 400.923C595.433 393.281 588.613 383.723 577.516 380.561C571.45 378.832 565.035 378.728 558.915 380.261C552.796 381.794 547.188 384.908 542.654 389.293C533.762 397.892 528.98 411.966 532.48 424.099C535.584 434.878 543.206 442.484 550.959 450.125C557.766 456.809 565.34 464.618 573.49 469.648C569.958 474.762 566.756 480.095 563.902 485.614C560.385 477.437 556.011 469.657 550.851 462.402C540.521 448.029 528.477 435.633 513.221 426.47C509.959 424.525 506.577 422.789 503.095 421.272C502.292 420.925 491.794 417.296 499.356 419.607C495.76 418.529 492.489 416.577 489.025 415.212C481.905 412.438 474.509 410.431 466.963 409.223C449.825 406.29 432.324 406.157 415.143 408.828L415.407 408.073C417.163 402.222 417.226 395.993 415.587 390.107C416.172 385.32 415.739 380.463 414.316 375.854C414.316 375.363 414.316 374.872 414.256 374.369C419.745 368.656 423.484 361.889 423.628 353.049C423.685 348.875 422.868 344.734 421.23 340.893C419.591 337.052 417.167 333.597 414.113 330.748C404.885 321.968 394.471 321.01 384.056 323.885C379.388 320.419 373.805 318.397 367.999 318.07C362.192 317.742 356.417 319.122 351.388 322.04C350.189 322.699 343.838 327.25 341.8 330.305C343.25 328.352 346.246 328.077 342.915 329.993C342.423 330.269 341.956 330.568 341.465 330.856C341.361 331.056 341.273 331.264 341.201 331.478C341.265 331.267 341.349 331.063 341.453 330.868C340.362 331.502 339.272 332.137 338.193 332.796C329.397 338.186 321.535 344.33 315.795 352.966C313.326 356.667 311.001 360.511 308.904 364.416C304.278 372.92 299.46 383.089 297.675 393.365C292.617 397.629 287.584 401.917 282.575 406.229C281.192 399.841 279.686 393.477 278.057 387.137C270.986 359.853 261.698 331.658 246.407 307.787C238.078 294.816 228.143 283.425 215.32 274.766C202.041 265.807 185.359 262.537 169.54 263.867C148.58 265.627 126.853 272.011 112.208 288.025C101.726 299.668 94.9218 314.149 92.6501 329.646C89.69 348.81 89.8817 367.889 90.1334 387.209C90.3611 404.3 90.2772 421.356 89.1866 438.376C73.4754 448.904 62.2583 465.48 55.3554 483.135C49.6777 498.069 47.2706 514.047 48.2968 529.99C44.7806 532.173 41.524 534.749 38.5896 537.667C26.4976 549.777 22.1234 568.701 30.4045 584.139C32.8843 588.948 36.3721 593.166 40.6303 596.506C44.8884 599.846 49.8168 602.23 55.0798 603.495C55.3315 606.956 55.715 610.465 56.2782 614.047C58.6705 628.07 63.4968 641.568 70.5393 653.931C81.0646 672.834 96.5428 688.515 115.312 699.289C112.492 716.536 110.315 733.863 108.781 751.27C107.69 763.703 105.185 778.028 108.625 790.185C113.419 806.677 127.584 815.421 142.768 821.014C168.114 830.428 199.429 819.757 206.499 793.299C208.045 796.575 209.993 799.645 212.3 802.438C205.553 794.413 213.498 804.366 215.895 806.582C220.024 810.379 224.949 813.207 230.312 814.858C236.644 816.828 243.207 817.963 249.834 818.236C264.359 819.134 279.603 814.75 290.388 804.797C301.821 794.245 307.166 777.249 301.977 762.338C299.578 755.201 295.446 748.77 289.949 743.621C284.453 738.473 277.764 734.768 270.483 732.837C268.641 732.36 266.772 731.996 264.886 731.748C263.903 726.801 262.969 721.83 262.118 716.848C261.267 711.865 260.5 706.919 259.721 701.948C269.708 696.497 278.52 689.13 285.654 680.27C292.788 671.41 298.102 661.23 301.294 650.314C308.245 676.664 321.667 700.714 342.555 719.099C354.803 729.879 368.753 739.772 384.284 745.234C398.785 750.312 414.772 749.941 429.944 750.025C444.408 750.097 458.921 750.133 473.362 749.139C488.234 748.12 502.004 746.264 515.175 738.838C537.945 726.01 552.913 702.834 562.308 678.317C569.814 693.818 580.314 707.683 593.203 719.111C605.463 729.891 619.413 739.784 634.944 745.246C649.433 750.324 665.432 749.953 680.592 750.037C695.057 750.109 709.569 750.145 724.01 749.151C738.883 748.132 752.664 746.276 765.823 738.85C795.699 722.082 812.166 687.348 820.195 655.249C820.462 654.426 820.67 653.585 820.818 652.733C821.058 651.188 821.321 649.643 821.585 648.11C821.705 651.991 821.957 655.883 822.436 659.764C826.439 692.63 842.953 722.561 867.161 744.683C867.436 747.078 867.748 749.474 868.143 751.786C868.898 756.323 870.041 760.786 871.559 765.128C874.027 772.721 877.339 780.013 881.434 786.867C883.088 789.466 885.401 791.658 887.054 794.197C881.578 785.657 888.037 795.395 889.655 797.048C895.917 803.071 904.262 806.447 912.952 806.474C914.96 806.439 916.962 806.258 918.944 805.935C925.08 807.96 931.653 808.267 937.951 806.821L939.149 807.025C941.433 807.329 943.741 807.413 946.04 807.276C948.541 811.353 951.728 814.967 955.46 817.96C959.819 821.41 965.021 823.634 970.528 824.403C976.035 825.171 981.648 824.456 986.786 822.332C991.22 820.468 995.189 817.652 998.412 814.084C1001.63 810.515 1004.03 806.281 1005.43 801.683C1007.54 795.323 1006.85 788.628 1005.21 782.256C1008.83 779.659 1011.84 776.299 1014.03 772.412C1016.21 768.526 1017.52 764.208 1017.85 759.762C1028 752.707 1036.5 743.528 1042.74 732.861C1053.51 714.045 1055.66 693.229 1052.56 672.328ZM298.969 524.792C297.874 513.334 296.676 501.887 295.374 490.453C307.022 479.889 318.795 469.473 330.691 459.204C329.385 460.809 328.09 462.426 326.832 464.067C312.99 482.189 304.122 502.921 298.969 524.792ZM629.839 387.915C629.695 387.556 629.539 387.209 629.419 386.837C629.515 386.813 629.659 387.269 629.839 387.915ZM181.237 742.898C181.776 737.58 182.435 732.263 183.202 726.993C182.219 733.448 183.706 723.567 183.873 722.465C184.293 719.662 184.748 716.86 185.204 714.081C186.402 713.937 187.6 713.782 188.859 713.614H189.362C191.272 727.14 193.568 740.595 196.253 753.977C191.951 749.416 186.865 745.664 181.237 742.898V742.898ZM896.69 765.655C896.462 766.17 896.222 766.697 896.007 767.224C896.174 766.745 896.402 766.218 896.642 765.751L896.69 765.655ZM755.037 241.217C754.822 241.202 754.605 241.202 754.39 241.217H754.306H755.037ZM753.839 241.217L752.892 241.397C750.507 241.876 746.48 241.517 753.851 241.253L753.839 241.217Z" fill="white"/>
<path d="M341.705 330.317C341.571 330.492 341.455 330.681 341.357 330.879V330.879C341.462 330.685 341.578 330.497 341.705 330.317V330.317Z" fill="white"/>
<path d="M275.911 768.542C269.859 756.109 255.358 755.786 244.057 761.355C237.535 733.998 232.961 706.213 230.371 678.209C229.305 666.483 210.813 666.363 211.904 678.209C215.027 712.868 221.04 747.207 229.88 780.866C230.26 782.303 231.027 783.608 232.097 784.639C232.644 785.69 233.394 786.623 234.303 787.383C235.212 788.144 236.263 788.717 237.394 789.071C245.723 791.909 255.874 792.664 264.358 789.861C273.263 786.999 280.525 778.004 275.911 768.542Z" fill="#C6FF00" stroke="#1D1935" stroke-width="2.6" stroke-miterlimit="10"/>
<path d="M181.286 781.825C180.663 772.243 171.015 765.895 162.327 764.434C159.192 763.905 155.993 763.873 152.847 764.338C154.718 736.306 158.567 708.442 164.364 680.952C166.761 669.358 149.013 664.411 146.556 676.041C139.346 710.091 134.985 744.681 133.517 779.453C133.481 780.69 133.727 781.918 134.236 783.046C134.885 785.605 136.433 787.846 138.598 789.358C145.681 794.497 155.232 798.078 164.101 797.862C173.197 797.706 181.933 791.73 181.286 781.825Z" fill="#C6FF00" stroke="#1D1935" stroke-width="2.6" stroke-miterlimit="10"/>
<path d="M124.648 462.223C123.449 457.827 117.96 453.91 113.287 455.779C91.7152 464.378 79.7311 485.494 76.2916 507.7C74.494 519.151 73.8948 534.35 78.8083 546.195C73.8127 547.257 68.9778 548.968 64.4273 551.286C57.117 555.035 48.9798 563.826 54.2288 572.426C59.4779 581.025 71.9534 579.396 79.7311 575.791C83.7991 573.905 87.5992 571.489 91.0321 568.605C92.439 567.324 93.6791 565.871 94.7232 564.281C95.6978 563.809 96.5756 563.159 97.3118 562.365C98.9952 561.571 100.354 560.221 101.159 558.544C104.61 554.591 105.197 547.824 99.433 544.171L99.1334 543.992C98.7769 543.669 98.4407 543.325 98.1267 542.961L97.9829 542.794C97.923 542.686 97.8511 542.554 97.7312 542.363C97.3837 541.776 97.0482 541.165 96.7246 540.578C96.184 539.739 95.8098 538.804 95.622 537.823C95.0828 536.087 94.6513 534.326 94.2798 532.541C93.0814 526.708 93.2252 518.264 94.2798 511.425C96.5927 496.993 103.484 479.482 118.176 473.625C122.814 471.745 126.098 467.409 124.648 462.223Z" fill="#C6FF00" stroke="#1D1935" stroke-width="2.6" stroke-miterlimit="10"/>
<path d="M104.97 505.317C132.929 400.887 96.6529 328.987 138.693 300.206C152.08 291.043 173.651 288.875 185.563 291.007C238.569 300.505 258.918 420.266 262.933 446.484C273.035 512.431 280.334 612.657 277.517 634.276C275.72 648.05 263.137 679.443 230.18 683.778C212 686.174 195.606 685.91 186.846 687.192C156.166 691.707 125.007 680.868 105.018 657.165C87.8086 636.803 78.9164 610.909 81.2773 585.493C84.6808 549.022 95.3826 541.153 104.97 505.317Z" fill="#C6FF00"/>
<path d="M106.707 505.844C117.109 466.427 119.027 426.374 118.487 385.807C118.296 371.183 117.792 356.403 119.398 341.827C120.693 330.185 123.653 318.112 131.49 309.045C142.6 296.193 160.995 291.762 177.401 292.109C189.961 292.385 200.483 297.667 209.303 306.482C228.418 325.538 238.389 353.457 246.023 378.729C262.681 433.824 268.061 492.202 272.663 549.357C274.018 566.126 275.156 582.822 275.839 599.59C276.283 610.37 276.894 621.329 275.947 632.084C274.928 643.583 269.512 655.069 262.189 663.944C248.659 680.281 230.072 682.629 210.01 683.85C191.015 685.048 171.577 688.486 152.774 684.114C132.1 679.279 113.891 667.096 101.542 649.835C88.5751 631.869 81.3606 609.735 82.9186 587.481C84.2488 568.617 90.109 551.789 97.0598 534.434C100.791 525.083 103.992 515.53 106.647 505.82C106.758 505.366 106.689 504.887 106.452 504.484C106.216 504.08 105.831 503.785 105.381 503.661C104.93 503.536 104.449 503.592 104.039 503.816C103.628 504.04 103.322 504.415 103.184 504.862C98.0545 523.666 89.0664 541.069 83.9013 559.802C78.2328 580.39 77.0943 602.273 83.7095 622.766C96.5325 662.531 132.533 690.773 174.789 689.995C184.496 689.815 194.203 688.282 203.922 687.779C214.924 687.192 226.489 687.036 237.19 684.186C252.099 680.293 264.095 669.705 271.513 656.41C283.353 635.175 279.998 609.998 278.703 586.679C276.558 547.153 272.867 507.724 267.726 468.523C264.794 444.561 260.472 420.79 254.783 397.33C247.784 369.399 238.724 340.198 222.066 316.363C215.415 306.853 207.146 297.834 196.516 292.744C183.106 286.324 166.556 287.618 152.714 291.774C139.747 295.642 128.662 303.643 122.526 315.86C116.989 326.867 115.527 339.479 114.928 351.624C114.077 368.919 114.928 386.263 114.928 403.558C115.135 425.272 113.717 446.972 110.686 468.475C108.815 480.714 106.29 492.844 103.124 504.814C102.987 505.289 103.045 505.798 103.284 506.231C103.524 506.663 103.925 506.983 104.4 507.119C104.875 507.256 105.385 507.198 105.818 506.959C106.251 506.72 106.57 506.319 106.707 505.844Z" fill="#1D1935"/>
<path d="M1026.39 676.448C1022.61 656.003 1007.53 638.373 990.155 627.545C968.979 614.37 942.614 612.729 921.162 626.228C904.816 636.504 894.21 650.182 889.152 670.544C887.416 667.089 886.204 663.396 885.557 659.584C884.786 656.042 884.384 652.43 884.359 648.805C884.215 642.589 884.778 636.348 885.234 630.144C885.992 619.392 887.304 608.686 889.164 598.069C889.368 596.871 889.584 595.674 889.811 594.476C889.811 594.248 890.087 593.134 890.219 592.428C890.351 591.721 890.59 590.727 890.638 590.511C890.89 589.385 891.154 588.248 891.417 587.122C892.52 582.411 893.718 577.736 895.013 573.096C897.529 564.221 900.417 555.454 903.485 546.746C915.961 511.329 929.695 476.392 939.522 440.089C949.528 403.151 958.085 359.421 941.235 323.142C922.564 282.935 873.597 261.567 830.874 264.945C805.084 266.981 788.45 285.51 778.143 307.62C773.098 318.399 769.035 329.921 767.453 341.767C765.8 354.223 769.299 365.949 774.344 377.196C784.938 400.767 804.856 416.026 830.67 419.368C850.911 421.979 872.71 414.769 886.6 399.689C901.16 383.843 906.098 365.494 902.958 344.318C901.701 336.01 899.094 327.963 895.24 320.495C896.211 321.406 897.17 322.34 898.092 323.298C899.674 324.939 901.184 326.64 902.599 328.412C903.318 329.299 903.989 330.209 904.672 331.119C904.768 331.251 904.983 331.562 905.175 331.874C907.282 335.355 909.106 339 910.628 342.773C910.448 342.498 911.683 346.067 911.91 346.965C912.446 349.065 912.909 351.177 913.3 353.301C913.692 355.425 914.007 357.605 914.247 359.841C914.331 360.583 914.403 361.338 914.475 362.092C914.475 362.44 914.583 363.53 914.607 364.272C914.867 373.548 914.37 382.829 913.121 392.024C912.529 396.623 911.806 401.206 910.951 405.774L910.64 407.438C910.508 408.085 910.292 409.163 910.232 409.415C909.717 411.81 909.154 414.289 908.579 416.709C906.709 424.542 904.576 432.279 902.275 440.029C896.97 457.715 891.186 475.262 884.922 492.669C871.644 529.583 857.358 565.73 851.738 604.764C848.634 626.323 845.35 650.793 851.642 671.957C858.09 693.426 870.454 712.647 887.319 727.424C903.965 741.653 926.135 747.989 947.491 750.588C957.833 751.857 968.715 752.528 978.866 749.737C989.616 746.712 999.526 741.258 1007.83 733.796C1024.37 719.219 1030.36 697.912 1026.39 676.448ZM862.392 371.698C859.097 375.237 855.242 378.211 850.983 380.502C850.779 380.621 846.908 381.867 846.189 382.035C838.667 384.019 830.679 383.197 823.719 379.723C820.579 378.094 810.165 372.848 804.077 354.439V354.295C802.896 350.532 802.617 346.544 803.262 342.653C804.257 337.24 806.45 331.874 808.463 326.783C809.242 324.807 810.045 322.843 810.86 320.903C811.339 319.813 811.843 318.711 812.358 317.633C812.646 317.118 812.933 316.603 813.209 316.076C814.407 314.159 815.498 312.231 816.804 310.386C818.197 312.046 819.946 313.372 821.921 314.266C823.895 315.159 826.046 315.598 828.213 315.549C830.646 315.419 833.085 315.463 835.511 315.68C836.554 315.776 837.633 315.908 838.675 316.088L839.73 316.423C842.394 317.019 844.958 317.999 847.34 319.333C848.646 320.112 855.561 324.927 859.168 329.311C863.063 334.042 866.466 344.522 866.754 345.767C867.297 348.246 867.697 350.753 867.952 353.277C867.952 353.397 867.952 353.493 867.952 353.577C868.276 362.931 863.015 370.8 862.392 371.698ZM922.073 694.726C922.073 694.726 922.073 694.642 922.073 694.522C922.087 694.589 922.087 694.659 922.073 694.726V694.726ZM921.941 692.857C921.773 691.66 921.845 692.115 921.941 692.857V692.857ZM964.437 714.788C959.576 714.67 954.724 714.306 949.9 713.698C947.503 713.398 945.106 713.015 942.637 712.632L940.96 712.32C939.761 712.057 938.647 711.781 937.496 711.494C933.098 710.381 928.778 708.976 924.565 707.29L921.917 706.092C922.805 703.225 923.006 700.189 922.504 697.229C922.372 696.462 922.253 695.684 922.169 694.905C922.169 694.726 922.169 694.534 922.169 694.354C922.288 692.426 922.504 683.335 922.624 682.377C922.624 682.15 922.804 681.179 922.9 680.521C922.996 679.862 923.343 678.604 923.403 678.377C923.956 675.843 924.805 673.383 925.932 671.047C933.122 658.039 943.584 652.266 946.964 650.865C961.417 644.337 979.201 655.847 984.798 661.92C997.98 676.293 993.738 688.486 992.551 692.654C992.456 692.69 984.306 715.195 964.401 714.788H964.437Z" fill="#4F6600" stroke="#4F6600" stroke-width="3" stroke-miterlimit="10"/>
<path d="M320.3 568.401C319.821 598.344 321.163 628.743 330.739 656.171C340.314 683.599 363.012 705.337 386.381 717.363C396.124 722.369 407.125 723.208 420.476 723.351C444.108 723.507 481.871 723.89 494.43 719.255C526.787 707.278 544.272 661.237 548.191 623.305C551.786 588.894 569.199 480.069 487.934 443.478C462.555 432.075 433.961 429.997 407.197 437.609C370.046 447.886 321.583 488.692 320.3 568.401Z" fill="#C6FF00"/>
<path d="M318.503 568.401C317.963 605.902 319.018 648.457 341.273 680.425C350.65 693.756 362.601 705.077 376.422 713.722C383.145 717.962 390.096 721.579 397.993 723.244C406.382 725.028 415.047 725.064 423.592 725.124C439.662 725.22 455.769 725.376 471.828 724.381C483.956 723.627 495.413 722.297 505.791 715.482C530.31 699.349 542.091 667.669 547.543 640.121C551.199 621.628 552.805 602.129 553.703 583.301C554.806 560.604 553.775 537.464 547.975 515.39C541.851 492.058 529.855 470.199 510.716 455.072C484.135 434.064 448.039 427.093 415.143 433.812C363.012 444.472 328.641 492.238 320.768 542.806C319.481 551.288 318.76 559.847 318.611 568.425C318.611 570.737 322.206 570.737 322.206 568.425C323.201 516.623 347.732 462.606 398.365 442.424C429.272 430.111 466.195 432.95 495.149 449.095C516.577 461.073 531.892 480.536 540.293 503.376C553.859 540.255 551.079 580.378 546.812 618.67C543.84 645.343 537.453 672.663 521.502 694.833C513.904 705.385 503.25 715.434 490.235 718.536C477.221 721.639 463.223 721.339 449.981 721.519C434.401 721.722 417.935 722.717 402.488 720.441C386.261 718.045 371.592 707.493 359.86 696.486C347.492 684.904 337.569 670.723 332.069 654.638C325.801 636.288 323.272 616.885 322.386 597.59C321.93 587.852 321.906 578.115 322.05 568.377C322.134 566.09 318.539 566.09 318.503 568.401Z" fill="#1D1935"/>
<path d="M560.595 421.548C568.589 430.339 577.217 438.533 586.409 446.065C590.268 449.215 595.708 449.826 599.483 446.065C602.743 442.807 603.354 436.184 599.483 433.01C590.285 425.481 581.653 417.286 573.658 408.492C565.64 399.677 552.601 412.768 560.595 421.548V421.548Z" fill="#C6FF00" stroke="#1D1935" stroke-width="2.4" stroke-miterlimit="10"/>
<path d="M637.317 384.658L644.255 415.631C646.856 427.225 664.628 422.326 662.064 410.732L655.125 379.747C652.536 368.165 634.752 373.064 637.317 384.658Z" fill="#C6FF00" stroke="#1D1935" stroke-width="2.4" stroke-miterlimit="10"/>
<path d="M255.815 490.609C283.546 464.69 312.032 439.613 341.273 415.379C350.429 407.786 337.307 394.79 328.211 402.324C298.993 426.558 270.507 451.635 242.752 477.553C234.039 485.686 247.126 498.717 255.815 490.609Z" fill="#C6FF00" stroke="#1D1935" stroke-width="2.6" stroke-miterlimit="10"/>
<path d="M390.564 349.552C376.675 355.66 364.978 365.051 355.726 371.674C355.605 371.76 355.455 371.798 355.307 371.782C355.159 371.766 355.022 371.696 354.921 371.585C354.821 371.475 354.765 371.331 354.763 371.182C354.761 371.033 354.814 370.889 354.912 370.776C357.979 366.919 364.499 359.158 366.368 357.361C370.934 352.93 371.222 346.929 367.89 344.785C364.559 342.641 361.731 349.073 359.058 351.181C356.386 353.289 349.099 356.655 342.951 361.877C339.224 365.039 339.704 365.003 337.031 369.063C333.688 374.201 320.253 396.24 324.472 405.726C325.67 408.313 330.835 414.529 331.662 415.703C338.925 425.811 355.81 417.99 364.019 416.086C372.389 413.948 380.171 409.957 386.789 404.408C391.883 399.617 388.767 394.335 383.542 392.431C386.034 390.526 389.953 387.185 388.407 384.55C387.716 383.213 386.633 382.118 385.303 381.412C390.792 376.525 383.542 368.859 376.651 373.123C374.865 374.225 372.768 375.734 371.006 376.848C377.849 371.902 387.077 362.116 393.249 357.876C400.355 353.061 395.873 347.216 390.564 349.552Z" fill="#779900" stroke="#1D1935" stroke-width="2.6" stroke-miterlimit="10"/>
<path d="M379.022 371.698C373.366 375.183 367.685 378.609 362.676 383.005C361.67 384.016 361.07 385.36 360.988 386.783C360.906 388.207 361.349 389.611 362.233 390.73C364.21 393.125 367.026 393.449 369.879 392.215L370.514 391.94C371.385 391.538 372.106 390.872 372.575 390.035C376.55 387.056 380.704 384.324 385.014 381.855C391.486 377.818 385.542 367.638 379.022 371.698Z" fill="#779900" stroke="#1D1935" stroke-width="2.6" stroke-miterlimit="10"/>
<path d="M388.694 383.783C387.882 382.449 386.581 381.484 385.067 381.095C383.554 380.705 381.948 380.922 380.593 381.699C376.498 383.705 372.535 385.969 368.728 388.478C364.558 391.245 365.061 397.845 370.154 399.258L370.789 399.426C371.923 399.795 373.147 399.776 374.269 399.372C375.391 398.969 376.347 398.204 376.985 397.198C380.085 395.254 383.285 393.475 386.573 391.868C389.461 390.443 390.228 386.382 388.694 383.783Z" fill="#779900" stroke="#1D1935" stroke-width="2.6" stroke-miterlimit="10"/>
<path d="M382.787 392.646C378.532 393.736 374.745 396.311 370.743 398.036C367.806 399.234 367.147 403.594 368.621 406.097C370.407 409.115 373.787 409.451 376.735 408.181C379.946 406.804 383.182 404.696 385.843 404.025C393.249 402.132 390.193 390.754 382.787 392.646Z" fill="#779900" stroke="#1D1935" stroke-width="2.6" stroke-miterlimit="10"/>
<path d="M897.804 320.028C889.415 309.464 881.386 301.415 869.27 295.151C854.889 287.749 838.938 282.539 822.736 285.857C819.907 286.432 821.106 290.768 823.934 290.181C840.173 286.851 856.531 293.127 870.552 300.96C880.739 306.626 887.486 314.219 894.628 323.226C896.426 325.49 899.59 322.292 897.804 320.052V320.028Z" fill="#1E1A35"/>
<path d="M725.629 306.362C735.947 305.068 754.571 306.757 766.231 305.584C763.367 306.051 759.808 306.422 756.943 306.913C745.846 308.829 745.379 323.478 755.589 323.49C754.852 325.447 754.735 327.584 755.254 329.61C756.069 333.778 763.223 333.646 767.573 333.335C763.978 340.162 765.524 348.474 775.267 348.81C779.138 348.941 795.64 347.612 809.734 339.958C820.028 334.365 844.787 326.963 843.013 309.764C842.81 307.751 842.498 296.505 841.324 292.732C837.009 278.958 802.663 268.466 794.466 266.202C787.91 264.406 788.474 263.998 781.643 264.142C770.438 264.382 759.796 267.592 755.038 267.867C750.28 268.143 741.376 264.274 739.962 269.352C738.464 274.646 744.312 280.611 753.144 281.018C756.74 281.186 770.689 283.234 777.436 284.42C777.634 284.453 777.814 284.556 777.944 284.709C778.074 284.863 778.145 285.057 778.145 285.258C778.145 285.459 778.074 285.653 777.944 285.807C777.814 285.96 777.634 286.063 777.436 286.096C761.713 287.725 740.909 288.743 720.835 295.187C713.105 297.643 713.836 307.847 725.629 306.362Z" fill="#779900" stroke="#1D1935" stroke-width="3" stroke-miterlimit="10"/>
<path d="M753.169 307.536C762.264 305.955 771.324 304.278 780.588 304.23C784.639 304.23 787.994 308.063 788.174 311.872C788.378 316.231 785.622 319.154 781.595 320.435L780.672 320.735C779.4 321.131 778.034 321.106 776.777 320.663C769.898 320.998 763.079 322.424 756.296 323.609C745.906 325.418 742.694 309.416 753.169 307.536Z" fill="#779900" stroke="#1D1935" stroke-width="3" stroke-miterlimit="10"/>
<path d="M754.294 329.047C753.395 324.436 756.499 320.663 760.802 319.465C766.906 317.771 773.115 316.479 779.389 315.597C786.268 314.614 791.828 321.944 787.778 328.089L787.287 328.855C786.442 330.28 785.149 331.385 783.61 331.999C782.071 332.612 780.371 332.698 778.778 332.245C773.76 333.066 768.788 334.146 763.882 335.479C759.639 336.665 755.085 333.155 754.294 329.047Z" fill="#779900" stroke="#1D1935" stroke-width="3" stroke-miterlimit="10"/>
<path d="M768.591 332.82C774.008 330.041 780.324 329.227 786.076 327.334C790.295 325.945 794.944 329.814 795.664 333.766C796.61 338.557 793.399 342.006 789.156 343.348C784.554 344.857 779.245 345.66 775.854 347.396C766.482 352.307 759.16 337.671 768.591 332.82Z" fill="#779900" stroke="#1D1935" stroke-width="3" stroke-miterlimit="10"/>
<path d="M912.486 738.383C904.804 727.484 897.445 717.327 893.802 704.296C889.548 689.037 889.416 671.825 896.103 657.225C897.302 654.614 893.431 652.326 892.232 654.961C885.545 669.525 884.946 686.246 888.517 701.744C891.969 716.74 899.878 728.274 908.603 740.647C910.257 743.042 914.151 740.754 912.486 738.383V738.383Z" fill="#1E1A35"/>
<path d="M979.74 790.005C974.048 769.727 963.418 751.809 956.12 737.808C956.033 737.626 956.014 737.419 956.066 737.225C956.118 737.03 956.237 736.86 956.402 736.745C956.568 736.63 956.769 736.577 956.969 736.597C957.17 736.616 957.357 736.705 957.498 736.85C962.208 741.82 971.615 752.336 973.724 755.235C978.937 762.361 987.135 763.942 990.742 759.774C994.157 755.81 986.044 750.468 983.659 746.384C981.274 742.3 978.075 731.628 972.094 722.154C968.499 716.405 968.415 717.075 963.298 712.572C956.887 706.979 929.191 684.138 915.362 688.138C911.563 689.228 901.999 695.181 900.214 696.115C884.886 704.128 892.352 728.849 893.371 740.515C894.737 756.457 902.742 770.973 904.983 774.123C910.64 782.064 918.454 778.806 922.145 772.015C924.29 775.8 928.137 781.848 932.056 780.232C934.023 779.558 935.74 778.306 936.981 776.638C942.614 785.13 954.586 776.638 950.068 766.362C948.869 763.703 947.239 760.529 946.053 757.882C951.506 768.254 963.19 782.843 967.792 792.161C973.017 802.785 981.921 797.766 979.74 790.005Z" fill="#779900" stroke="#1D1935" stroke-width="3" stroke-miterlimit="10"/>
<path d="M951.577 769.823C947.874 761.367 944.279 752.899 939.21 745.138C936.993 741.76 931.935 741.078 928.664 743.03C924.901 745.27 923.978 749.174 925.068 753.247L925.332 754.169C925.707 755.446 926.48 756.57 927.537 757.379C931.049 763.368 933.625 769.775 936.381 776.076C940.66 785.753 955.832 779.573 951.577 769.823Z" fill="#779900" stroke="#1D1935" stroke-width="3" stroke-miterlimit="10"/>
<path d="M933.002 780.759C937.352 778.974 938.838 774.255 937.46 769.979C935.505 763.975 933.168 758.102 930.461 752.396C927.477 746.12 918.309 745.521 915.373 752.253L915.014 753.079C914.289 754.567 914.078 756.254 914.414 757.875C914.75 759.496 915.614 760.96 916.871 762.038C918.94 766.683 920.764 771.432 922.336 776.267C923.69 780.495 929.131 782.352 933.002 780.759Z" fill="#779900" stroke="#1D1935" stroke-width="3" stroke-miterlimit="10"/>
<path d="M921.964 770.913C921.305 764.925 918.489 759.152 916.907 753.319C915.709 749.019 909.944 747.33 906.217 748.827C901.711 750.672 900.585 755.259 901.759 759.607C903.042 764.29 905.354 769.189 905.714 772.937C906.876 783.418 923.127 781.453 921.964 770.913Z" fill="#779900" stroke="#1D1935" stroke-width="3" stroke-miterlimit="10"/>
<path d="M149.275 382.274L158.419 380.585C160.056 380.227 161.719 379.999 163.392 379.903C163.95 379.82 164.519 379.841 165.07 379.963C166.16 379.963 166.664 380.478 166.592 381.52C168.785 381.017 167.85 377.639 165.657 378.142C165.102 378.254 164.595 378.532 164.202 378.94C163.81 379.348 163.551 379.866 163.462 380.425C163.372 380.983 163.455 381.556 163.699 382.066C163.944 382.577 164.338 383 164.83 383.28C166.832 384.634 170.223 383.795 170.451 381.052C171.146 372.405 151.66 378.298 148.352 378.909C146.135 379.316 147.07 382.681 149.275 382.274V382.274Z" fill="black"/>
<path d="M191.303 378.13C194.347 377.567 197.391 376.932 200.447 376.441C202.082 376.072 203.746 375.839 205.42 375.746C205.978 375.665 206.547 375.685 207.098 375.806C208.188 375.806 208.692 376.333 208.608 377.363C210.801 376.86 209.866 373.483 207.673 373.986C207.118 374.098 206.611 374.376 206.218 374.784C205.826 375.192 205.567 375.71 205.478 376.268C205.388 376.827 205.471 377.4 205.715 377.91C205.96 378.42 206.354 378.844 206.846 379.124C208.848 380.477 212.251 379.639 212.467 376.908C213.162 368.249 193.688 374.141 190.368 374.752C188.163 375.16 189.098 378.537 191.303 378.13Z" fill="black"/>
<path d="M149.995 427.548C152.596 432.052 158.504 433.345 163.345 432.962C165.574 432.794 165.586 429.297 163.345 429.477C159.75 429.752 154.957 429.189 153.015 425.776C152.899 425.577 152.744 425.404 152.561 425.266C152.377 425.127 152.168 425.026 151.946 424.968C151.723 424.91 151.491 424.897 151.264 424.928C151.036 424.96 150.817 425.036 150.618 425.153C150.42 425.269 150.247 425.423 150.108 425.607C149.969 425.79 149.868 425.999 149.81 426.222C149.752 426.444 149.739 426.676 149.771 426.903C149.802 427.131 149.879 427.35 149.995 427.548Z" fill="black"/>
<path d="M401.841 439.31C389.474 501.017 414.425 642.924 544.452 645.619C544.452 645.619 547.748 625.018 549.006 615.975C551.893 595.079 552.815 573.959 551.763 552.891C549.054 499.22 525.458 458.605 487.923 443.43C456.884 428.315 422.25 433.106 401.841 439.31Z" fill="#4F6600"/>
<path d="M400.104 438.831C393.788 470.906 397.599 505.652 407.019 536.721C418.068 573.108 439.28 607.387 472.26 627.545C494 640.852 519.094 646.781 544.417 647.415C544.81 647.413 545.192 647.283 545.505 647.045C545.818 646.808 546.046 646.476 546.155 646.098C552.89 603.914 559.086 559.861 548.42 517.761C543.626 499.029 535.393 480.943 522.642 466.259C509.891 451.575 493.041 441.909 474.645 436.292C450.941 429.033 424.923 430.555 401.362 437.585C399.145 438.244 400.092 441.705 402.321 441.047C441.449 429.381 487.84 434.926 517.093 465.528C547.509 497.376 552.015 544.231 549.966 586.104C548.995 605.962 545.819 625.545 542.679 645.14L544.417 643.822C501.49 642.744 462.254 624.575 436.703 589.589C415.468 560.532 404.502 524.397 401.566 488.788C400.224 472.511 400.368 455.863 403.567 439.789C404.023 437.573 400.547 436.567 400.104 438.831Z" fill="#1D1935"/>
<path d="M570.937 568.401C570.457 598.344 571.812 628.743 581.375 656.171C590.938 683.599 613.648 705.338 637.005 717.363C646.736 722.369 657.738 723.208 671.1 723.351C694.733 723.507 732.483 723.89 745.042 719.255C777.399 707.278 794.884 661.237 798.803 623.305C802.398 588.894 819.811 480.069 738.559 443.478C713.183 432.066 684.59 429.975 657.822 437.573C620.695 447.886 572.243 488.692 570.937 568.401Z" fill="#C6FF00"/>
<path d="M569.151 568.401C568.611 605.902 569.678 648.457 591.921 680.425C601.299 693.759 613.255 705.08 627.082 713.722C633.805 717.962 640.756 721.579 648.582 723.244C656.971 725.028 665.635 725.064 674.18 725.124C690.251 725.22 706.369 725.376 722.416 724.381C734.556 723.627 746.013 722.297 756.379 715.482C780.899 699.349 792.691 667.669 798.132 640.121C801.787 621.628 803.393 602.129 804.304 583.301C805.394 560.604 804.304 537.464 798.575 515.39C792.451 492.058 780.443 470.199 761.304 455.072C734.736 434.064 698.639 427.093 665.743 433.812C613.6 444.472 579.229 492.238 571.368 542.806C570.077 551.288 569.352 559.847 569.199 568.425C569.199 570.737 572.794 570.737 572.794 568.425C573.896 516.611 598.44 462.63 649.109 442.448C680.028 430.135 716.939 432.974 745.905 449.119C767.321 461.097 782.636 480.56 791.049 503.4C804.615 540.278 801.835 580.402 797.568 618.694C794.596 645.367 788.197 672.687 772.246 694.857C764.648 705.409 753.994 715.458 740.991 718.56C727.989 721.663 713.979 721.363 700.725 721.543C685.145 721.746 668.679 722.741 653.231 720.465C637.005 718.069 622.348 707.517 610.616 696.51C598.248 684.928 588.325 670.747 582.825 654.662C576.545 636.312 574.028 616.909 573.13 597.614C572.674 587.876 572.662 578.139 572.794 568.401C572.782 566.09 569.187 566.09 569.151 568.401Z" fill="#1D1935"/>
<path d="M652.49 439.31C640.122 501.017 665.073 642.924 795.101 645.619C795.101 645.619 798.397 625.018 799.655 615.975C802.561 595.081 803.492 573.959 802.435 552.891C799.739 499.22 776.142 458.605 738.608 443.43C707.557 428.315 672.899 433.106 652.49 439.31Z" fill="#4F6600"/>
<path d="M650.763 438.831C644.447 470.906 648.246 505.652 657.678 536.721C668.727 573.108 689.927 607.387 722.919 627.545C744.707 640.852 769.741 646.781 795.04 647.415C795.434 647.417 795.817 647.288 796.131 647.05C796.445 646.812 796.672 646.477 796.778 646.098C803.513 603.914 809.708 559.861 799.055 517.761C794.261 499.029 786.028 480.943 773.265 466.259C760.502 451.575 743.604 441.873 725.268 436.256C701.576 428.997 675.558 430.519 651.985 437.549C649.78 438.208 650.715 441.669 652.944 441.011C692.072 429.345 738.475 434.89 767.716 465.492C798.132 497.34 802.65 544.195 800.601 586.068C799.618 605.926 796.442 625.509 793.314 645.104L795.04 643.786C752.113 642.708 712.877 624.539 687.326 589.553C666.103 560.496 655.125 524.361 652.201 488.752C650.859 472.475 651.003 455.827 654.202 439.753C654.67 437.573 651.23 436.567 650.763 438.831Z" fill="#1D1935"/>
</g>
<defs>
<clipPath id="clip0">
<rect width="1080" height="1080" fill="white"/>
</clipPath>
</defs>
</svg>
